<svg xmlns="http://www.w3.org/2000/svg" xmlns:xlink="http://www.w3.org/1999/xlink" width="1438.242" height="847.839" viewBox="0 0 380.535 224.324"><defs><path id="a" d="M0 0h1400v980H0z"/></defs><g style="image-rendering:auto" transform="scale(.27181 .2289)"><clipPath id="b"><use xlink:href="#a" width="100%" height="100%" overflow="visible"/></clipPath><linearGradient id="c" x1="700" x2="700" y1="-42" y2="675.034" gradientUnits="userSpaceOnUse"><stop offset="0" style="stop-color:#83efff"/><stop offset=".233" style="stop-color:#8cf1fb"/><stop offset=".62" style="stop-color:#a6f7f0"/><stop offset="1" style="stop-color:#c5ffe3"/></linearGradient><path fill="url(#c)" d="M0 0h1400v980H0z" clip-path="url(#b)" style="fill:url(#c)"/><linearGradient id="d" x1="-18.457" x2="1243.104" y1="261.691" y2="261.691" gradientUnits="userSpaceOnUse"><stop offset="0" style="stop-color:#83efff"/><stop offset=".233" style="stop-color:#8cf1fb"/><stop offset=".62" style="stop-color:#a6f7f0"/><stop offset="1" style="stop-color:#c5ffe3"/></linearGradient><path fill="url(#d)" d="M0 0s921.1 37 667 123 158-34 508 0-750 82-1010 254 227-71.8 270.5-13.9-65.3 103.6 5.2 101.4-27 83.2-126.9-15.5S65 531.2 9 523.1 0 0 0 0" clip-path="url(#b)" style="fill:url(#d)"/><path fill="#cedcf6" d="M-60.4 647.5s67-128.3 246.5-158.6 199 59.8 273.2 34.2c74.3-25.5 54.8-167 119.3-176.5s257.2 155.2 353 131.1 382.5-162.9 425.5-109 34.5 149.9 142.5 129.6c108-20.2-40.5 208.8-40.5 208.8" clip-path="url(#b)"/><g fill="#64891f" clip-path="url(#b)"><path d="M185.6 580.9c1.6-1.3 2.4-2.7 2.3-4.2.3-1.1 0-1.8-.6-2.3-.7-1.5-2-3.2-3.9-5.2l-.7-.7c2.3-6.6-4.6-9.3-10.5-5.5-6.1 3.9 2.2 8.8 2.2 8.8v1.6l-.1.1c-3.8 3.3-1.4 4.9 0 7.2l-.1 5.3c-.9 1.7-.9 2.9-.5 3.8.5 1.8 2.5 3.1 5.3 3.4l1.1 11.2 4.3-1.1-.8-10.4c1.2-.3 2.5-.7 3.8-1.4 7.8-3.8-1.1-10.2-1.8-10.6M209.4 579.4c1.6-1.3 2.4-2.7 2.3-4.2.3-1.1 0-1.8-.6-2.3-.7-1.5-2-3.2-3.9-5.2l-.7-.7c2.3-6.6-4.6-9.3-10.5-5.5-6.1 3.9 2.2 8.8 2.2 8.8v1.6l-.1.1c-3.8 3.3-1.4 4.9 0 7.2l-.1 5.3c-.9 1.7-.9 2.9-.5 3.8.5 1.8 2.5 3.1 5.3 3.4l1.1 11.2 4.3-1.1-.8-10.4c1.2-.3 2.5-.7 3.8-1.4 7.8-3.8-1.1-10.1-1.8-10.6M233.2 578c1.6-1.3 2.4-2.7 2.3-4.2.3-1.1 0-1.8-.6-2.3-.7-1.5-2-3.2-3.9-5.2l-.7-.7c2.3-6.6-4.6-9.3-10.5-5.5-6.1 3.9 2.2 8.8 2.2 8.8v1.6l-.1.1c-3.8 3.3-1.4 4.9 0 7.2l-.1 5.3c-.9 1.7-.9 2.9-.5 3.8.5 1.8 2.5 3.1 5.3 3.4l1.1 11.2 4.3-1.1-.8-10.4c1.2-.3 2.5-.7 3.8-1.4 7.8-3.8-1.1-10.1-1.8-10.6M257 576.6c1.6-1.3 2.4-2.7 2.3-4.2.3-1.1 0-1.8-.6-2.3-.7-1.5-2-3.2-3.9-5.2l-.7-.7c2.3-6.6-4.6-9.3-10.5-5.5-6.1 3.9 2.2 8.8 2.2 8.8v1.6l-.1.1c-3.8 3.3-1.4 4.9 0 7.2l-.1 5.3c-.9 1.7-.9 2.9-.5 3.8.5 1.8 2.5 3.1 5.3 3.4l1.1 11.2 4.3-1.1-.8-10.4c1.2-.3 2.5-.7 3.8-1.4 7.8-3.8-1.1-10.2-1.8-10.6M280.8 575.1c1.6-1.3 2.4-2.7 2.3-4.2.3-1.1 0-1.8-.6-2.3-.7-1.5-2-3.2-3.9-5.2l-.7-.7c2.3-6.6-4.6-9.3-10.5-5.5-6.1 3.9 2.2 8.8 2.2 8.8v1.6l-.1.1c-3.8 3.3-1.4 4.9 0 7.2l-.1 5.3c-.9 1.7-.9 2.9-.5 3.8.5 1.8 2.5 3.1 5.3 3.4l1.1 11.2 4.3-1.1-.8-10.4c1.2-.3 2.5-.7 3.8-1.4 7.8-3.8-1.1-10.1-1.8-10.6M304.6 573.7c1.6-1.3 2.4-2.7 2.3-4.2.3-1.1 0-1.8-.6-2.3-.7-1.5-2-3.2-3.9-5.2l-.7-.7c2.3-6.6-4.6-9.3-10.5-5.5-6.1 3.9 2.2 8.8 2.2 8.8v1.6l-.1.1c-3.8 3.3-1.4 4.9 0 7.2l-.1 5.3c-.9 1.7-.9 2.9-.5 3.8.5 1.8 2.5 3.1 5.3 3.4l1.1 11.2 4.3-1.1-.8-10.4c1.2-.3 2.5-.7 3.8-1.4 7.8-3.8-1.1-10.1-1.8-10.6"/></g><g fill="#6d9b2d" clip-path="url(#b)"><path d="M191.9 578.1c1.7-1.4 2.5-2.9 2.5-4.6.3-1.2 0-2-.7-2.5-.7-1.6-2.1-3.4-4.2-5.5l-.8-.8c2.4-7.1-4.9-10-11.3-5.9-6.5 4.2 2.3 9.5 2.3 9.5v1.8l-.1.1c-4.1 3.6-1.5 5.3 0 7.7l-.1 5.7c-.9 1.8-.9 3.1-.5 4.1.6 1.9 2.7 3.3 5.6 3.7l1.2 12 4.6-1.2-.8-11.1c1.3-.3 2.7-.8 4-1.5 8.5-4.2-1-11-1.7-11.5M217.4 576.6c1.7-1.4 2.5-2.9 2.5-4.6.3-1.2 0-2-.7-2.5-.7-1.6-2.1-3.4-4.2-5.5l-.8-.8c2.4-7.1-4.9-10-11.3-5.9-6.5 4.2 2.3 9.5 2.3 9.5v1.8l-.1.1c-4.1 3.6-1.5 5.3 0 7.7l-.1 5.7c-.9 1.8-.9 3.1-.5 4.1.6 1.9 2.7 3.3 5.6 3.7l1.2 12 4.6-1.2-.8-11.1c1.3-.3 2.7-.8 4-1.5 8.6-4.2-1-11-1.7-11.5M243 575.1c1.7-1.4 2.5-2.9 2.5-4.6.3-1.2 0-2-.7-2.5-.7-1.6-2.1-3.4-4.2-5.5l-.8-.8c2.4-7.1-4.9-10-11.3-5.9-6.5 4.2 2.3 9.5 2.3 9.5v1.8l-.1.1c-4.1 3.6-1.5 5.3 0 7.7l-.1 5.7c-.9 1.8-.9 3.1-.5 4.1.6 1.9 2.7 3.3 5.6 3.7l1.2 12 4.6-1.2-.8-11.1c1.3-.3 2.7-.8 4-1.5 8.5-4.2-1-11.1-1.7-11.5M268.5 573.5c1.7-1.4 2.5-2.9 2.5-4.6.3-1.2 0-2-.7-2.5-.7-1.6-2.1-3.4-4.2-5.5l-.8-.8c2.4-7.1-4.9-10-11.3-5.9-6.5 4.2 2.3 9.5 2.3 9.5v1.8l-.1.1c-4.1 3.6-1.5 5.3 0 7.7l-.1 5.7c-.9 1.8-.9 3.1-.5 4.1.6 1.9 2.7 3.3 5.6 3.7l1.2 12 4.6-1.2-.8-11.1c1.3-.3 2.7-.8 4-1.5 8.6-4.2-1-11-1.7-11.5M294.1 572c1.7-1.4 2.5-2.9 2.5-4.6.3-1.2 0-2-.7-2.5-.7-1.6-2.1-3.4-4.2-5.5l-.8-.8c2.4-7.1-4.9-10-11.3-5.9-6.5 4.2 2.3 9.5 2.3 9.5v1.8l-.1.1c-4.1 3.6-1.5 5.3 0 7.7l-.1 5.7c-.9 1.8-.9 3.1-.5 4.1.6 1.9 2.7 3.3 5.6 3.7l1.2 12 4.6-1.2-.8-11.1c1.3-.3 2.7-.8 4-1.5 8.5-4.2-1-11-1.7-11.5M319.6 570.5c1.7-1.4 2.5-2.9 2.5-4.6.3-1.2 0-2-.7-2.5-.7-1.6-2.1-3.4-4.2-5.5l-.8-.8c2.4-7.1-4.9-10-11.3-5.9-6.5 4.2 2.3 9.5 2.3 9.5v1.8l-.1.1c-4.1 3.6-1.5 5.3 0 7.7l-.1 5.7c-.9 1.8-.9 3.1-.5 4.1.6 1.9 2.7 3.3 5.6 3.7l1.2 12 4.6-1.2-.8-11.1c1.3-.3 2.7-.8 4-1.5 8.6-4.2-1-11-1.7-11.5"/></g><g fill="#64891f" clip-path="url(#b)"><path d="M335.9 570c1.7-1.2 2.6-2.4 2.7-4 .4-1.1.1-1.8-.4-2.4-.6-1.6-1.7-3.4-3.4-5.5-.2-.3-.5-.5-.7-.8 2.8-6.4-3.7-9.7-10-6.4-6.4 3.3 1.4 9 1.4 9l-.2 1.6-.1.1c-4.1 3-1.8 4.8-.7 7.2l-.6 5.3c-1 1.6-1.1 2.8-.8 3.7.4 1.8 2.3 3.3 4.9 3.9l.1 11.2 4.4-.7.2-10.4c1.2-.2 2.5-.5 3.9-1 8.2-3.1-.1-10.2-.7-10.8M359.7 570.8c1.7-1.2 2.6-2.4 2.7-4 .4-1.1.1-1.8-.4-2.4-.6-1.6-1.7-3.4-3.4-5.5-.2-.3-.5-.5-.7-.8 2.8-6.4-3.7-9.7-10-6.4-6.4 3.3 1.4 9 1.4 9l-.2 1.6-.1.1c-4.1 3-1.8 4.8-.7 7.2l-.6 5.3c-1 1.6-1.1 2.8-.8 3.7.4 1.8 2.3 3.3 4.9 3.9l.1 11.2 4.4-.7.2-10.4c1.2-.2 2.5-.5 3.9-1 8.2-3.2-.1-10.3-.7-10.8M383.5 571.5c1.7-1.2 2.6-2.4 2.7-4 .4-1.1.1-1.8-.4-2.4-.6-1.6-1.7-3.4-3.4-5.5-.2-.3-.5-.5-.7-.8 2.8-6.4-3.7-9.7-10-6.4-6.4 3.3 1.4 9 1.4 9l-.1 1.6-.1.1c-4.1 3-1.8 4.8-.7 7.2l-.6 5.3c-1 1.6-1.1 2.8-.8 3.7.4 1.8 2.3 3.3 4.9 3.9l.1 11.2 4.4-.7.2-10.4c1.2-.2 2.5-.5 3.9-1 8.1-3.2-.1-10.3-.8-10.8M407.4 572.2c1.7-1.2 2.6-2.4 2.7-4 .4-1.1.1-1.8-.4-2.4-.6-1.6-1.7-3.4-3.4-5.5-.2-.3-.5-.5-.7-.8 2.8-6.4-3.7-9.7-10-6.4-6.4 3.3 1.4 9 1.4 9l-.2 1.6-.1.1c-4.1 3-1.8 4.8-.7 7.2l-.6 5.3c-1 1.6-1.1 2.8-.8 3.7.4 1.8 2.3 3.3 4.9 3.9l.1 11.2 4.4-.7.2-10.4c1.2-.2 2.5-.5 3.9-1 8.2-3.1-.1-10.2-.7-10.8M431.2 573c1.7-1.2 2.6-2.4 2.7-4 .4-1.1.1-1.8-.4-2.4-.6-1.6-1.7-3.4-3.4-5.5-.2-.3-.5-.5-.7-.8 2.8-6.4-3.7-9.7-10-6.4-6.4 3.3 1.4 9 1.4 9l-.2 1.6-.1.1c-4.1 3-1.8 4.8-.7 7.2l-.6 5.3c-1 1.6-1.1 2.8-.8 3.7.4 1.8 2.3 3.3 4.9 3.9l.1 11.2 4.4-.7.2-10.4c1.2-.2 2.5-.5 3.9-1 8.2-3.2-.1-10.3-.7-10.8M455 573.7c1.7-1.2 2.6-2.4 2.7-4 .4-1.1.1-1.8-.4-2.4-.6-1.6-1.7-3.4-3.4-5.5-.2-.3-.5-.5-.7-.8 2.8-6.4-3.7-9.7-10-6.4-6.4 3.3 1.4 9 1.4 9l-.2 1.6-.1.1c-4.1 3-1.8 4.8-.7 7.2l-.6 5.3c-1 1.6-1.1 2.8-.8 3.7.4 1.8 2.3 3.3 4.9 3.9l.1 11.2 4.4-.7.2-10.4c1.2-.2 2.5-.5 3.9-1 8.2-3.2 0-10.3-.7-10.8"/></g><g fill="#6d9b2d" clip-path="url(#b)"><path d="M342.3 567.9c1.8-1.2 2.8-2.6 2.9-4.3.4-1.2.1-2-.4-2.6-.6-1.7-1.8-3.6-3.7-5.9-.3-.3-.5-.6-.7-.8 3.1-6.8-4-10.4-10.7-6.9-6.8 3.6 1.5 9.7 1.5 9.7l-.2 1.7-.1.1c-4.4 3.2-2 5.1-.7 7.7l-.6 5.7c-1.1 1.7-1.2 3-.9 4 .4 2 2.4 3.5 5.3 4.2l.1 12.1 4.7-.7.2-11.2c1.3-.2 2.7-.5 4.1-1.1 8.8-3.5-.1-11.2-.8-11.7M367.9 568.7c1.8-1.2 2.8-2.6 2.9-4.3.4-1.2.1-2-.4-2.6-.6-1.7-1.8-3.6-3.7-5.9-.3-.3-.5-.6-.7-.8 3.1-6.8-4-10.4-10.7-6.9-6.8 3.6 1.5 9.7 1.5 9.7l-.2 1.7-.1.1c-4.4 3.2-2 5.1-.7 7.7l-.6 5.7c-1.1 1.7-1.2 3-.9 4 .4 2 2.4 3.5 5.3 4.2l.1 12.1 4.7-.7.2-11.2c1.3-.2 2.7-.5 4.1-1.1 8.8-3.5-.1-11.2-.8-11.7M393.5 569.4c1.8-1.2 2.8-2.6 2.9-4.3.4-1.2.1-2-.4-2.6-.6-1.7-1.8-3.6-3.7-5.9-.3-.3-.5-.6-.7-.8 3.1-6.8-4-10.4-10.7-6.9-6.8 3.6 1.5 9.7 1.5 9.7l-.2 1.7-.1.1c-4.4 3.2-2 5.1-.7 7.7l-.6 5.7c-1.1 1.7-1.2 3-.9 4 .4 2 2.4 3.5 5.3 4.2l.1 12.1 4.7-.7.2-11.2c1.3-.2 2.7-.5 4.1-1.1 8.7-3.5-.1-11.1-.8-11.7M419.1 570.2c1.8-1.2 2.8-2.6 2.9-4.3.4-1.2.1-2-.4-2.6-.6-1.7-1.8-3.6-3.7-5.9-.3-.3-.5-.6-.7-.8 3.1-6.8-4-10.4-10.7-6.9-6.8 3.6 1.5 9.7 1.5 9.7l-.2 1.7-.1.1c-4.4 3.2-2 5.1-.7 7.7l-.6 5.7c-1.1 1.7-1.2 3-.9 4 .4 2 2.4 3.5 5.3 4.2l.1 12.1 4.7-.7.2-11.2c1.3-.2 2.7-.5 4.1-1.1 8.7-3.5-.2-11.1-.8-11.7M444.6 571c1.8-1.2 2.8-2.6 2.9-4.3.4-1.2.1-2-.4-2.6-.6-1.7-1.8-3.6-3.7-5.9-.3-.3-.5-.6-.7-.8 3.1-6.8-4-10.4-10.7-6.9-6.8 3.6 1.5 9.7 1.5 9.7l-.2 1.7-.1.1c-4.4 3.2-2 5.1-.7 7.7l-.6 5.7c-1.1 1.7-1.2 3-.9 4 .4 2 2.4 3.5 5.3 4.2l.1 12.1 4.7-.7.2-11.2c1.3-.2 2.7-.5 4.1-1.1 8.8-3.5-.1-11.1-.8-11.7M470.2 571.8c1.8-1.2 2.8-2.6 2.9-4.3.4-1.2.1-2-.4-2.6-.6-1.7-1.8-3.6-3.7-5.9-.3-.3-.5-.6-.7-.8 3.1-6.8-4-10.4-10.7-6.9-6.8 3.6 1.5 9.7 1.5 9.7l-.2 1.7-.1.1c-4.4 3.2-2 5.1-.7 7.7l-.6 5.7c-1.1 1.7-1.2 3-.9 4 .4 2 2.4 3.5 5.3 4.2l.1 12.1 4.7-.7.2-11.2c1.3-.2 2.7-.5 4.1-1.1 8.8-3.5-.1-11.1-.8-11.7"/></g><g fill="#64891f" clip-path="url(#b)"><path d="M39 603.9c1.4-1.5 2.1-2.9 1.9-4.5.1-1.1-.2-1.8-.8-2.3-.8-1.4-2.3-3-4.4-4.7-.3-.2-.5-.4-.8-.6 1.5-6.8-5.5-8.8-11-4.3-5.6 4.5 3.1 8.6 3.1 8.6l.1 1.6-.1.1c-3.4 3.7-.9 5 .7 7.2l.5 5.3c-.7 1.8-.6 3-.1 3.8.7 1.7 2.9 2.8 5.6 2.9l2.3 11 4.2-1.5-1.9-10.2q1.8-.6 3.6-1.8c7.4-4.8-2.1-10.2-2.9-10.6M62.6 600c1.4-1.5 2.1-2.9 1.9-4.5.1-1.1-.2-1.8-.8-2.3-.8-1.4-2.3-3-4.4-4.7-.3-.2-.5-.4-.8-.6 1.5-6.8-5.5-8.8-11-4.3-5.6 4.5 3.1 8.6 3.1 8.6l.1 1.6-.1.1c-3.4 3.7-.9 5 .7 7.2l.5 5.3c-.7 1.8-.6 3-.1 3.8.7 1.7 2.9 2.8 5.6 2.9l2.3 11 4.2-1.5-1.9-10.2q1.8-.6 3.6-1.8c7.3-4.8-2.2-10.2-2.9-10.6M86.1 596.1c1.4-1.5 2.1-2.9 1.9-4.5.1-1.1-.2-1.8-.8-2.3-.8-1.4-2.3-3-4.4-4.7-.3-.2-.5-.4-.8-.6 1.5-6.8-5.5-8.8-11-4.3-5.6 4.5 3.1 8.6 3.1 8.6l.1 1.6-.1.1c-3.4 3.7-.9 5 .7 7.2l.5 5.3c-.7 1.8-.6 3-.1 3.8.7 1.7 2.9 2.8 5.6 2.9l2.3 11 4.2-1.5-1.9-10.2q1.8-.6 3.6-1.8c7.3-4.9-2.2-10.2-2.9-10.6M109.6 592.1c1.4-1.5 2.1-2.9 1.9-4.5.1-1.1-.2-1.8-.8-2.3-.8-1.4-2.3-3-4.4-4.7-.3-.2-.5-.4-.8-.6 1.5-6.8-5.5-8.8-11-4.3-5.6 4.5 3.1 8.6 3.1 8.6l.1 1.6-.1.1c-3.4 3.7-.9 5 .7 7.2l.5 5.3c-.7 1.8-.6 3-.1 3.8.7 1.7 2.9 2.8 5.6 2.9l2.3 11 4.2-1.5-1.9-10.2q1.8-.6 3.6-1.8c7.3-4.8-2.2-10.2-2.9-10.6M133.1 588.2c1.4-1.5 2.1-2.9 1.9-4.5.1-1.1-.2-1.8-.8-2.3-.8-1.4-2.3-3-4.4-4.7-.3-.2-.5-.4-.8-.6 1.5-6.8-5.5-8.8-11-4.3-5.6 4.5 3.1 8.6 3.1 8.6l.1 1.6-.1.1c-3.4 3.7-.9 5 .7 7.2l.5 5.3c-.7 1.8-.6 3-.1 3.8.7 1.7 2.9 2.8 5.6 2.9l2.3 11 4.2-1.5-1.9-10.2q1.8-.6 3.6-1.8c7.3-4.8-2.2-10.2-2.9-10.6M156.6 584.3c1.4-1.5 2.1-2.9 1.9-4.5.1-1.1-.2-1.8-.8-2.3-.8-1.4-2.3-3-4.4-4.7-.3-.2-.5-.4-.8-.6 1.5-6.8-5.5-8.8-11-4.3-5.6 4.5 3.1 8.6 3.1 8.6l.1 1.6-.1.1c-3.4 3.7-.9 5 .7 7.2l.5 5.3c-.7 1.8-.6 3-.1 3.8.7 1.7 2.9 2.8 5.6 2.9l2.3 11 4.2-1.5-1.9-10.2q1.8-.6 3.6-1.8c7.4-4.8-2.2-10.2-2.9-10.6"/></g><g fill="#6d9b2d" clip-path="url(#b)"><path d="M45 600.5c1.5-1.6 2.2-3.1 2-4.8.2-1.2-.2-1.9-.9-2.4q-1.35-2.25-4.8-5.1c-.3-.3-.6-.5-.9-.7 1.7-7.3-5.9-9.4-11.9-4.6s3.3 9.2 3.3 9.2l.2 1.8-.1.1c-3.7 4-.9 5.4.8 7.7l.5 5.7c-.7 1.9-.6 3.2-.1 4.1.8 1.9 3.1 3 6 3.1l2.5 11.8 4.5-1.6-2-11c1.3-.4 2.6-1.1 3.9-1.9 7.9-5.2-2.3-10.9-3-11.4M70.2 596.3c1.5-1.6 2.2-3.1 2-4.8.2-1.2-.2-1.9-.9-2.4q-1.35-2.25-4.8-5.1c-.3-.3-.6-.5-.9-.7 1.7-7.3-5.9-9.4-11.9-4.6s3.3 9.2 3.3 9.2l.2 1.8-.1.1c-3.7 4-.9 5.4.8 7.7l.5 5.7c-.7 1.9-.6 3.2-.1 4.1.8 1.9 3.1 3 6 3.1l2.5 11.8 4.5-1.6-2-11c1.3-.4 2.6-1.1 3.9-1.9 8-5.2-2.2-11-3-11.4M95.4 592.1c1.5-1.6 2.2-3.1 2-4.8.2-1.2-.2-1.9-.9-2.4q-1.35-2.25-4.8-5.1c-.3-.3-.6-.5-.9-.7 1.7-7.3-5.9-9.4-11.9-4.6s3.3 9.2 3.3 9.2l.2 1.8-.1.1c-3.7 4-.9 5.4.8 7.7l.5 5.7c-.7 1.9-.6 3.2-.1 4.1.8 1.9 3.1 3 6 3.1L92 618l4.5-1.6-2-11c1.3-.4 2.6-1.1 3.9-1.9 8-5.2-2.2-11-3-11.4M120.7 587.9c1.5-1.6 2.2-3.1 2-4.8.2-1.2-.2-1.9-.9-2.4q-1.35-2.25-4.8-5.1c-.3-.3-.6-.5-.9-.7 1.7-7.3-5.9-9.4-11.9-4.6s3.3 9.2 3.3 9.2l.2 1.8-.1.1c-3.7 4-.9 5.4.8 7.7l.5 5.7c-.7 1.9-.6 3.2-.1 4.1.8 1.9 3.1 3 6 3.1l2.5 11.8 4.5-1.6-2-11c1.3-.4 2.6-1.1 3.9-1.9 8-5.2-2.2-11-3-11.4M145.9 583.7c1.5-1.6 2.2-3.1 2-4.8.2-1.2-.2-1.9-.9-2.4q-1.35-2.25-4.8-5.1c-.3-.3-.6-.5-.9-.7 1.7-7.3-5.9-9.4-11.9-4.6s3.3 9.2 3.3 9.2l.2 1.8-.1.1c-3.7 4-.9 5.4.8 7.7l.5 5.7c-.7 1.9-.6 3.2-.1 4.1.8 1.9 3.1 3 6 3.1l2.5 11.8 4.5-1.6-2-11c1.3-.4 2.6-1.1 3.9-1.9 8-5.2-2.2-11-3-11.4M171.2 579.5c1.5-1.6 2.2-3.1 2-4.8.2-1.2-.2-1.9-.9-2.4q-1.35-2.25-4.8-5.1c-.3-.3-.6-.5-.9-.7 1.7-7.3-5.9-9.4-11.9-4.6s3.3 9.2 3.3 9.2l.2 1.8-.1.1c-3.7 4-.9 5.4.8 7.7l.5 5.7c-.7 1.9-.6 3.2-.1 4.1.8 1.9 3.1 3 6 3.1l2.5 11.8 4.5-1.6-2-11c1.3-.4 2.6-1.1 3.9-1.9 7.9-5.2-2.3-11-3-11.4"/></g><ellipse cx="399.8" cy="757.3" fill="#64891f" clip-path="url(#b)" rx="619.8" ry="180"/><ellipse cx="913.7" cy="705.8" fill="#6d9b2d" clip-path="url(#b)" rx="619.8" ry="180"/><path fill="#d9ca9f" d="M551 609v112h17V609M278 622.1v112.1h17V622.1M20 659.1 27 763l14-12.6-10.5-99.3" clip-path="url(#b)"/><path fill="#d9ca9f" d="M-35 749s464.2-95.9 628.5-61v-20S391 644.3-86 738.3M-35 705.8s464.2-95.9 628.5-61v-20S391 601.1-86 695.1" clip-path="url(#b)"/><path fill="#8e3c30" d="m1330.2 523.6-45 220.4-352.4-11.4L910.3 450l220.5-86.9" clip-path="url(#b)"/><path fill="#8e3c30" d="m641.3 478.3 3.4 265.7h379.6l9.2-272.5-33.9-175.6-56.4-39.9-82-71-58 40-87 51" clip-path="url(#b)"/><path fill="#aa442e" d="m720.5 271.7 17.3 456h38.7l-10.8-477.6M825.2 203l-9.4 529.6h42l28.6-537.9-25.2-13.7M953.8 261.7l-48 466 40 7.3 62-446" clip-path="url(#b)"/><circle cx="851.1" cy="276.3" r="33.3" fill="#e3f9ff" clip-path="url(#b)"/><path fill="#aa442e" d="m1033.5 421-57.7 311.6 32 5.7 50-242.6" clip-path="url(#b)"/><path fill="#772d25" d="M1081.8 509.7 1050.5 744l42 3 27.8-230.7M1159.2 509.7 1132.5 744h35.3l33.4-234.3M1247.2 509.7l-36 234.3 36 3 51.3-237.3" clip-path="url(#b)"/><path fill="#aa442e" d="m684.4 389.2 8.4 343.4-48.4-8-3.1-267.6" clip-path="url(#b)"/><path fill="#d9ca9f" d="m734.2 270 122-77 132.4 100.9 55.9 229.7h27.5L1009.2 285 854.8 169.6l-140 96-116.4 258h29.9z" clip-path="url(#b)"/><path fill="#d9ca9f" d="m1298.9 326.2-.4.5-93.6-93.9.5-.5-350.2-63.2 145.5 115.5 71.8 238.5h294.2z" clip-path="url(#b)"/><path fill="#ceb880" d="m854.8 169.6 179.1 142.7 57.9 211.3h38.4l-63.1-211.4-161.3-133.4" clip-path="url(#b)"/><path fill="#ceb880" d="M994.8 194.9 1123.2 323l58 200.6h34.6l-52.2-201.3L1045 203.9" clip-path="url(#b)"/><path fill="#ceb880" d="M1102.7 213.8 1224.2 329l49 194.6h30L1254.8 327l-102.3-104.7" clip-path="url(#b)"/><path fill="#772d25" d="m784.7 577 2.5 144h111.5l15-147" clip-path="url(#b)"/><path fill="#d9ca9f" d="m782.2 577.3 109 155.3 6.3-17.3-100.3-145" clip-path="url(#b)"/><path fill="#d9ca9f" d="M913 582 792.4 728.4l-4.9-17.7 111.1-136.9M692.8 342h326.6v26.7H686.2M851.1 232.6c-24.1 0-43.7 19.6-43.7 43.7S827 320 851.1 320s43.7-19.6 43.7-43.7-19.5-43.7-43.7-43.7m0 73.4c-16.4 0-29.7-13.3-29.7-29.7s13.3-29.7 29.7-29.7 29.7 13.3 29.7 29.7-13.3 29.7-29.7 29.7" clip-path="url(#b)"/><path fill="#d9ca9f" d="M845.1 243h12.1v66.7h-12.1z" clip-path="url(#b)"/><path fill="#d9ca9f" d="M817.8 270.3h66.7v12.1h-66.7zM772.7 560.9l3.7 160.6h19.8l-2.7-138h108.7l-12.4 137.6 16-.1L923 560.9z" clip-path="url(#b)"/><path fill="#d9ca9f" d="M747.3 538.8h201.3v29.6H747.3z" clip-path="url(#b)"/><ellipse cx="741" cy="980" fill="#a5bc38" clip-path="url(#b)" rx="1328" ry="269"/><path fill="#95a32e" d="M-121.8 829s167.7-83.9 460.2-71c0 0-213.6 9-305.4 71 0 0 402.1-90 639.1-22 0 0-193.2-46-564.5 58 0 0 480.3-86 708.3 14 0 0-260.5-66.3-754.1 50 0 0 507.3 14 657.2-10 0 0-227.7 162-870 36" clip-path="url(#b)" opacity=".3"/><path fill="#a5bc38" d="M1159 686.2s-1.1-48.7 28.8-33.3c0 0 21.3-33.9 55.6-4.3 0 0 43.6-10.4 48.3 31.6 0 0 37.3-9.3 47.3 25.3 10 34.7-37.3 77-81.1 48.7 0 0 17.9 29.4-16.9 38s-40.2-4.5-48-18.7c0 0 14.7 46.7-38.7 45.3-53.3-1.3-48.6-159.3 4.7-132.6M620.3 689.6s-.6-25.1 14.8-17.2c0 0 11-17.5 28.7-2.2 0 0 22.5-5.4 24.9 16.3 0 0 19.3-4.8 24.4 13.1 5.2 17.9-19.2 39.7-41.8 25.1 0 0 9.2 15.2-8.7 19.6s-20.7-2.3-24.8-9.6c0 0 7.6 24.1-19.9 23.4-27.6-.8-25.2-82.2 2.4-68.5" clip-path="url(#b)"/><path fill="#d9ca9f" d="M905.8 713.1c-32.8 33.9-121.2 19.5-66 95.9 57.7 80-12.8 171-12.8 171H339c190-33 452-173 409.5-207s24.2-61.9 24.2-61.9Z" clip-path="url(#b)"/><path fill="#95a32e" d="M1564.7 884.9s-108.7-99.2-319.4-114.4c0 0 151.4 29.3 208.8 99.6 0 0-275.4-127.7-453.7-83 0 0 144.1-27.1 395.6 111.5 0 0-331.7-131.2-507.9-53.9 0 0 194.9-40.8 532.1 121.8 0 0-364.3-34.7-468.2-72.8 0 0 141.1 182.4 616.8 119" clip-path="url(#b)" opacity=".3"/><path fill="#ceb880" d="M772.7 711.1s98.3 5.9 70.3 9.4-98.5 2.7-66.5 12.1 32.5 22.5 14.5 25.5-32.6 11-6.3 12.5 14.7 6-2.5 9-51.2 15.5-9.4 21.5 105.3 45 38.3 56-126 23.5-83 34 128.5 24.5 67.5 36.5-261.5 1-228 22 247.9 5 220 30.5H339s201.3-51.7 280-69 16.7-18.3 42.7-31.2c26-12.8 132.4-24.2 114.8-44.8s-37.9-32-19.5-52.3-9-14.9-5.3-24.6 19.3-10.7 12.7-17.7c-6.7-7-15-20.7 6.3-24.3 21.3-3.8 2-5.1 2-5.1" clip-path="url(#b)" opacity=".5"/><path fill="#fff8eb" d="M90.5 141.5h200.7l-33.7-23.2s38.7-25.4-.8-46.6-46.1 34.9-46.1 34.9 27-36-19.8-39.7-24.2 37.3-24.2 37.3-14.7-19.8-33 4.5c0 0-6.5-31.8-34.6-22.3s-19.5 35 0 31.8zM568 290.2H439.3l20.7-16.7s-32-17.3-4-30 39.3 21.3 39.3 21.3-32.7-45.3 22.7-54c55.3-8.7 30.7 54.6 20 62.6 0 0 5.3-22.6 30-4.6 0 0 2.7-19.3 21.3-12.7 18.7 6.7 29.2 34 29.2 34" clip-path="url(#b)"/></g><path fill="#ff860d" stroke="#010101" stroke-linecap="round" stroke-linejoin="round" stroke-width="1.05832" d="M122.682 91.662c-2.498-16.823 14.393-17.955 12.492-24.651-1.977-6.965-9.66-4.997-13.657-5.997-3.997-.999-3.408-4.691-1-6.662 1.833-1.5 16.814-2.31 20.321 8.66 4.878 15.262-11.992 13.992-11.992 28.316 0 12.18-5.83.334-6.163.334z"/><g fill="#442006"><path d="M130.668 59.466c-.024.077.017.142.076.187.591.448 1.39.264 2.074.617.966.499 1.767 1.403 2.609 2.082a14.2 14.2 0 0 0 5.887 2.827l.097.019c-.14-.69-.329-1.415-.575-2.184q-.242-.754-.552-1.434l-.06-.012c-2.144-.493-3.843-1.785-5.83-2.63-.984-.419-3.288-.88-3.725.528zM125.657 86.878c.455-.691.902-1.388 1.371-2.07.377-.548.965-.962 1.11-1.626a.137.137 0 0 0-.094-.165c-1.038-.354-2.17.829-2.89 1.454-.87.756-1.792 1.47-2.647 2.25a20 20 0 0 0 .065 4.075q.27-.294.534-.589a29 29 0 0 0 2.551-3.334zM130.01 77.28c-1.14.168-2.287.246-3.432.335a17 17 0 0 0-2.196 3.009c1.778-.105 3.56.07 5.34.003 1.328-.05 2.64-.213 3.96-.283 1.151-1.162 2.374-2.223 3.511-3.317-2.339-.483-4.858-.086-7.183.255zM129.044 88.754c-1.127.967-2.138 2.1-3.287 3.08-.16.136.052.411.226.292.976-.673 1.923-1.319 2.897-1.887q.053-.771.164-1.484zM118.843 59.064c.372.865 1.217 1.587 2.673 1.951.458.114.965.189 1.504.243.789-.532 1.573-1.072 2.365-1.6 1.765-1.177 3.68-2.029 5.539-3.036.341-.185.358-.747 0-.928-3.855-1.941-7.844.945-11.135 2.839q-.468.27-.945.53zM138.685 71.555c-.88-.305-2.29-1.122-3.799-1.83-.44.838-1.181 1.623-2.092 2.427.552.357 1.086.746 1.614 1.126 1.278.922 2.748 1.669 4.23 2.265.908-1.013 1.691-2.098 2.242-3.345a20 20 0 0 1-2.194-.643z"/></g><path fill="#010101" fill-opacity=".314" d="M136.761 57.069a12.4 12.4 0 0 1 2.092 3.96c4.876 15.261-11.99 13.994-11.99 28.321 0 4.947-.97 5.927-2.134 5.35 1.797 2.435 4.117 4.32 4.117-3.365 0-14.325 16.868-13.058 11.99-28.319-.829-2.593-2.292-4.523-4.075-5.946z"/><path fill="#ff860d" stroke="#010101" stroke-linecap="round" stroke-linejoin="round" stroke-width="1.05832" d="M162.812 119.31c.012 18.03-14.594 32.655-32.623 32.669-18.03.013-32.655-14.595-32.668-32.624v-.043c-.012-18.03 14.594-32.655 32.623-32.669 18.03-.012 32.655 14.595 32.668 32.624v.045z"/><g fill="#442006"><path d="M119.3 90.196c2.131.483 4.445.764 6.625.525 1.71-.187 4.213-.612 4.604-2.574.027-.137-.038-.243-.166-.293-1.487-.572-3.192.01-4.785-.006a19 19 0 0 1-3.072-.3 32.4 32.4 0 0 0-5.755 1.97c.845.254 1.698.481 2.55.672zM124.104 94.82c5.157.092 10.323-.027 15.483.023 3.989.038 8.094.446 12.064-.132a33 33 0 0 0-4.867-3.526c-2.57.084-5.18-.067-7.7.157-4.844.43-9.62 1.257-14.483 1.555-2.478.15-4.981.233-7.46.07a48 48 0 0 1-3.803-.416c-.488-.072-.987-.185-1.488-.288q-.762.518-1.491 1.077c1.752.705 4.023.777 5.786.978 2.642.302 5.302.455 7.959.503zM155.986 137.985c-3.319.3-6.534-.411-9.624-1.577-1.618-.61-3.189-1.324-4.826-1.887-1.452-.5-3.153-1.9-4.71-1.828-.281.013-.463.306-.321.56.357.637.93.936 1.529 1.342a28 28 0 0 1 2.409 1.804 31 31 0 0 0 4.568 3.213c2.559 1.483 5.307 2.457 8.195 2.85a33 33 0 0 0 3.848-4.61c-.358.053-.712.098-1.072.133zM142.543 144.427c-5.22-1.909-9.639-5.505-15.193-6.585-7.098-1.381-13.641 1.46-19.585 5.237q.97.915 2.012 1.748a40 40 0 0 1 3.637-1.47c4.909-1.677 9.914-2.493 14.895-.639 2.456.914 4.723 2.432 7.001 3.708 2.253 1.26 4.58 2.35 7.008 3.214a32.6 32.6 0 0 0 6.645-3.614c-2.199-.183-4.35-.841-6.419-1.598zM104.403 100.763c2.923 1.057 5.992 1.835 9.075 2.237 7.141.932 14.269-1.032 21.395-1.252 7.239-.223 14.276 2.558 21.51.977a17 17 0 0 0 1.649-.454 33 33 0 0 0-2.736-3.823q-.237.065-.48.123c-3.075.728-6.402.342-9.499-.04-3.498-.43-6.91-.906-10.444-.737-6.751.323-13.343 2.174-20.126 2.103-2.992-.03-5.926-.662-8.79-1.483q-.354-.104-.705-.218a33 33 0 0 0-1.739 2.239c.296.11.593.222.89.328zM100.678 111.085c1.796.06 3.551.492 5.322.76 1.892.288 3.773.637 5.672.883 3.674.476 7.31.419 10.895-.598 1.804-.512 3.485-1.392 5.064-2.388.732-.461 1.345-1.04 1.994-1.607.54-.473 1.317-.885 1.423-1.645.015-.11-.011-.193-.105-.257-.965-.671-3.057.258-4.048.603-1.787.624-3.41 1.443-5.28 1.844-3.59.768-7.063.228-10.555-.713-3.537-.953-6.964-1.96-10.648-2.127a32.4 32.4 0 0 0-1.86 5.276c.703-.04 1.409-.055 2.126-.031M116.86 124.308c1.693-.434 3.304-1.258 4.821-2.11 1.338-.75 2.802-1.575 3.73-2.818.634-.85-.23-2.027-1.164-2.03-1.584-.003-3.058.969-4.447 1.63-1.613.768-3.295 1.45-5.093 1.596-2.008.163-3.879-.511-5.68-1.321-2.002-.9-3.968-1.803-6.072-2.447a25 25 0 0 0-5.248-1.001 33 33 0 0 0-.185 3.504v.044q0 .84.043 1.668c2.867.241 5.72.986 8.392 1.97 3.624 1.334 7.048 2.3 10.903 1.313zM102.723 133.198c2.554-1.023 5.233-1.96 7.998-2.167 1.867-.14 6.662.777 7.274-1.796.079-.332-.045-.702-.355-.873-1.032-.567-2.436-.152-3.58-.318-1.553-.224-3.045-.702-4.61-.894-3.003-.369-6.12.23-8.905 1.363q-.76.312-1.515.654a32.4 32.4 0 0 0 1.958 4.816c.566-.28 1.142-.545 1.735-.783zM136.55 126.608c5.556-.69 10.165 2.306 15.08 4.345 2.721 1.13 5.494 1.753 8.28 1.854a32.4 32.4 0 0 0 1.695-4.65c-.825.074-1.659.101-2.501.066-2.527-.105-5.013-1.017-7.335-1.955-4.712-1.906-9.144-4.059-14.38-3.577-5.266.486-10.348 3.108-15.75 2.21-.572-.096-1.024.538-.583 1.001 3.949 4.144 10.666 1.307 15.495.707zM146.03 108.232c-1.508.414-3.016.32-4.542.084-1.214-.188-2.826-.805-4.023-.363-.13.048-.208.165-.174.305.263 1.057 1.424 1.788 2.318 2.285 1.444.804 3.001 1.149 4.63 1.336 3.163.364 6.083-.89 8.945-2.026 2.292-.91 4.655-1.656 6.916-.524.469.235.93.483 1.385.722a32.4 32.4 0 0 0-2.452-6.019c-1.684-.122-3.392.195-5 .791-2.728 1.01-5.186 2.635-8.007 3.408zM151.816 113.712c-.629-.398-1.13.547-.568.972 2.666 2.016 6.344 2.164 9.523 1.685q.952-.144 1.877-.393a33 33 0 0 0-.463-3.088c-3.074 1.63-7.218 2.815-10.366.823zM127.932 113.94c-.05.06-.032.147.046.172.88.291 1.865 0 2.784.042 1.465.066 2.898.655 4.204 1.278 2.34 1.115 4.333 2.81 6.542 4.148 4.404 2.668 9.4 4.305 14.579 4.213a21.8 21.8 0 0 0 6.555-1.117q.17-1.661.17-3.367v-.043q-.001-.63-.027-1.254c-2.328 1.18-5.012 1.729-7.608 1.82-5.079.18-10.175-1.717-14.608-4.039-2.229-1.167-4.617-2.055-7.106-2.442-1.458-.23-4.435-.722-5.53.585z"/></g><path fill="#010101" fill-opacity=".314" d="M158.788 103.8a32.6 32.6 0 0 1 1.298 9.154c0 18.02-14.623 32.644-32.644 32.644-12.39 0-23.177-6.914-28.708-17.09 3.975 13.546 16.502 23.448 31.33 23.448 18.02 0 32.644-14.623 32.644-32.644a32.5 32.5 0 0 0-3.921-15.51z"/><path fill="#ff860d" stroke="#010101" stroke-linecap="round" stroke-linejoin="round" stroke-width="1.05832" d="M128.586 151.042c0 5.7-4.626 5.496-10.327 5.496-3.17 0-6.007.063-7.902-.861-1.513-.738-2.424-2.105-2.424-4.636 0-5.7 4.626-10.327 10.326-10.327s10.327 4.628 10.327 10.327zM152.404 151.042c0 5.7-4.626 5.496-10.327 5.496s-10.327.204-10.327-5.496 4.627-10.327 10.327-10.327 10.327 4.628 10.327 10.327z"/><g fill="#442006"><path d="M123.51 156.373c1.73-.21 3.136-.684 4.025-1.753-.661-.341-1.321-.672-1.944-1.018-2.177-1.21-4.623-2.22-7.087-2.626-2.475-.408-4.706.378-7.108.793-.35.06-2.03.235-3.38.501q.09.619.274 1.123c.284-.036.563-.076.83-.104 1.228-.129 2.45-.313 3.678-.44 2.116-.219 4.547.236 6.483 1.079 1.49.65 2.846 1.582 4.23 2.445zM136.703 150.404c.508-.334.552-.795.846-1.279a.02.02 0 0 0-.003-.025c-.356-.31-.42-.746-.843-1.01-.585-.367-1.157-.443-1.832-.523-.822-.097-1.683-.175-2.507-.038a10.3 10.3 0 0 0-.614 3.513q.001.137.007.272c.227.034.476.032.747-.02a34 34 0 0 1 2.751-.405c.548-.055.987-.18 1.447-.484zM151.332 153.397c-2-.456-3.906-1.254-5.871-1.828-1.054-.308-2.18-.401-3.268-.527-1.02-.118-1.533-.037-2.272.638-.082.074-.01.183.08.194.65.078 1.402.192 2.032.35.733.186 1.14.78 1.7 1.206.855.65 1.794 1.14 2.737 1.646.72.385 1.463.74 2.225 1.054 1.551-.386 2.714-1.14 3.295-2.596q-.326-.066-.657-.14zM117.372 142.943c-.003.025.018.042.038.05 1.168.485 2.814.17 4.045-.013.744-.11 1.603-.3 2.24-.714a10.3 10.3 0 0 0-3.106-1.282c-.247.084-.492.16-.733.219-.944.225-2.369.619-2.485 1.738zM119.73 145.605c-.778-.125-1.267.847-.55 1.303 1.875 1.192 4.108 1.236 6.187.623.73-.215 1.51-.502 2.237-.882-.401-.85-.915-1.637-1.522-2.341-.314.207-.633.413-.965.602-1.735.987-3.468 1.005-5.385.696zM134.93 145.488c.952.47 1.859 1.025 2.808 1.5 2.199 1.1 4.365 1.12 6.67.34 1.987-.673 3.79-1.76 5.75-2.49q.067-.024.136-.048a10.4 10.4 0 0 0-2.413-2.289c-.909.395-1.8.84-2.691 1.243-1.03.465-2.117.842-3.248.945-1.122.102-2.175-.406-3.14-.914-.747-.392-1.588-.895-2.47-1.314a10.4 10.4 0 0 0-2.665 2.594c.418.098.833.222 1.262.434zM108.79 146.92q.21.065.42.135c1.65.555 2.928 1.156 4.728 1.05.362-.021 2.316-.209 2.154-.952-.259-1.19-2.294-1.14-3.138-1.651-.702-.426-1.29-1.12-1.95-1.615q-.055-.04-.111-.079a10.4 10.4 0 0 0-2.103 3.111z"/></g><path fill="#010101" fill-opacity=".314" d="M123.554 142.255a10.36 10.36 0 0 1-1.951 14.246c3.99-.151 6.854-.977 6.854-5.457a10.32 10.32 0 0 0-4.901-8.79z"/><g fill="none" stroke="#010101" stroke-linecap="round" stroke-width="4"><path stroke-width="1.05832" d="M122.143 155.972c.927-2.999-.132-6.496-.132-6.496M117.375 156.636c-1.136-4.83.162-8.66.162-8.66M112.544 156.138c-2.332-3.664-.333-6.662-.333-6.662"/></g><path fill="#010101" fill-opacity=".314" d="M147.498 142.255a10.34 10.34 0 0 1 1.993 6.11c0 3.299-1.544 6.234-3.944 8.136 3.99-.151 6.854-.977 6.854-5.457 0-3.712-1.958-6.969-4.903-8.79zM133.129 145.885a10.3 10.3 0 0 0-1.381 5.16c0 4.631 3.057 5.36 7.26 5.473-4.176-1.74-6.298-5.876-5.88-10.633z"/><g fill="none" stroke="#010101" stroke-linecap="round" stroke-width="4"><path stroke-width="1.05832" d="M138.385 155.972c-.927-2.999.132-6.496.132-6.496M143.153 156.636c1.136-4.83-.162-8.66-.162-8.66M147.984 156.138c2.332-3.664.334-6.662.334-6.662"/></g><path fill="#010101" fill-opacity=".314" d="M112.351 98.482a25.2 25.2 0 0 0-5.184 15.346c0 13.975 11.342 25.318 25.317 25.318s25.318-11.342 25.318-25.318c0-5.715-1.904-9.131-5.102-13.37.985-.673 1.823-1.506 2.539-2.43-2.795-3-18.619-9.517-22.755-9.517-4.042 0-21.542 8.961-20.132 9.972z"/><path fill="#ff860d" stroke="#010101" stroke-linecap="round" stroke-linejoin="round" stroke-width="1.05832" d="M103.71 82.824c-1.552 1.317 1.783 13.297 3.806 14.566a25.9 25.9 0 0 0-3.369 12.794c0 14.374 11.66 26.045 26.034 26.045 14.375 0 26.045-11.67 26.045-26.045 0-4.65-1.23-9.013-3.369-12.794 2.019-1.27 4.668-12.857 3.37-14.156-1.3-1.298-11.972 2.254-13.242 4.273-.679-.385-2.631-1.84-2.631-1.84l-2.381 1.448-.393-2.293-1.582 1.302-1.413-1.831-2.1 2.432-2.317-1.61-.986 1.912-2.392-2.117-1.164 2.558-1.852-2.91-1.94 2.645-1.94-1.536s-1.717 1.393-2.506 1.84c-1.275-2.016-12.433-5.744-13.684-4.68z"/><g fill="#442006"><path d="M146.17 112.712c-1.994-.062-3.965-.36-5.955-.46-1.288-.065-2.582-.08-3.871-.114-.999-.027-2.239-.327-3.113.221-.289.18-.294.515-.099.763.653.83 1.956.85 2.936 1.057 1.423.302 2.842.52 4.245.921 2.024.58 3.946 1.368 6.018 1.8 2.227.463 4.404.544 6.65.19.784-.124 1.664-.35 2.498-.696.45-1.839.706-3.753.742-5.72-1.574.324-2.927 1.349-4.538 1.711-1.783.402-3.696.381-5.51.326zM151.75 83.713c.34.93.797 1.774 1.084 2.733.275.918.572 2.005 1.277 2.689.89.861 2.041-.22 1.604-1.237-.402-.936-.825-1.844-1.192-2.802-.265-.69-.573-1.45-1.123-1.962a23 23 0 0 0-1.693.373c.006.071.016.14.043.209zM137.217 105.362c-.85.007-1.727-.175-2.562-.013-.171.033-.207.302-.05.378 1.377.663 3.342.392 4.832.375 1.938-.023 3.869-.171 5.798-.35 2.763-.257 5.751-.223 8.397-1.187 1.318-.48 1.71-2.265.398-3.045-2.89-1.717-5.291 1.853-7.763 2.607-1.894.577-3.965.803-5.925 1.044-1.04.127-2.08.18-3.125.19zM130.53 90.246c-1.254 2.771-2.165 6.428-.951 9.376.224.544 1.048.828 1.376.18 1.164-2.296 2.136-4.637 3.501-6.836.654-1.053 1.362-2.067 2.21-2.971.933-.995 2.21-1.874 2.828-3.117.14-.281.214-.561.235-.83l-1.755 1.067-.393-2.293L136 86.124l-1.064-1.38c-1.99 1.265-3.607 3.746-4.403 5.506zM123.773 84.557l-1.936 2.641.006.057c.308 2.252 1.431 4.913 3.772 5.64 1.127.35 2.595-.874 2.085-2.085-.625-1.487-1.245-2.78-1.582-4.372l-.007-.037-.486 1.067zM146.628 128.502c-1.166-.04-2.32-.044-3.484-.143-2.434-.209-4.792-.357-7.176.314-1.562.439-2.743 1.446-3.963 2.467-1.027.86-2.22 1.865-2.664 3.162-.258.75.112 1.496.706 1.925l.134.002q1.037-.001 2.054-.08c.909-.66 1.737-1.464 2.597-2.182 1.218-1.016 2.28-1.592 3.919-1.742 1.645-.151 3.297.073 4.946.222a26.2 26.2 0 0 0 4.793-3.748c-.62-.18-1.336-.188-1.86-.207zM118.964 123.652a31 31 0 0 0 1.632-2.612c.695-1.249 1.252-2.962 2.368-3.888.67-.556-.066-1.479-.778-1.338-2.257.447-3.786 2.573-5.244 4.199-1.495 1.668-3.008 3.319-4.655 4.84a27 27 0 0 1-2.225 1.855 26 26 0 0 0 3.383 3.42q.219-.201.432-.402c1.91-1.815 3.586-3.911 5.087-6.073zM153.708 96.048a1.5 1.5 0 0 0 .275-.23q.174-.36.347-.776a1.4 1.4 0 0 0-.359-1.033c-.783-.903-2.031-1.088-2.83-1.988-.488-.55-.721-1.657-.8-2.337-.142-1.228-.068-2.47-.186-3.7a11.7 11.7 0 0 0-.37-1.919 34 34 0 0 0-3.798 1.462c-.08.434-.132.872-.17 1.32-.127 1.546.138 3.24.578 4.72.78 2.622 4.294 6.421 7.313 4.474zM116.669 89.338c-.226.129-.419.419-.394.688.098 1.074.995 1.595 1.799 2.2 1.068.805 2.167 1.55 3.196 2.408.93.776 1.76 1.655 2.525 2.591.848 1.038 1.334 2.345 2.475 3.106.928.618 1.951-.224 2.037-1.17.126-1.374-.82-2.621-1.6-3.67-.894-1.202-1.955-2.236-3.112-3.181-1.049-.856-2.166-1.565-3.354-2.21-1.008-.548-2.455-1.397-3.573-.762zM106.464 82.877q.007.266.022.526c.122 1.845.508 3.66 1.686 5.126.76.947 2.61 2.403 3.867 1.795.264-.128.379-.48.305-.748-.18-.652-.83-1.026-1.193-1.582-.347-.528-.312-1.448-.418-2.056a9.4 9.4 0 0 1-.107-1.899c-1.472-.497-2.945-.912-4.162-1.158zM104.15 89.656a38 38 0 0 0 1.372 4.31c1.217.112 2.43.533 3.563.962 1.196.452 2.358 1.012 3.514 1.557 1.16.547 2.419 1.318 3.726 1.025.571-.127 1.061-.875.823-1.449-.556-1.344-1.964-2.014-3.154-2.762-1.22-.768-2.447-1.487-3.768-2.068-1.682-.741-3.972-1.567-6.076-1.575zM153.041 120.287c-2.31 1.073-4.822 1.338-7.335 1.134-2.578-.21-5.09-1.164-7.624-1.653-1.362-.262-5.442-1.018-5.937 1.001-.065.267.084.477.325.572.854.337 1.988.093 2.9.27 1.285.25 2.554.656 3.794 1.07 2.618.877 5.167 1.938 7.907 2.395 1.464.244 2.933.3 4.379.137a26 26 0 0 0 3.041-5.672c-.473.259-.955.513-1.452.743zM121.849 133.212c.95-2.646 2.065-6.982 5.197-7.856.418-.117.411-.717 0-.837-3.65-1.069-6.391 3.71-7.722 6.368-.393.784-.745 1.61-1.064 2.453q1.501.775 3.106 1.354c.151-.5.308-.997.483-1.484zM113.645 118.998c.156-.505-.272-1.085-.808-1.06-2.046.096-4.027 1.68-5.882 2.452a17 17 0 0 1-.624.242 26 26 0 0 0 1.499 2.904c2.07-.807 5.101-2.233 5.815-4.537zM108.028 105.124c1.692.296 3.739.98 5.358.197.533-.257.357-1.055-.157-1.202-1.657-.475-3.181-1.387-4.818-1.947-.894-.307-1.793-.595-2.693-.882a26 26 0 0 0-.943 3.217c1.079.225 2.163.423 3.253.616zM124.133 108.404c-4.023-2.268-8.736.01-12.753 1.088-1.816.488-3.754.823-5.214.456-.616-.155-1.241-.585-1.985-1.044-.02.424-.034.85-.034 1.278 0 1.62.149 3.205.432 4.743 1.967.554 4.048.456 6.053-.062 4.561-1.18 8.672-3.743 13.28-4.778.784-.172.892-1.296.22-1.677z"/></g><path fill="#010101" fill-opacity=".314" d="M154.375 101.07c.326 1.6.5 3.251.5 4.945 0 13.975-11.64 25.317-25.985 25.317-10.757 0-19.993-6.376-23.94-15.462 2.383 11.586 12.887 20.332 25.477 20.332 14.344 0 25.985-11.342 25.985-25.317 0-3.48-.728-6.795-2.037-9.814z"/><path fill="#d1660f" stroke="#010101" stroke-linecap="round" stroke-linejoin="round" stroke-width="1.05832" d="M145.726 89.071a20.6 20.6 0 0 1 5.576 5.576c1.129-.717 3.828-8.158 2.942-8.9-.7-.588-7.8 2.193-8.517 3.325zM114.716 89.071a20.6 20.6 0 0 0-5.576 5.576c-1.13-.717-3.541-8.265-2.652-9.008.701-.585 7.511 2.302 8.228 3.434z"/><path fill="#fff" d="M118.612 123.716s.544 1.785-1.704 5.027c-.896-3.018.198-8.947.198-8.947l1.506 3.918zM141.603 123.822s-.543 1.785 1.704 5.026c.896-3.018-.198-8.946-.198-8.946l-1.505 3.918z"/><g fill="none" stroke="#010101" stroke-linecap="round" stroke-linejoin="round" stroke-width="4.271"><path stroke-width="1.13002118" d="M144.51 115.234c-2.432 4.514-1.68 10.45-6.845 11.832a9.7 9.7 0 0 1-7.346-.965M115.826 115.234c2.038 4.945 1.68 10.45 6.845 11.832a9.7 9.7 0 0 0 7.347-.965"/></g><path fill="#010101" d="M134.584 119.527c0 2.336-2.558 4.232-4.25 4.232-1.824 0-4.252-1.896-4.252-4.232s1.905-2.93 4.251-2.93c2.347-.002 4.25.593 4.25 2.93z"/><path fill="#fff" stroke="#010101" stroke-linecap="round" stroke-linejoin="round" stroke-width="1.05832" d="M129.181 107.402a6.12 6.12 0 0 1-6.118 6.125 6.12 6.12 0 0 1-6.126-6.117v-.008a6.122 6.122 0 1 1 12.244-.009z"/><path fill="#010101" d="M126.79 107.378c0 2.373-.85 4.297-1.9 4.299-1.05.001-1.9-1.92-1.901-4.293v-.006c-.001-2.374.85-4.299 1.898-4.3 1.05-.002 1.901 1.92 1.902 4.293v.006z"/><path fill="#fff" stroke="#010101" stroke-linecap="round" stroke-linejoin="round" stroke-width="1.05832" d="M143.397 107.402a6.12 6.12 0 0 1-6.118 6.125 6.12 6.12 0 0 1-6.126-6.117v-.008a6.122 6.122 0 0 1 12.244-.009z"/><path fill="#010101" d="M137.203 107.378c0 2.373-.85 4.297-1.899 4.299-1.05.001-1.9-1.92-1.901-4.293v-.006c0-2.374.85-4.299 1.899-4.3 1.05-.002 1.9 1.92 1.901 4.293v.006z"/><g fill="none" stroke="#000" stroke-linecap="round" stroke-width="4"><path stroke-width="1.05832" d="M141.447 117.754c11.82-4.394 17.596 1.03 17.596 1.03M139.754 120.702c8.37-2.37 13.852 3.674 13.852 3.674M139.058 123.853c6.44-.682 8.905 5.06 8.905 5.06M120.51 117.754c-11.82-4.394-17.595 1.03-17.595 1.03M122.207 120.702c-8.37-2.37-13.852 3.674-13.852 3.674M122.903 123.853c-6.44-.682-8.906 5.06-8.906 5.06"/></g><path d="M221.07 147.27c.02 60.51-49.02 109.57-109.53 109.57C51.028 256.84 1.98 207.78 2 147.27 1.981 86.763 51.028 37.7 111.54 37.7c60.5.002 109.55 49.063 109.53 109.57" style="fill:#939dac;stroke:#010101;stroke-width:4;stroke-linecap:round;stroke-linejoin:round" transform="matrix(.26458 0 0 .26458 171.986 86.674)"/><path d="M220.65 156.86c-20.83 45.69-66.93 77.47-120.44 77.47-30.323 0-58.247-10.21-80.559-27.38 19.534 30.03 53.378 49.88 91.879 49.88 57.27 0 104.28-43.95 109.12-99.97" style="fill:#010101;fill-opacity:.3137" transform="matrix(.26458 0 0 .26458 171.986 86.674)"/><path d="M14.479 247.77c-.007 22.68 18.377 25.57 41.057 25.57s41.063-2.89 41.058-25.57c.006-22.68-19.15-35.2-41.058-41.07-34.08-9.13-41.063 18.39-41.057 41.07" style="fill:#939dac;stroke:#010101;stroke-width:4;stroke-linecap:round;stroke-linejoin:round" transform="matrix(.26458 0 0 .26458 171.986 86.674)"/><path d="M68.531 211.19c5.617 7.37 9.065 16.56 9.063 27.91.007 26.82-18.383 30.25-41.063 30.25-3.51 0-6.904-.11-10.156-.35 7.439 3.62 17.751 4.35 29.156 4.35 22.68 0 41.069-2.91 41.063-25.59.005-18.03-12.1-29.61-28.063-36.57" style="fill:#010101;fill-opacity:.3137" transform="matrix(.26458 0 0 .26458 171.986 86.674)"/><path d="M87.495 260.56c1.644 6.13-3.251 8.28-9.547 9.96-6.296 1.69-11.607 2.28-13.248-3.85-1.644-6.13 2.129-12.46 8.424-14.15 6.296-1.69 12.73 1.91 14.371 8.04M46.054 267.2c-1.641 6.13-6.952 5.54-13.248 3.85-6.296-1.68-11.19-3.83-9.547-9.96 1.641-6.13 8.075-9.73 14.371-8.04 6.295 1.69 10.067 8.02 8.424 14.15" style="fill:#fff;stroke:#010101;stroke-width:4;stroke-linecap:round;stroke-linejoin:round" transform="matrix(.26458 0 0 .26458 171.986 86.674)"/><path d="M66.336 266.19c.002 6.34-5.281 7.15-11.8 7.15-6.518 0-11.801-.81-11.799-7.15-.002-6.35 5.281-11.49 11.799-11.49 6.519 0 11.802 5.15 11.8 11.49" style="fill:#fff;stroke:#010101;stroke-width:4;stroke-linecap:round;stroke-linejoin:round" transform="matrix(.26458 0 0 .26458 171.986 86.674)"/><path d="M208.59 247.77c.01 22.68-18.37 25.57-41.05 25.57s-41.07-2.89-41.06-25.57c-.01-22.68 19.15-35.2 41.06-41.07 34.08-9.13 41.06 18.39 41.05 41.07" style="fill:#939dac;stroke:#010101;stroke-width:4;stroke-linecap:round;stroke-linejoin:round" transform="matrix(.26458 0 0 .26458 171.986 86.674)"/><path d="M200.5 260.56c1.64 6.13-3.26 8.28-9.55 9.96-6.3 1.69-11.61 2.28-13.25-3.85s2.13-12.46 8.42-14.15c6.3-1.69 12.74 1.91 14.38 8.04M159.05 267.2c-1.64 6.13-6.95 5.54-13.24 3.85-6.3-1.68-11.19-3.83-9.55-9.96s8.07-9.73 14.37-8.04c6.29 1.69 10.07 8.02 8.42 14.15" style="fill:#fff;stroke:#010101;stroke-width:4;stroke-linecap:round;stroke-linejoin:round" transform="matrix(.26458 0 0 .26458 171.986 86.674)"/><path d="M179.34 266.19c0 6.34-5.28 7.15-11.8 7.15s-11.8-.81-11.8-7.15c0-6.35 5.28-11.49 11.8-11.49s11.8 5.15 11.8 11.49" style="fill:#fff;stroke:#010101;stroke-width:4;stroke-linecap:round;stroke-linejoin:round" transform="matrix(.26458 0 0 .26458 171.986 86.674)"/><path d="M186.06 205.52c10.56 8.15 13.35 24.67 13.34 39.24.01 23.47-19.01 26.47-42.47 26.47-5.09 0-9.94-.16-14.47-.62 6.94 2.22 15.63 2.72 25.07 2.72 22.68 0 41.07-2.88 41.06-25.57 0-17.76-4.29-38.49-22.53-42.24M213.79 122.77c7 42-24.74 75.7-91.92 83.25-56.336 6.33-111.35-31.19-111.34-79C42.534 78.354 132.5 23.31 132.99 71.118c.21 20.57 56.8-29.597 80.8 51.652" style="fill:#010101;fill-opacity:.3137" transform="matrix(.26458 0 0 .26458 171.986 86.674)"/><path d="M192.9 91.985c-1.04-14.407-4.7-27.927-10.39-39.897 6.41-4.801 10.7-13.3 10.7-22.971C193.21 14.15 183 2 170.43 2c-8.13 0-15.24 5.104-19.27 12.733C139.14 6.639 125.27 2 110.49 2S81.863 6.643 69.852 14.733C65.82 7.104 58.712 2 50.583 2 38.007 2 27.795 14.15 27.795 29.117c0 9.684 4.276 18.174 10.701 22.971-5.691 11.97-9.348 25.491-10.387 39.899-10.487 11.033-16.604 24.283-16.604 38.533 0 38.39 44.323 69.5 98.995 69.5 54.68 0 99-31.11 99-69.5 0-14.25-6.11-27.5-16.6-38.535" style="fill:#939dac;stroke:#010101;stroke-width:4;stroke-linecap:round;stroke-linejoin:round" transform="matrix(.26458 0 0 .26458 171.986 86.674)"/><path d="M163.07 138.89c-3.86 7.97-10.95 11.71-15.82 8.35-4.88-3.35-5.7-12.52-1.84-20.48s10.95-11.7 15.82-8.35c4.88 3.36 5.7 12.53 1.84 20.48M57.941 138.89c3.86 7.97 10.948 11.71 15.825 8.35 4.876-3.35 5.7-12.52 1.835-20.48-3.858-7.96-10.946-11.7-15.823-8.35-4.878 3.36-5.7 12.53-1.837 20.48" style="fill:#010101" transform="matrix(.26458 0 0 .26458 171.986 86.674)"/><path d="M169.67 14.799c-4.57 0-8.57 2.865-10.84 7.147 6.99 5.602 13 12.755 17.71 21.075 3.58-2.712 5.98-7.503 5.98-12.931 0-8.438-5.76-15.291-12.85-15.291M49.493 14.799c4.57 0 8.562 2.865 10.839 7.147-6.989 5.602-13.007 12.755-17.71 21.075-3.588-2.712-5.979-7.503-5.979-12.931 0-8.438 5.759-15.291 12.85-15.291" style="fill:#e6e6e6;stroke:#010101;stroke-width:4;stroke-linecap:round;stroke-linejoin:round" transform="matrix(.26458 0 0 .26458 171.986 86.674)"/><path d="M156.54 73.801c0 12.519-10.15 22.669-22.66 22.669-12.52 0-22.67-10.15-22.67-22.669s10.15-22.669 22.67-22.669c12.51 0 22.66 10.15 22.66 22.669" style="fill:#fff;stroke:#010101;stroke-width:4;stroke-linecap:round;stroke-linejoin:round" transform="matrix(.26458 0 0 .26458 171.986 86.674)"/><path d="M136.39 77.801c0 4.173-3.38 7.557-7.55 7.557a7.556 7.556 0 0 1-7.56-7.557 7.556 7.556 0 0 1 7.56-7.557c4.17 0 7.55 3.384 7.55 7.557" style="fill:#010101" transform="matrix(.26458 0 0 .26458 171.986 86.674)"/><path d="M103.8 73.801c.01 12.519-10.14 22.669-22.658 22.669S58.476 86.32 58.479 73.801c-.003-12.519 10.145-22.669 22.663-22.669s22.668 10.15 22.658 22.669" style="fill:#fff;stroke:#010101;stroke-width:4;stroke-linecap:round;stroke-linejoin:round" transform="matrix(.26458 0 0 .26458 171.986 86.674)"/><path d="M94.362 77.801a7.555 7.555 0 1 1-15.109 0 7.555 7.555 0 1 1 15.109 0" style="fill:#010101" transform="matrix(.26458 0 0 .26458 171.986 86.674)"/><path d="M207.54 117.02c-4.93 47.58-28.33 65.37-82 71.33-24 2.67-39.335 5.34-83.669-7 40.667 21.34 47 16.67 78.999 17.67 24.5.77 64-10.33 83.67-45.67 11-27 3.98-31.11 3-36.33" style="fill:#010101;fill-opacity:.3137" transform="matrix(.26458 0 0 .26458 171.986 86.674)"/><path d="M127.42 177.26c6.81-1.1 15.26-5.86 18.73-9.96 3.56-4.21 5.64 14.97 4.55 17.6-1 2.41-9.4 6.64-11.86 6.31-2.64-.36-17.79-12.92-11.42-13.95z" style="fill:#fff;stroke:#010101;stroke-width:4;stroke-linejoin:round" transform="matrix(.26458 0 0 .26458 171.986 86.674)"/><path d="M471.31 550.71c.02 66.3-53.73 120.07-120.04 120.07s-120.05-53.77-120.03-120.07c-.02-66.31 53.72-120.08 120.03-120.08s120.06 53.77 120.04 120.08" style="fill:#fff;stroke:#000;stroke-width:4;stroke-linecap:round;stroke-linejoin:round" transform="matrix(.26458 0 0 .26458 116.699 25.452)"/><path d="M111.69 107.53c-55.321 1.12-79.19 37.35-79.19 81.81 0 19.85 10.825 38.08 25.156 52.25-30.524-12.93-54.598-38.14-66.031-69.4 2.908 63.68 55.509 114.5 119.9 114.5 66.27 0 120.04-53.77 120.04-120.03 0-14.47-2.55-28.34-7.25-41.19.09 1.84.16 3.7.16 5.56 0 32.54-12.99 62.06-34.03 83.69 3.6-7.99 5.75-16.52 5.75-25.38 0-45.17-24.62-81.81-81.85-81.81-.89 0-1.77-.02-2.65 0z" style="fill:#000;fill-opacity:.31373" transform="matrix(.26458 0 0 .26458 180.13 127.07)"/><path d="M359.45 671.28c0 9.09 14.67 9.38 32.74 9.38s32.73.69 32.73-9.38c0-17.72-14.66-32.1-32.73-32.1s-32.74 14.38-32.74 32.1M344.46 671.28c0 9.09-14.67 9.38-32.74 9.38s-32.73.69-32.73-9.38c0-17.72 14.66-32.1 32.73-32.1s32.74 14.38 32.74 32.1" style="fill:#333;stroke:#000;stroke-width:4;stroke-linecap:round;stroke-linejoin:round" transform="matrix(.26458 0 0 .26458 116.699 25.452)"/><path d="M299.13 680.06c0-16.37 9.44-26.44 9.44-26.44s-3.77 13.85-3.14 26.44z" style="fill:#000;fill-opacity:.31373;fill-rule:evenodd;stroke:#000;stroke-width:4;stroke-linejoin:round" transform="matrix(.26458 0 0 .26458 116.699 25.452)"/><path d="M353.05 623.66c-46.4-3.35-78.5 11.44-78.5 11.44s10.24-.25 16.02.67c-10.83 7.42-14.38 22.13-14.38 22.13s12.07-12.95 24.46-17.55c-10.52 13.98-11.92 36.96-11.92 36.96s12.09-35.73 34.68-43.13c17.22-5.64 35.44-2.32 35.44-2.32s36.11-2.49 48.49 19.08c1.63.77 1.47-13.1-8.79-18.05l27.63-1.43c-20.15-8.49-73.13-7.8-73.13-7.8z" style="fill:#4a0;fill-rule:evenodd;stroke:#000;stroke-width:4;stroke-linejoin:round" transform="matrix(.26458 0 0 .26458 116.699 25.452)"/><path d="M348.61 478.41c-30.13.61-50.93 11.65-63.62 28.75-24.07-2.59-44.07 23.62-44.07 23.62s18.89 9.45 32.07 1.54c-2.4 8.71-3.57 18.1-3.57 27.9 0 45.18 56.13 81.85 81.85 81.85 26.71 0 81.84-36.67 81.84-81.85 0-9.8-1.16-19.19-3.56-27.9 13.17 7.91 32.03-1.54 32.03-1.54s-19.97-26.2-44.03-23.62c-13.06-17.6-34.71-28.75-66.28-28.75-.9 0-1.78-.02-2.66 0" style="fill:#333;stroke:#000;stroke-width:4;stroke-linecap:round;stroke-linejoin:round" transform="matrix(.26458 0 0 .26458 116.699 25.452)"/><path d="M404.78 680.06c0-16.37-9.44-26.44-9.44-26.44s3.77 13.85 3.14 26.44z" style="fill:#000;fill-opacity:.31373;fill-rule:evenodd;stroke:#000;stroke-width:4;stroke-linejoin:round" transform="matrix(.26458 0 0 .26458 116.699 25.452)"/><path d="M347.64 548.24c.01 12.51-10.14 22.67-22.66 22.67s-22.67-10.16-22.66-22.67c-.01-12.52 10.14-22.67 22.66-22.67s22.67 10.15 22.66 22.67M400.38 548.24c0 12.51-10.15 22.67-22.67 22.67s-22.66-10.16-22.66-22.67c0-12.52 10.14-22.67 22.66-22.67s22.67 10.15 22.67 22.67" style="fill:#fff;stroke:#000;stroke-width:4;stroke-linecap:round;stroke-linejoin:round" transform="matrix(.26458 0 0 .26458 116.699 25.452)"/><path d="M380.23 552.24a7.55 7.55 0 0 1-7.55 7.55c-4.18 0-7.56-3.38-7.56-7.55 0-4.18 3.38-7.56 7.56-7.56 4.17 0 7.55 3.38 7.55 7.56M338.2 552.24a7.55 7.55 0 0 1-7.55 7.55c-4.18 0-7.56-3.38-7.56-7.55 0-4.18 3.38-7.56 7.56-7.56 4.17 0 7.55 3.38 7.55 7.56" style="fill:#000" transform="matrix(.26458 0 0 .26458 116.699 25.452)"/><path d="m429.83 533.41-1.87 2.66c.24 3.07.34 6.2.34 9.37 0 45.18-55.13 81.84-81.84 81.84-20.71 0-61.1-23.75-76.07-56.59 7.62 40.25 57.17 71.38 80.88 71.38 26.71 0 81.84-36.67 81.84-81.85 0-9.39-1.07-18.41-3.28-26.81" style="fill:#000;fill-opacity:.31373" transform="matrix(.26458 0 0 .26458 116.699 25.452)"/><path d="M367.87 612.87c-2.29 3.97-6.5 5.84-9.4 4.16-2.89-1.67-3.38-6.25-1.09-10.22s6.5-5.84 9.4-4.16c2.89 1.67 3.38 6.24 1.09 10.22M335.13 612.87c2.29 3.97 6.5 5.84 9.4 4.16 2.89-1.67 3.38-6.25 1.09-10.22s-6.5-5.84-9.4-4.16c-2.89 1.67-3.38 6.24-1.09 10.22" style="fill:#000" transform="matrix(.26458 0 0 .26458 116.699 25.452)"/><path d="M276.14 641.02c-3.3-.35-6.28 2.04-6.63 5.34-.05.52-.01 1.04.06 1.54-2.78.27-5.1 2.49-5.4 5.38-.34 3.29 2.08 6.24 5.38 6.59.75.08 1.46 0 2.15-.18-.17 3.17 2.18 5.98 5.37 6.31 3.3.35 6.25-2.07 6.6-5.37.08-.83 0-1.64-.22-2.38 2.57-.46 4.66-2.57 4.95-5.3.34-3.3-2.07-6.25-5.37-6.59-.53-.06-1.05-.05-1.55.02a5.97 5.97 0 0 0-5.34-5.36m.29 11.9c.04.41.1.81.22 1.19-.17.03-.34.06-.51.1.02-.42.01-.85-.06-1.26.12-.01.24-.01.35-.03" style="fill:#ff0;stroke:#000;stroke-width:4;stroke-linecap:round;stroke-linejoin:round" transform="matrix(.26458 0 0 .26458 116.699 25.452)"/><path d="M243.77 129.57c.01 60.51-49.03 109.57-109.54 109.57-60.509 0-109.56-49.06-109.54-109.57C24.674 69.061 73.721 20 134.23 20s109.55 49.061 109.54 109.57" style="fill:#939dac;stroke:#000;stroke-width:4;stroke-linecap:round;stroke-linejoin:round" transform="matrix(.26458 0 0 .26458 40.506 88.41)"/><path d="M243.34 139.16c-20.83 45.69-66.93 77.46-120.43 77.46-30.331 0-58.255-10.21-80.566-27.37 19.534 30.03 53.378 49.87 91.876 49.87 57.28 0 104.28-43.94 109.12-99.96" style="fill:#000;fill-opacity:.31373" transform="matrix(.26458 0 0 .26458 40.506 88.41)"/><path d="M50.172 230.07c-.006 22.68 18.377 25.57 41.057 25.57s41.061-2.89 41.061-25.57-19.15-35.2-41.061-41.07c-34.081-9.13-41.063 18.39-41.057 41.07" style="fill:#939dac;stroke:#000;stroke-width:4;stroke-linecap:round;stroke-linejoin:round" transform="matrix(.26458 0 0 .26458 40.506 88.41)"/><path d="M123.19 242.86c1.64 6.13-3.25 8.27-9.55 9.96-6.29 1.69-11.61 2.27-13.25-3.85-1.641-6.13 2.13-12.47 8.43-14.15 6.29-1.69 12.73 1.91 14.37 8.04" style="fill:#fff;stroke:#000;stroke-width:4;stroke-linecap:round;stroke-linejoin:round" transform="matrix(.26458 0 0 .26458 40.506 88.41)"/><path d="M225.27 104.57c.02 47.81-38.73 86.57-86.54 86.57-47.808 0-86.559-38.76-86.544-86.57C52.171 56.763 90.922 18 138.73 18c47.81 0 86.56 38.763 86.54 86.57" style="fill:#000;fill-opacity:.31373" transform="matrix(.26458 0 0 .26458 40.506 88.41)"/><path d="M265.51 90.103c-8.95 33.437-36.06 55.237-60.55 48.677-24.48-6.56-37.06-38.991-28.09-72.429 8.95-33.441 29.98-32.537 54.46-25.977 24.49 6.56 43.15 16.292 34.18 49.729M4.286 90.103C13.24 123.54 40.35 145.34 64.833 138.78S101.9 99.789 92.93 66.351C83.976 32.91 62.95 33.814 38.465 40.374S-4.68 56.666 4.286 90.103" style="fill:#939dac;stroke:#000;stroke-width:4;stroke-linecap:round;stroke-linejoin:round" transform="matrix(.26458 0 0 .26458 40.506 88.41)"/><path d="M198.94 38.179c-9.74 2.974-17.48 11.084-22.06 28.188-8.97 33.437 3.61 65.843 28.09 72.403 2.67.72 5.36 1.06 8.07 1.13 6.68-12.28 10.47-26.38 10.46-41.346.01-23.492-9.37-44.777-24.56-60.375" style="fill:#000;fill-opacity:.31373" transform="matrix(.26458 0 0 .26458 40.506 88.41)"/><path d="M205.16 43.242c-14.77-.154-26.63 6.634-32.78 29.625-4.97 18.526-3.34 36.723 3.28 50.403 4.97-23.475 27.2-52.561 60.06-53.997 13.33-.582 28.81 8.047 24.32-2.469-4.5-10.515-18.42-15.97-33.22-19.937-7.65-2.05-14.95-3.555-21.66-3.625M65.15 43.242c14.769-.154 26.627 6.634 32.782 29.625 4.968 18.526 3.338 36.723-3.282 50.403-4.964-23.475-27.197-52.561-60.062-53.997-13.328-.582-28.809 8.047-24.313-2.469s18.412-15.97 33.219-19.937c7.651-2.05 14.943-3.555 21.656-3.625" style="fill:#000;fill-opacity:.31373" transform="matrix(.26458 0 0 .26458 40.506 88.41)"/><path d="M220.77 88.569c.02 47.811-38.73 86.571-86.54 86.571-47.808 0-86.559-38.76-86.544-86.571C47.671 40.763 63.763 2 134.23 2c71.88 0 86.56 38.763 86.54 86.569" style="fill:#939dac;stroke:#000;stroke-width:4;stroke-linecap:round;stroke-linejoin:round" transform="matrix(.26458 0 0 .26458 40.506 88.41)"/><path d="M130.6 72.099c0 12.519-10.14 22.67-22.66 22.67-12.522 0-22.67-10.151-22.666-22.67C85.27 59.58 95.418 49.43 107.94 49.43c12.52 0 22.66 10.15 22.66 22.669M183.33 72.099c.01 12.519-10.14 22.67-22.66 22.67S138 84.618 138.01 72.099C138 59.58 148.15 49.43 160.67 49.43s22.67 10.15 22.66 22.669" style="fill:#fff;stroke:#000;stroke-width:4;stroke-linecap:round;stroke-linejoin:round" transform="matrix(.26458 0 0 .26458 40.506 88.41)"/><path d="M163.19 76.099a7.556 7.556 0 0 1-7.56 7.557c-4.17 0-7.55-3.384-7.55-7.557a7.553 7.553 0 0 1 7.55-7.556c4.18 0 7.56 3.383 7.56 7.556M121.16 76.099a7.556 7.556 0 0 1-7.56 7.557c-4.17 0-7.55-3.384-7.55-7.557a7.553 7.553 0 0 1 7.55-7.556c4.18 0 7.56 3.383 7.56 7.556" style="fill:#000" transform="matrix(.26458 0 0 .26458 40.506 88.41)"/><path d="M224.29 230.07c0 22.68-18.38 25.57-41.06 25.57s-41.06-2.89-41.06-25.57 19.15-35.2 41.06-41.07c34.08-9.13 41.06 18.39 41.06 41.07" style="fill:#939dac;stroke:#000;stroke-width:4;stroke-linecap:round;stroke-linejoin:round" transform="matrix(.26458 0 0 .26458 40.506 88.41)"/><path d="M104.22 193.49c5.62 7.36 9.07 16.56 9.07 27.91 0 26.82-18.387 30.25-41.066 30.25-3.51 0-6.905-.11-10.157-.35 7.44 3.61 17.752 4.35 29.157 4.35 22.676 0 41.066-2.92 41.066-25.6 0-18.02-12.1-29.61-28.07-36.56" style="fill:#000;fill-opacity:.31373" transform="matrix(.26458 0 0 .26458 40.506 88.41)"/><path d="M157.46 220.5c0 15.78-12.8 28.58-28.58 28.58-15.79 0-28.59-12.8-28.58-28.58-.01-15.79 12.79-28.59 28.58-28.59 15.78 0 28.58 12.8 28.58 28.59" style="fill:#939dac;stroke:#000;stroke-width:4;stroke-linecap:round;stroke-linejoin:round" transform="matrix(.26458 0 0 .26458 40.506 88.41)"/><path d="M81.746 249.5c-1.64 6.13-6.952 5.54-13.248 3.85s-11.19-3.83-9.546-9.96c1.64-6.13 8.074-9.73 14.37-8.04s10.068 8.02 8.424 14.15" style="fill:#fff;stroke:#000;stroke-width:4;stroke-linecap:round;stroke-linejoin:round" transform="matrix(.26458 0 0 .26458 40.506 88.41)"/><path d="M219.25 72.461c-4.93 47.579-45.14 84.689-94.03 84.689-26.647 0-50.717-11.04-67.903-28.78 14.4 27.79 43.443 46.78 76.903 46.78 47.81 0 86.58-38.79 86.57-86.596 0-5.504-.55-10.875-1.54-16.093" style="fill:#000;fill-opacity:.31373" transform="matrix(.26458 0 0 .26458 40.506 88.41)"/><path d="M157.39 218.99h-45.68c7.66-63.28-7.36-94.75-7.36-94.75h60.4s-15.02 32.17-7.36 94.75" style="fill:#939dac;fill-rule:evenodd" transform="matrix(.26458 0 0 .26458 40.506 88.41)"/><path d="M164.75 124.24s-15.02 32.17-7.36 94.75m-45.68 0c7.66-63.28-7.36-94.75-7.36-94.75" style="fill:none;stroke:#000;stroke-width:4;stroke-linecap:round" transform="matrix(.26458 0 0 .26458 40.506 88.41)"/><path d="M187.44 131.78c6.52 5.2 6.05 33.51 2.19 38.21-3.87 4.69-26.86-23.58-22.93-32.29 4.13-9.16 14.61-10.82 20.74-5.92z" style="fill:#fff;fill-rule:evenodd;stroke:#000;stroke-width:4;stroke-linejoin:round" transform="matrix(.26458 0 0 .26458 40.506 88.41)"/><path d="M118.69 113.03c14.5-14.499 31-.5 31-.5M123.66 135.53c9.85-7.89 21.07-.27 21.07-.27M125.31 158.03c8.31-5.68 17.76-.2 17.76-.2" style="fill:none;stroke:#000;stroke-width:4;stroke-linecap:round" transform="matrix(.26458 0 0 .26458 40.506 88.41)"/><path d="M80.765 131.78c-6.52 5.2-6.053 33.51-2.187 38.21 3.866 4.69 26.852-23.58 22.922-32.29-4.129-9.16-14.602-10.82-20.735-5.92z" style="fill:#fff;fill-rule:evenodd;stroke:#000;stroke-width:4;stroke-linejoin:round" transform="matrix(.26458 0 0 .26458 40.506 88.41)"/><path d="M216.19 242.86c1.64 6.13-3.25 8.27-9.55 9.96-6.29 1.69-11.61 2.27-13.25-3.85-1.64-6.13 2.13-12.47 8.43-14.15 6.29-1.69 12.73 1.91 14.37 8.04M174.75 249.5c-1.64 6.13-6.96 5.54-13.25 3.85-6.3-1.69-11.19-3.83-9.55-9.96s8.08-9.73 14.37-8.04c6.3 1.69 10.07 8.02 8.43 14.15" style="fill:#fff;stroke:#000;stroke-width:4;stroke-linecap:round;stroke-linejoin:round" transform="matrix(.26458 0 0 .26458 40.506 88.41)"/><path d="M195.03 248.49c0 6.34-5.28 7.15-11.8 7.15s-11.8-.81-11.8-7.15c0-6.35 5.28-11.49 11.8-11.49s11.8 5.14 11.8 11.49M102.03 248.49c0 6.34-5.283 7.15-11.801 7.15s-11.801-.81-11.799-7.15c-.002-6.35 5.281-11.49 11.799-11.49s11.801 5.14 11.801 11.49" style="fill:#fff;stroke:#000;stroke-width:4;stroke-linecap:round;stroke-linejoin:round" transform="matrix(.26458 0 0 .26458 40.506 88.41)"/><path d="M155.32 209.62c-.41 15.42-13.04 27.81-28.57 27.81-11.94 0-22.16-7.35-26.43-17.75-.01.27-.03.54-.03.81-.01 15.79 12.8 28.6 28.59 28.6s28.57-12.81 28.56-28.6c0-3.85-.74-7.52-2.12-10.87M201.75 187.81c10.56 8.16 13.35 24.67 13.34 39.25.01 23.47-19 26.47-42.47 26.47-5.09 0-9.94-.16-14.46-.62 6.93 2.22 15.62 2.71 25.06 2.71 22.68 0 41.07-2.88 41.06-25.56.01-17.77-4.28-38.49-22.53-42.25" style="fill:#000;fill-opacity:.31373" transform="matrix(.26458 0 0 .26458 40.506 88.41)"/><path d="M94.656 130.47c.777.84 1.503 1.81 2.125 2.91 4.549 7.97-13.959 36.28-19.219 34.65.306.85.629 1.52 1 1.97 3.867 4.7 26.868-23.61 22.938-32.31-1.567-3.47-4.037-5.85-6.844-7.22" style="fill:#000;fill-opacity:.31373;fill-rule:evenodd" transform="matrix(.26458 0 0 .26458 40.506 88.41)"/><path d="M441.29 560.71c.02 49.72-40.29 90.04-90.02 90.04-49.72 0-90.03-40.32-90.02-90.04-.01-49.73 40.3-90.05 90.02-90.05 49.73 0 90.04 40.32 90.02 90.05" style="fill:#fc0;stroke:#000;stroke-width:3.2874;stroke-linecap:round;stroke-linejoin:round" transform="matrix(.32194 0 0 .32194 51.254 -5.64)"/><path d="M93.338 349.05a18.031 15.556 0 1 1-36.062 0 18.031 15.556 0 1 1 36.062 0" style="fill:#784421" transform="matrix(.11238 -.06475 .12909 .22404 92.154 115.765)"/><path d="M454.19 523.12c.07 1.69.12 3.4.12 5.1 0 60.46-49.06 109.53-109.53 109.53-47.26 0-87.59-30-102.94-71.97 2.66 58.11 50.68 104.47 109.44 104.47 60.47 0 109.53-49.07 109.53-109.53 0-13.2-2.34-25.87-6.62-37.6" style="fill:#000;fill-opacity:.31373" transform="matrix(.26458 0 0 .26458 71.402 26.521)"/><path d="M359.45 671.28c0 9.09 14.67 9.38 32.74 9.38s32.73.69 32.73-9.38c0-17.72-14.66-32.1-32.73-32.1s-32.74 14.38-32.74 32.1" style="fill:#784421;stroke:#000;stroke-width:4;stroke-linecap:round;stroke-linejoin:round" transform="matrix(.26458 0 0 .26458 71.402 26.521)"/><path d="M404.78 680.06c0-16.37-9.44-26.44-9.44-26.44s3.77 13.85 3.14 26.44z" style="fill:#000;fill-opacity:.31373;fill-rule:evenodd;stroke:#000;stroke-width:4;stroke-linejoin:round" transform="matrix(.26458 0 0 .26458 71.402 26.521)"/><path d="M298.74 487.34c24.5-37.9 20-128.73 20-128.73l60-3.27s-1.5 91.49 23.5 130.04" style="fill:#fc0;fill-rule:evenodd;stroke:#000;stroke-width:4;stroke-linecap:round;stroke-linejoin:round" transform="matrix(.26458 0 0 .26458 71.402 26.521)"/><path d="M93.338 349.05a18.031 15.556 0 1 1-36.062 0 18.031 15.556 0 1 1 36.062 0" style="fill:#784421" transform="matrix(.15438 0 0 .25256 156.026 42.727)"/><path d="m162 177.28-17.16.94-42.84 2.34s.24 4.86.31 12.56c13.16 8.26 26.42 13.07 35.72 13.07 3.33 0 7.11-.57 11.16-1.66 6.18 33.34 17.67 80.34 36.03 102.5l-1 .35 1.28-.04c-17.21-26.53-21.83-78.15-23.06-107.75-.14-3.35-.25-6.43-.32-9.15-.05-2.18-.07-4.1-.09-5.78-.02-1.36-.03-2.38-.03-3.38 0-1.55-.01-1.75 0-2.4z" style="fill:#000;fill-opacity:.31373;fill-rule:evenodd" transform="matrix(.26458 0 0 .26458 128.745 73.633)"/><path d="M351.27 208.57c-22.79 0-41.28 6.96-54.88 18.59-.57-.43-1.34-.81-2.34-1.25-55.51-10.61-74.61 25.09-75.31 30.75-.71 5.66 38.51 14.48 59.37-6.38.27-.27.46-.45.72-.71-6.17 12.02-9.41 25.97-9.41 40.84 0 45.17 56.13 81.84 81.85 81.84 26.71 0 81.84-36.67 81.84-81.84 0-15.04-3.46-29.14-9.94-41.25.41.41.71.7 1.13 1.12 20.86 20.86 60.08 12.04 59.37 6.38-.7-5.66-19.77-41.36-75.28-30.75-1.17.52-2.08.95-2.65 1.47-13.74-11.75-32.21-18.81-54.47-18.81" style="fill:#fc0;stroke:#000;stroke-width:4;stroke-linecap:round;stroke-linejoin:round" transform="matrix(.26458 0 0 .26458 71.402 26.521)"/><path d="M347.64 278.41c.01 12.52-10.14 22.67-22.66 22.67s-22.67-10.15-22.66-22.67c-.01-12.52 10.14-22.67 22.66-22.67s22.67 10.15 22.66 22.67M400.38 278.41c0 12.52-10.15 22.67-22.67 22.67s-22.66-10.15-22.66-22.67 10.14-22.67 22.66-22.67 22.67 10.15 22.67 22.67" style="fill:#fff;stroke:#000;stroke-width:4;stroke-linecap:round;stroke-linejoin:round" transform="matrix(.26458 0 0 .26458 71.402 26.521)"/><path d="M380.23 282.41c0 4.18-3.38 7.56-7.55 7.56-4.18 0-7.56-3.38-7.56-7.56 0-4.17 3.38-7.55 7.56-7.55a7.55 7.55 0 0 1 7.55 7.55M338.2 282.41c0 4.18-3.38 7.56-7.55 7.56-4.18 0-7.56-3.38-7.56-7.56 0-4.17 3.38-7.55 7.56-7.55a7.55 7.55 0 0 1 7.55 7.55" style="fill:#000" transform="matrix(.26458 0 0 .26458 71.402 26.521)"/><path d="M425.69 251.49c1.75 7.63 2.62 15.72 2.62 24.13 0 45.17-55.12 81.84-81.84 81.84-20.71 0-61.1-23.76-76.06-56.59 7.61 40.24 57.17 71.37 80.87 71.37 26.72 0 81.84-36.67 81.84-81.84 0-14.08-2.41-27.34-7.43-38.91" style="fill:#000;fill-opacity:.31373" transform="matrix(.26458 0 0 .26458 71.402 26.521)"/><path d="M344.46 671.28c0 9.09-14.67 9.38-32.74 9.38s-32.73.69-32.73-9.38c0-17.72 14.66-32.1 32.73-32.1s32.74 14.38 32.74 32.1" style="fill:#784421;stroke:#000;stroke-width:4;stroke-linecap:round;stroke-linejoin:round" transform="matrix(.26458 0 0 .26458 71.402 26.521)"/><path d="M299.13 680.06c0-16.37 9.44-26.44 9.44-26.44s-3.77 13.85-3.14 26.44z" style="fill:#000;fill-opacity:.31373;fill-rule:evenodd;stroke:#000;stroke-width:4;stroke-linejoin:round" transform="matrix(.26458 0 0 .26458 71.402 26.521)"/><path d="M367.87 343.04c-2.29 3.98-6.5 5.84-9.4 4.17-2.89-1.67-3.38-6.25-1.09-10.22s6.5-5.84 9.4-4.17c2.89 1.68 3.38 6.25 1.09 10.22M335.13 343.04c2.29 3.98 6.5 5.84 9.4 4.17 2.89-1.67 3.38-6.25 1.09-10.22s-6.5-5.84-9.4-4.17c-2.89 1.68-3.38 6.25-1.09 10.22" style="fill:#000" transform="matrix(.26458 0 0 .26458 71.402 26.521)"/><path d="M317.52 224.48c5.65-10.25-6.01-22.62-6.01-22.62l17.32-4.25s-2.47 15.56 6.72 21.22" style="fill:#fc0;fill-rule:evenodd;stroke:#000;stroke-width:4;stroke-linecap:round" transform="matrix(.26458 0 0 .26458 71.402 26.521)"/><path d="M82.378-127.96a15.38 15.38 0 1 1-30.759 0 15.38 15.38 0 1 1 30.759 0" style="fill:#784421;stroke:#000;stroke-width:4;stroke-linecap:round;stroke-linejoin:round" transform="matrix(.26458 0 0 .26458 138.008 112.087)"/><path d="M418.59 232.5c35.78-4.57 52.52 16.97 53.83 20.23 1.32 3.26-35.12 10.11-53.83-20.23z" style="fill:#d4aa00;fill-rule:evenodd;stroke:#000;stroke-width:4;stroke-linejoin:round" transform="matrix(.26458 0 0 .26458 71.402 26.521)"/><path d="M384.69 224.48c-5.65-10.25 6.01-22.62 6.01-22.62l-17.32-4.25s2.47 15.56-6.72 21.22" style="fill:#fc0;fill-rule:evenodd;stroke:#000;stroke-width:4;stroke-linecap:round" transform="matrix(.26458 0 0 .26458 71.402 26.521)"/><path d="M82.378-127.96a15.38 15.38 0 1 1-30.759 0 15.38 15.38 0 1 1 30.759 0" style="fill:#784421;stroke:#000;stroke-width:4;stroke-linecap:round;stroke-linejoin:round" transform="matrix(.26458 0 0 .26458 154.941 112.087)"/><path d="M93.338 349.05a18.031 15.556 0 1 1-36.062 0 18.031 15.556 0 1 1 36.062 0" style="fill:#784421" transform="matrix(.19147 .04695 -.08591 .35041 158.905 41.073)"/><path d="M93.338 349.05a18.031 15.556 0 1 1-36.062 0 18.031 15.556 0 1 1 36.062 0" style="fill:#784421" transform="matrix(.35795 0 0 .43897 132.75 23.522)"/><path d="M93.338 349.05a18.031 15.556 0 1 1-36.062 0 18.031 15.556 0 1 1 36.062 0" style="fill:#784421" transform="matrix(.11812 -.03937 .07986 .2396 147.724 84.01)"/><path d="M93.338 349.05a18.031 15.556 0 1 1-36.062 0 18.031 15.556 0 1 1 36.062 0" style="fill:#784421" transform="matrix(.17639 0 0 .25256 166.408 94.585)"/><path d="M93.338 349.05a18.031 15.556 0 1 1-36.062 0 18.031 15.556 0 1 1 36.062 0" style="fill:#784421" transform="matrix(.28014 0 0 .36079 149.93 35.934)"/><path d="M93.338 349.05a18.031 15.556 0 1 1-36.062 0 18.031 15.556 0 1 1 36.062 0" style="fill:#784421" transform="matrix(.19195 0 0 .36079 145.252 17.142)"/><path d="M283.46 232.5c-35.78-4.57-52.52 16.97-53.84 20.23-1.31 3.26 35.13 10.11 53.84-20.23z" style="fill:#d4aa00;fill-rule:evenodd;stroke:#000;stroke-width:4;stroke-linejoin:round" transform="matrix(.26458 0 0 .26458 71.402 26.521)"/><path d="M441.29 560.71c.02 49.72-40.29 90.04-90.02 90.04-49.72 0-90.03-40.32-90.02-90.04-.01-49.73 40.3-90.05 90.02-90.05 49.73 0 90.04 40.32 90.02 90.05" style="fill:#c8beb7;stroke:#000;stroke-width:3.2874;stroke-linecap:round;stroke-linejoin:round" transform="matrix(.32194 0 0 .32194 -46.534 -4.364)"/><path d="M454.19 523.12c.07 1.69.12 3.4.12 5.1 0 60.46-49.06 109.53-109.53 109.53-47.26 0-87.59-30-102.94-71.97 2.66 58.11 50.68 104.47 109.44 104.47 60.47 0 109.53-49.07 109.53-109.53 0-13.2-2.34-25.87-6.62-37.6" style="fill:#000;fill-opacity:.31373" transform="matrix(.26458 0 0 .26458 -26.386 27.796)"/><path d="M359.45 671.28c0 9.09 14.67 9.38 32.74 9.38s32.73.69 32.73-9.38c0-17.72-14.66-32.1-32.73-32.1s-32.74 14.38-32.74 32.1" style="fill:#6c5d53;stroke:#000;stroke-width:4;stroke-linecap:round;stroke-linejoin:round" transform="matrix(.26458 0 0 .26458 -26.386 27.796)"/><path d="M435.91 525.42c0 45.17-55.12 81.84-81.84 81.84-25.72 0-81.84-36.67-81.84-81.84s24.63-81.84 81.84-81.84c57.22 0 81.84 36.67 81.84 81.84" style="fill:#000;fill-opacity:.31373" transform="matrix(.26458 0 0 .26458 -26.386 27.796)"/><path d="M318.63 579.05c7.75 17.93 11.36 23.33 11.13 33.59-.1 4.67 9.19-7.64 9.83-13.79-.47 8.88 1.2 11.31 2.18 20.51.99 9.19 4.25 25.14 5.2 21.56 1.96-7.42 2.88-22.82 8.27-27.57 2.44 9.19 14.92 24.62 12.86 18.73-5-14.29-6.84-21.15-2.46-30.05 7.84 9.52 12.32 13.45 10.81 8.13-2.54-8.98 1.08-21.31 7.66-26.51 8.36-6.61-65.48-4.95-65.48-4.6z" style="fill:#6c5d53;fill-rule:evenodd;stroke:#000;stroke-width:4;stroke-linejoin:round" transform="matrix(.26458 0 0 .26458 -26.386 27.796)"/><path d="M404.78 680.06c0-16.37-9.44-26.44-9.44-26.44s3.77 13.85 3.14 26.44z" style="fill:#000;fill-opacity:.31373;fill-rule:evenodd;stroke:#000;stroke-width:4;stroke-linejoin:round" transform="matrix(.26458 0 0 .26458 -26.386 27.796)"/><path d="M108.88 46.344c-30.134.61-50.937 11.653-63.63 28.75C21.186 72.506 1.188 98.719 1.188 98.719s18.891 9.451 32.062 1.531c-2.399 8.71-3.562 18.11-3.562 27.91 0 45.17 56.125 81.84 81.842 81.84 26.72 0 81.85-36.67 81.85-81.84 0-9.8-1.17-19.2-3.57-27.91 13.17 7.92 32.03-1.531 32.03-1.531s-19.97-26.205-44.03-23.625c-13.06-17.595-34.71-28.75-66.28-28.75-.89 0-1.78-.018-2.65 0" style="fill:#c8beb7;stroke:#000;stroke-width:4;stroke-linecap:round;stroke-linejoin:round" transform="matrix(.26458 0 0 .26458 37.046 129.414)"/><path d="M441.29 560.71c.02 49.72-40.29 90.04-90.02 90.04-49.72 0-90.03-40.32-90.02-90.04-.01-49.73 40.3-90.05 90.02-90.05 49.73 0 90.04 40.32 90.02 90.05" style="fill:#fff;stroke:#000;stroke-width:15.889;stroke-linecap:round;stroke-linejoin:round" transform="matrix(.0666 0 0 .0666 36.202 122.802)"/><path d="M441.29 560.71c.02 49.72-40.29 90.04-90.02 90.04-49.72 0-90.03-40.32-90.02-90.04-.01-49.73 40.3-90.05 90.02-90.05 49.73 0 90.04 40.32 90.02 90.05" style="fill:#fff;stroke:#000;stroke-width:15.889;stroke-linecap:round;stroke-linejoin:round" transform="matrix(.0666 0 0 .0666 50.153 122.802)"/><path d="M441.29 560.71c.02 49.72-40.29 90.04-90.02 90.04-49.72 0-90.03-40.32-90.02-90.04-.01-49.73 40.3-90.05 90.02-90.05 49.73 0 90.04 40.32 90.02 90.05" style="fill:#000" transform="matrix(.0222 0 0 .0222 64.42 148.758)"/><path d="M441.29 560.71c.02 49.72-40.29 90.04-90.02 90.04-49.72 0-90.03-40.32-90.02-90.04-.01-49.73 40.3-90.05 90.02-90.05 49.73 0 90.04 40.32 90.02 90.05" style="fill:#000" transform="matrix(.0222 0 0 .0222 53.299 148.758)"/><path d="M372.76 441.62c-1.99-10.39 12.58-36.41 42.7-46.12 20.71-6.68 55.97 1.23 59.32 41.23-13.48-23.04-37.38-28.54-48.7-23.05-22.74 11.01-12.48 34.47-23.37 40.65-10.13 5.76-27.88-1.94-29.95-12.71z" style="fill:#6c5d53;fill-rule:evenodd;stroke:#000;stroke-width:4;stroke-linejoin:round" transform="matrix(.26458 0 0 .26458 -26.386 27.796)"/><path d="m190.09 101.34-1.87 2.66c.25 3.08.34 6.2.34 9.38 0 45.17-55.12 81.84-81.84 81.84-20.707 0-61.098-23.76-76.064-56.6C38.272 178.87 87.828 210 111.53 210c26.72 0 81.85-36.67 81.85-81.84 0-9.4-1.08-18.41-3.29-26.82" style="fill:#000;fill-opacity:.31373" transform="matrix(.26458 0 0 .26458 37.046 129.414)"/><path d="M344.46 671.28c0 9.09-14.67 9.38-32.74 9.38s-32.73.69-32.73-9.38c0-17.72 14.66-32.1 32.73-32.1s32.74 14.38 32.74 32.1" style="fill:#6c5d53;stroke:#000;stroke-width:4;stroke-linecap:round;stroke-linejoin:round" transform="matrix(.26458 0 0 .26458 -26.386 27.796)"/><path d="M299.13 680.06c0-16.37 9.44-26.44 9.44-26.44s-3.77 13.85-3.14 26.44z" style="fill:#000;fill-opacity:.31373;fill-rule:evenodd;stroke:#000;stroke-width:4;stroke-linejoin:round" transform="matrix(.26458 0 0 .26458 -26.386 27.796)"/><path d="M367.87 564.87c-2.29 3.97-6.5 5.84-9.4 4.16-2.89-1.67-3.38-6.25-1.09-10.22s6.5-5.84 9.4-4.16c2.89 1.67 3.38 6.24 1.09 10.22M335.13 564.87c2.29 3.97 6.5 5.84 9.4 4.16 2.89-1.67 3.38-6.25 1.09-10.22s-6.5-5.84-9.4-4.16c-2.89 1.67-3.38 6.24-1.09 10.22" style="fill:#000" transform="matrix(.26458 0 0 .26458 -26.386 27.796)"/><path d="M332.6 441.62c2-10.39-12.58-36.41-42.69-46.12-20.72-6.68-55.98 1.23-59.33 41.23 13.48-23.04 37.38-28.54 48.71-23.05 22.73 11.01 12.48 34.47 23.36 40.65 10.13 5.76 27.89-1.94 29.95-12.71z" style="fill:#6c5d53;fill-rule:evenodd;stroke:#000;stroke-width:4;stroke-linejoin:round" transform="matrix(.26458 0 0 .26458 -26.386 27.796)"/><path d="M301.788 591.566c1.5-30.5 39-75 45.5-75.5s-14 70.5-19.5 75.5-25.5 1.5-26 0z" style="fill:#784421;fill-rule:evenodd;stroke:#000;stroke-width:4;stroke-linejoin:round" transform="matrix(.26458 0 0 .26458 37.667 -16.836)"/><path d="M347.288 516.056c-.52.04-1.25.372-2.12.937-.96 13.17-22.91 66.266-28.16 70.124-2.96 2.178-9.25 1.941-14.88.938-.15 1.18-.28 2.356-.34 3.5.5 1.5 20.5 5 26 0s26-76 19.5-75.5z" style="fill:#000;fill-opacity:.31373;fill-rule:evenodd" transform="matrix(.26458 0 0 .26458 37.667 -16.836)"/><path d="M428.546 703.854a123.385 123.385 0 1 1-246.759 0 123.385 123.385 0 1 1 246.759 0" style="fill:#a05a2c;stroke:#000;stroke-width:4;stroke-linecap:round;stroke-linejoin:round" transform="matrix(.26458 0 0 .26458 37.667 -16.836)"/><path d="M405.556 684.376a95.387 95.387 0 1 1-190.766 0 95.387 95.387 0 1 1 190.766 0" style="fill:#000;fill-opacity:.31373;stroke-width:1.403" transform="matrix(.26458 0 0 .26458 37.667 -16.836)"/><path d="M413.738 645.236c3.2 10.97 4.91 22.59 4.91 34.59 0 68.11-55.27 123.38-123.38 123.38-46.82 0-87.6-26.14-108.5-64.6 15.03 51.2 62.37 88.63 118.41 88.63 68.11 0 123.37-55.27 123.37-123.38 0-21.21-5.37-41.18-14.81-58.62" style="fill:#000;fill-opacity:.31373" transform="matrix(.26458 0 0 .26458 37.667 -16.836)"/><path d="M389.208 823.786c0 21.54-17.48 20.77-39.03 20.77-21.54 0-39.03.77-39.03-20.77 0-21.55 17.49-39.03 39.03-39.03 21.55 0 39.03 17.48 39.03 39.03M299.188 823.786c0 21.54-17.48 20.77-39.03 20.77-11.98 0-22.7.24-29.86-3.25-5.72-2.79-9.17-7.96-9.17-17.52 0-21.55 17.49-39.03 39.03-39.03 21.55 0 39.03 17.48 39.03 39.03" style="fill:#a05a2c;stroke:#000;stroke-width:4;stroke-linecap:round;stroke-linejoin:round" transform="matrix(.26458 0 0 .26458 37.667 -16.836)"/><path d="M357.34 628.69c-3.5-11.33.5-24.55.5-24.55M375.37 631.21c4.29-18.25-.62-32.73-.62-32.73M393.62 629.32c8.81-13.85 1.26-25.18 1.26-25.18" style="fill:none;stroke:#000;stroke-width:4;stroke-linecap:round" transform="matrix(-.26458 0 0 .26458 204.846 39.446)"/><path d="M400.556 670.876a95.387 95.387 0 1 1-190.766 0 95.387 95.387 0 1 1 190.766 0" style="fill:#a05a2c;stroke:#000;stroke-width:4.00009;stroke-linecap:round;stroke-linejoin:round" transform="matrix(.26458 0 0 .26458 37.667 -16.836)"/><path d="M392.228 631.806c1.52 6.77 2.34 13.8 2.34 21.03 0 52.65-42.75 95.41-95.4 95.41-38.78 0-72.158-23.19-87.068-56.44 9.556 42.59 47.608 74.44 93.068 74.44 52.65 0 95.4-42.76 95.4-95.41 0-13.91-2.98-27.11-8.34-39.03" style="fill:#000;fill-opacity:.31373" transform="matrix(.26458 0 0 .26458 37.667 -16.836)"/><path d="M301.047 652.852a27.384 27.384 0 1 1-54.766 0 27.384 27.384 0 1 1 54.766 0M364.627 652.852a27.384 27.384 0 1 1-54.766 0 27.384 27.384 0 1 1 54.766 0" style="fill:#fff;stroke:#000;stroke-width:4.00001;stroke-linecap:round;stroke-linejoin:round" transform="matrix(.26458 0 0 .26458 37.667 -16.836)"/><path d="M290.348 655.994a8.499 8.499 0 1 1-16.997 0 8.499 8.499 0 1 1 16.997 0M336.928 655.994a8.499 8.499 0 1 1-16.997 0 8.499 8.499 0 1 1 16.997 0" style="fill:#000;stroke-width:.125" transform="matrix(.26458 0 0 .26458 37.667 -16.836)"/><path d="M330.518 717.296c0 13.77-15.08 24.95-25.07 24.95-10.75 0-25.06-11.18-25.06-24.95 0-13.78 11.23-17.28 25.06-17.28 13.84 0 25.07 3.5 25.07 17.28" style="fill:#000" transform="matrix(.26458 0 0 .26458 37.667 -16.836)"/><path d="M370.678 790.576c4.72 6.48 7.53 14.47 7.53 23.09 0 12.47-5.84 23.56-14.91 30.76 15.09-.58 25.91-3.7 25.91-20.63 0-14.03-7.41-26.34-18.53-33.22" style="fill:#000;fill-opacity:.31373" transform="matrix(.26458 0 0 .26458 37.667 -16.836)"/><path d="M357.34 628.69c-3.5-11.33.5-24.55.5-24.55M375.37 631.21c4.29-18.25-.62-32.73-.62-32.73M393.62 629.32c8.81-13.85 1.26-25.18 1.26-25.18" style="fill:none;stroke:#000;stroke-width:4;stroke-linecap:round" transform="matrix(.26458 0 0 .26458 32.26 39.446)"/><path d="M280.178 790.576c4.72 6.48 7.53 14.47 7.53 23.09 0 12.47-5.84 23.56-14.91 30.76 15.09-.58 25.91-3.7 25.91-20.63 0-14.03-7.41-26.34-18.53-33.22M316.368 804.296a38.8 38.8 0 0 0-5.22 19.5c0 17.51 11.55 20.26 27.44 20.69-15.78-6.58-23.81-22.21-22.22-40.19" style="fill:#000;fill-opacity:.31373" transform="matrix(.26458 0 0 .26458 37.667 -16.836)"/><path d="M237.998 602.066c-54.92-3.88-83.53 62.3-76.03 81.8 6.1 15.85 39.79 31.84 38.43 17.3-4.41-47.18 54.73-97.89 37.6-99.1zM372.908 602.066c54.92-3.88 83.53 62.3 76.03 81.8-6.1 15.85-39.79 31.84-38.43 17.3 4.41-47.18-54.73-97.89-37.6-99.1z" style="fill:#784421;fill-rule:evenodd;stroke:#000;stroke-width:4;stroke-linejoin:round" transform="matrix(.26458 0 0 .26458 37.667 -16.836)"/><path d="M377.978 601.9c50.9 10.295 64.66 77.406 53.75 94.536-2.42 3.79-6.76 7.18-11.72 9.9 10.08-2.33 25.07-12.41 28.94-22.47 7.26-18.89-19.37-81.588-70.97-81.966" style="fill:#000;fill-opacity:.31373;fill-rule:evenodd" transform="matrix(.26458 0 0 .26458 37.667 -16.836)"/><path d="m270.498 886.376 72.77-15.76s12.42 19.95 26.82 8.58c14.39-11.37-5.74-22.66-5.74-22.66s20.21-11.03.34-20.94c-19.87-9.9-26.5 15.83-26.5 15.83l-70.52 12.45s-18.34-24.58-31.82-8.35c-13.47 16.23 5.02 26.4 5.02 26.4s-14.83 12.89 4.08 21.53c18.92 8.65 24.56-14.73 25.55-17.08z" style="fill:#e3dbdb;fill-rule:evenodd;stroke:#000;stroke-width:4;stroke-linejoin:round" transform="matrix(.26458 0 0 .26458 37.667 -16.836)"/><path d="M257.068 853.776c1.97 1.89 3.83 3.82 5.64 5.45.24-.04.47-.09.71-.13-1.74-1.74-3.9-3.67-6.35-5.32m108.92-17.49c.34.46.64.95.92 1.45 2.01 6.02-6.4 10.95-9.51 14.3 1.13 2.21 3.89 3.67 6.12 5.58 1.91-1.1 19.07-12.18 2.47-21.33m-134.02 35.93c.91 2.23 2.31 4.13 3.74 5.62 1.9-2.26-1.57-3.8-3.74-5.62m134.14-14.55c.44.51.82 1.09 1.12 1.7 6.03 7.71-3.98 17.18-11.88 16.69-7.76-.17-10.84-7.66-15.72-12.38-24.26 5.25-50.26 10.84-74.52 16.09-2.47 4.05-3.34 9.33-6.64 13.06-4.95 7.84-15.94 7.03-22.56 1.67-.13-.07-.24-.17-.36-.25.67 3.13 3.25 6.4 9.41 9.22 18.92 8.65 24.55-14.74 25.54-17.09l74.52-16.09s10.69 20.29 25.08 8.92c11.7-9.24.58-18.42-3.99-21.54" style="fill:#000;fill-opacity:.31373;fill-rule:evenodd" transform="matrix(.26458 0 0 .26458 37.667 -16.836)"/><path d="M366.957 721.335c-4.92 14.051-24.416 34.841-27.733 35.467-8.01-4.44-56.663-3.944-64.672 1.162-9.006-5.419-25.918-20.339-29.327-37.204 70.858 59.241 125.13-7.796 121.73.576z" style="fill:#fff;fill-rule:evenodd;stroke:#000;stroke-width:4;stroke-linecap:round;stroke-linejoin:round" transform="matrix(.26458 0 0 .26458 37.667 -16.836)"/></svg>