<svg xmlns="http://www.w3.org/2000/svg" xml:space="preserve" viewBox="0 0 248.977 393.857"><path fill="#FF860D" stroke="#010101" stroke-linecap="round" stroke-linejoin="round" stroke-width="4" d="M96.198 146.28c-9.442-63.582 54.399-67.86 47.214-93.169-7.473-26.324-36.512-18.886-51.62-22.663s-12.88-17.732-3.776-25.181c6.925-5.666 63.548-8.729 76.802 32.734 18.436 57.68-45.326 52.881-45.326 107.02 0 46.03-22.033 1.26-23.292 1.26z"/><path fill="#442006" d="M126.38 24.596c-.09.291.065.538.287.706 2.234 1.695 5.253 1 7.837 2.333 3.653 1.884 6.682 5.304 9.862 7.868 6.505 5.243 14.089 8.906 22.252 10.685.121.026.243.047.364.072a78 78 0 0 0-2.171-8.255 50 50 0 0 0-2.087-5.419c-.075-.017-.151-.027-.226-.044-8.105-1.865-14.526-6.749-22.033-9.938-3.72-1.586-12.43-3.329-14.08 1.992zM107.44 128.2c1.721-2.612 3.41-5.246 5.183-7.824 1.425-2.072 3.645-3.636 4.194-6.145a.52.52 0 0 0-.354-.625c-3.925-1.338-8.204 3.134-10.922 5.496-3.289 2.858-6.774 5.558-10.006 8.502-.431 4.696-.384 9.812.246 15.403q1.018-1.107 2.019-2.224c3.541-3.98 6.711-8.16 9.641-12.6zm16.45-36.273c-4.308.631-8.64.926-12.967 1.262-3.055 3.379-5.898 7.127-8.303 11.374 6.72-.396 13.457.264 20.183.011 5.02-.189 9.979-.805 14.968-1.068 4.351-4.392 8.973-8.404 13.27-12.537-8.84-1.826-18.36-.324-27.15.964zm-3.65 43.363c-4.259 3.655-8.079 7.937-12.421 11.64-.607.517.196 1.557.852 1.104 3.689-2.543 7.271-4.982 10.952-7.129.13-1.94.34-3.82.62-5.61zM81.686 23.075c1.408 3.271 4.602 6 10.105 7.376 1.728.432 3.644.713 5.682.919 2.983-2.011 5.945-4.054 8.938-6.049 6.673-4.448 13.912-7.667 20.935-11.472 1.292-.7 1.354-2.825 0-3.508-14.57-7.339-29.644 3.569-42.085 10.728-1.177.681-2.37 1.348-3.569 2.006zm74.994 47.212c-3.327-1.154-8.652-4.241-14.357-6.92-1.661 3.171-4.465 6.136-7.909 9.176 2.089 1.349 4.107 2.818 6.103 4.257 4.828 3.485 10.383 6.307 15.989 8.56 3.429-3.83 6.388-7.93 8.469-12.644-2.81-.626-5.58-1.489-8.29-2.429z"/><path fill="#010101" fill-opacity=".314" d="M149.41 15.535c3.32 4.187 6.043 9.138 7.906 14.969 18.43 57.679-45.32 52.892-45.32 107.04 0 18.697-3.66 22.4-8.063 20.219 6.791 9.204 15.562 16.332 15.562-12.719 0-54.139 63.75-49.353 45.313-107.03-3.13-9.799-8.66-17.097-15.4-22.475z"/><path fill="#FF860D" stroke="#010101" stroke-linecap="round" stroke-linejoin="round" stroke-width="4" d="M247.87 250.78c.046 68.146-55.158 123.42-123.3 123.47-68.144.05-123.42-55.16-123.47-123.3v-.166c-.046-68.144 55.159-123.42 123.3-123.47 68.144-.046 123.42 55.16 123.47 123.3v.17z"/><path fill="#442006" d="M83.417 140.74c8.052 1.825 16.798 2.888 25.036 1.986 6.462-.707 15.923-2.312 17.401-9.73.104-.518-.145-.919-.627-1.105-5.619-2.163-12.065.037-18.084-.024-3.956-.04-7.802-.463-11.61-1.134a122.5 122.5 0 0 0-21.754 7.445c3.196.96 6.42 1.82 9.641 2.54zm18.153 17.48c19.493.345 39.016-.103 58.518.084 15.078.144 30.592 1.686 45.599-.5a124 124 0 0 0-18.396-13.324c-9.715.315-19.581-.253-29.102.592-18.31 1.627-36.362 4.753-54.738 5.876-9.367.572-18.829.884-28.2.263-4.81-.318-9.603-.868-14.37-1.571-1.843-.271-3.729-.699-5.625-1.086a125 125 0 0 0-5.636 4.071c6.624 2.662 15.206 2.934 21.869 3.696 9.986 1.14 20.04 1.72 30.082 1.9zm120.5 163.14c-12.544 1.138-24.694-1.554-36.373-5.958-6.116-2.306-12.053-5.006-18.24-7.132-5.49-1.888-11.92-7.186-17.802-6.91-1.064.05-1.752 1.156-1.214 2.116 1.349 2.406 3.513 3.537 5.778 5.072 3.147 2.133 6.205 4.358 9.105 6.819 5.424 4.602 11.11 8.574 17.267 12.144 9.669 5.606 20.056 9.286 30.971 10.773a124 124 0 0 0 14.543-17.425c-1.35.2-2.69.37-4.05.5zm-50.81 24.35c-19.728-7.215-36.429-20.807-57.42-24.89-26.829-5.22-51.559 5.517-74.022 19.792a124 124 0 0 0 7.603 6.607c4.493-2.044 9.05-3.951 13.747-5.556 18.552-6.336 37.469-9.42 56.296-2.413 9.283 3.454 17.849 9.193 26.461 14.013 8.516 4.764 17.31 8.886 26.486 12.15a123 123 0 0 0 25.115-13.661c-8.31-.69-16.44-3.18-24.26-6.04zM27.11 180.68c11.047 3.994 22.647 6.934 34.299 8.455 26.991 3.522 53.93-3.902 80.862-4.732 27.36-.844 53.958 9.667 81.301 3.69a62 62 0 0 0 6.23-1.713 124 124 0 0 0-10.34-14.449 60 60 0 0 1-1.814.462c-11.624 2.754-24.197 1.295-35.901-.147-13.22-1.63-26.115-3.428-39.476-2.789-25.514 1.221-50.428 8.217-76.066 7.95-11.309-.117-22.395-2.502-33.222-5.607-.895-.256-1.778-.541-2.664-.821a124 124 0 0 0-6.571 8.459c1.118.42 2.239.84 3.363 1.24zm-14.079 39.01c6.789.229 13.423 1.861 20.114 2.877 7.152 1.085 14.263 2.403 21.438 3.334 13.885 1.801 27.632 1.584 41.177-2.26 6.82-1.935 13.175-5.262 19.14-9.024 2.768-1.745 5.086-3.931 7.538-6.076 2.042-1.787 4.978-3.345 5.378-6.218.058-.414-.043-.726-.396-.971-3.65-2.535-11.556.977-15.3 2.282-6.756 2.355-12.887 5.452-19.956 6.966-13.567 2.905-26.697.863-39.893-2.692-13.369-3.603-26.322-7.411-40.246-8.041A122.4 122.4 0 0 0 5 219.81c2.653-.15 5.32-.21 8.031-.12m61.159 49.98c6.4-1.643 12.491-4.758 18.223-7.973 5.058-2.837 10.59-5.956 14.098-10.655 2.396-3.21-.87-7.66-4.4-7.669-5.986-.015-11.559 3.659-16.808 6.159-6.097 2.902-12.452 5.478-19.248 6.031-7.588.617-14.66-1.932-21.468-4.994-7.566-3.402-14.999-6.813-22.948-9.247-6.483-1.985-13.132-3.229-19.836-3.785a125 125 0 0 0-.7 13.246v.166q.003 3.172.163 6.304c10.835.912 21.617 3.725 31.716 7.447 13.697 5.04 26.641 8.69 41.209 4.96zm-53.431 33.6c9.656-3.867 19.781-7.408 30.229-8.191 7.058-.529 25.18 2.936 27.494-6.79.298-1.253-.17-2.653-1.342-3.297-3.9-2.143-9.205-.577-13.532-1.202-5.87-.848-11.506-2.655-17.425-3.382-11.349-1.393-23.131.868-33.654 5.154-1.917.78-3.825 1.613-5.727 2.471a122.6 122.6 0 0 0 7.4 18.204 93 93 0 0 1 6.557-2.96zm127.851-24.91c21-2.609 38.421 8.715 56.995 16.424 10.287 4.27 20.767 6.624 31.298 7.005a122.4 122.4 0 0 0 6.405-17.573c-3.12.281-6.27.383-9.454.25-9.549-.398-18.947-3.843-27.721-7.391-17.809-7.202-34.56-15.34-54.348-13.517-19.907 1.835-39.114 11.745-59.529 8.349-2.163-.36-3.872 2.037-2.204 3.787 14.923 15.66 40.313 4.94 58.563 2.67zm35.83-69.45c-5.699 1.562-11.4 1.21-17.164.316-4.59-.711-10.681-3.041-15.208-1.373-.489.181-.786.625-.655 1.153.991 3.994 5.38 6.757 8.758 8.636 5.461 3.039 11.345 4.343 17.5 5.051 11.954 1.376 22.99-3.364 33.807-7.659 8.663-3.438 17.594-6.259 26.139-1.979 1.774.889 3.514 1.824 5.236 2.729a122.6 122.6 0 0 0-9.266-22.748c-6.366-.464-12.823.734-18.901 2.989-10.31 3.82-19.6 9.96-30.26 12.88zm21.87 20.71c-2.378-1.504-4.271 2.067-2.147 3.674 10.074 7.621 23.978 8.178 35.991 6.37 2.4-.361 4.765-.864 7.094-1.485a123 123 0 0 0-1.748-11.673c-11.62 6.16-27.28 10.64-39.18 3.11zm-90.27.86c-.191.229-.122.556.172.653 3.324 1.099 7.051.002 10.523.159 5.536.25 10.952 2.476 15.889 4.828 8.846 4.216 16.375 10.619 24.724 15.677 16.646 10.084 35.532 16.271 55.103 15.926 8.35-.146 16.8-1.539 24.777-4.224a125 125 0 0 0 .641-12.724v-.164a124 124 0 0 0-.103-4.739c-8.798 4.457-18.942 6.534-28.753 6.88-19.197.677-38.458-6.489-55.214-15.266-8.421-4.411-17.449-7.767-26.857-9.229-5.51-.87-16.76-2.73-20.9 2.21z"/><path fill="#010101" fill-opacity=".314" d="M232.66 192.16c3.203 10.976 4.906 22.589 4.906 34.594 0 68.108-55.267 123.38-123.38 123.38-46.824 0-87.599-26.133-108.5-64.595 15.022 51.2 62.367 88.625 118.41 88.625 68.108 0 123.38-55.267 123.38-123.38-.01-21.2-5.38-41.18-14.82-58.62z"/><path fill="#FF860D" stroke="#010101" stroke-linecap="round" stroke-linejoin="round" stroke-width="4" d="M118.51 370.71c0 21.545-17.484 20.772-39.029 20.772-11.979 0-22.705.238-29.866-3.254-5.718-2.789-9.164-7.955-9.164-17.52 0-21.546 17.485-39.031 39.03-39.031s39.029 17.49 39.029 39.03zm90.02 0c0 21.545-17.484 20.772-39.029 20.772s-39.03.771-39.03-20.772 17.485-39.031 39.03-39.031 39.03 17.49 39.03 39.03z"/><path fill="#442006" d="M99.328 390.86c6.538-.792 11.851-2.585 15.211-6.625-2.5-1.291-4.994-2.54-7.348-3.849-8.228-4.573-17.473-8.392-26.785-9.926-9.355-1.542-17.788 1.431-26.866 2.998-1.325.229-7.675.888-12.772 1.894.227 1.559.572 2.97 1.032 4.242 1.073-.134 2.131-.287 3.138-.393 4.642-.484 9.258-1.181 13.9-1.66 8-.828 17.188.89 24.505 4.077 5.632 2.46 10.756 5.98 15.986 9.24zm49.862-22.56c1.919-1.265 2.085-3.007 3.198-4.835a.08.08 0 0 0-.012-.095c-1.345-1.171-1.589-2.819-3.187-3.818-2.212-1.385-4.372-1.674-6.925-1.976-3.104-.366-6.361-.66-9.474-.142a38.9 38.9 0 0 0-2.322 13.275c0 .354.018.687.026 1.029.86.13 1.802.121 2.824-.072a127 127 0 0 1 10.399-1.533c2.07-.21 3.73-.68 5.47-1.83zm55.29 11.31c-7.56-1.721-14.764-4.738-22.19-6.908-3.983-1.164-8.242-1.517-12.351-1.992-3.854-.446-5.796-.138-8.589 2.413-.307.28-.036.692.304.733 2.454.293 5.299.725 7.68 1.325 2.771.7 4.308 2.942 6.428 4.556 3.229 2.456 6.778 4.307 10.341 6.218a93 93 0 0 0 8.412 3.986c5.861-1.461 10.256-4.309 12.45-9.812-.82-.17-1.65-.34-2.48-.53zM76.126 340.1c-.01.093.068.157.144.188 4.415 1.832 10.636.644 15.288-.047 2.813-.418 6.058-1.133 8.468-2.701a38.8 38.8 0 0 0-11.739-4.844c-.934.316-1.86.604-2.773.826-3.567.85-8.952 2.34-9.392 6.57zm8.912 10.06c-2.94-.473-4.787 3.203-2.077 4.926 7.085 4.504 15.525 4.671 23.384 2.355 2.759-.813 5.71-1.897 8.453-3.335a39 39 0 0 0-5.751-8.848c-1.187.782-2.391 1.563-3.648 2.276-6.556 3.73-13.108 3.8-20.352 2.63zm57.452-.44c3.598 1.776 7.023 3.873 10.612 5.668 8.31 4.157 16.495 4.235 25.21 1.284 7.507-2.542 14.322-6.652 21.73-9.411.171-.063.343-.118.515-.179a39.3 39.3 0 0 0-9.119-8.652c-3.435 1.493-6.803 3.174-10.173 4.696-3.893 1.759-8.002 3.184-12.275 3.572-4.242.386-8.219-1.535-11.87-3.454-2.822-1.483-5.998-3.382-9.331-4.966a39.3 39.3 0 0 0-10.075 9.805c1.58.37 3.15.84 4.77 1.64zm-98.798 5.41q.79.243 1.588.511c6.238 2.096 11.066 4.37 17.87 3.97 1.368-.081 8.75-.79 8.14-3.601-.978-4.499-8.672-4.305-11.862-6.24-2.651-1.608-4.874-4.233-7.37-6.103-.138-.104-.28-.197-.419-.298a39.2 39.2 0 0 0-7.947 11.76z"/><path fill="#010101" fill-opacity=".314" d="M99.494 337.5a39.1 39.1 0 0 1 7.531 23.094c0 12.466-5.835 23.559-14.906 30.75 15.082-.573 25.906-3.694 25.906-20.625 0-14.03-7.4-26.34-18.526-33.22z"/><path fill="none" stroke="#010101" stroke-linecap="round" stroke-width="4" d="M94.16 389.342c3.503-11.332-.5-24.55-.5-24.55m-17.52 27.06c-4.294-18.256.612-32.733.612-32.733M57.88 389.972c-8.813-13.85-1.26-25.18-1.26-25.18"/><path fill="#010101" fill-opacity=".314" d="M189.99 337.5a39.1 39.1 0 0 1 7.531 23.094c0 12.466-5.834 23.559-14.906 30.75 15.082-.573 25.906-3.694 25.906-20.625 0-14.03-7.4-26.34-18.53-33.22zm-54.31 13.72a38.9 38.9 0 0 0-5.22 19.5c0 17.505 11.554 20.263 27.438 20.688-15.78-6.58-23.8-22.21-22.22-40.19z"/><path fill="none" stroke="#010101" stroke-linecap="round" stroke-width="4" d="M155.547 389.342c-3.503-11.332.5-24.55.5-24.55m17.52 27.06c4.293-18.256-.613-32.733-.613-32.733m18.873 30.853c8.813-13.85 1.26-25.18 1.26-25.18"/><path fill="#010101" fill-opacity=".314" d="M57.15 172.06c-12.297 16.099-19.594 36.191-19.594 58 0 52.818 42.868 95.688 95.688 95.688s95.688-42.868 95.688-95.688c0-21.602-7.193-34.512-19.281-50.531 3.724-2.548 6.889-5.694 9.594-9.188-10.563-11.339-70.369-35.969-86-35.969-15.28 0-81.421 33.87-76.09 37.69z"/><path fill="#FF860D" stroke="#010101" stroke-linecap="round" stroke-linejoin="round" stroke-width="4" d="M24.488 112.88c-5.862 4.975 6.742 50.256 14.387 55.052-8.083 14.287-12.732 30.775-12.732 48.353 0 54.329 44.066 98.438 98.396 98.438s98.439-44.109 98.439-98.438c0-17.577-4.651-34.065-12.733-48.353 7.628-4.801 17.643-48.595 12.733-53.503-4.908-4.908-45.246 8.519-50.045 16.147-2.567-1.454-9.945-6.953-9.945-6.953l-9 5.473-1.485-8.667-5.979 4.92-5.34-6.92-7.939 9.195-8.755-6.087-3.725 7.226-9.042-8-4.401 9.667-7-11-7.333 10-7.333-5.806s-6.486 5.264-9.47 6.953c-4.816-7.62-46.988-21.71-51.716-17.69z"/><path fill="#442006" d="M184.97 225.84c-7.536-.232-14.987-1.361-22.506-1.739-4.869-.245-9.759-.298-14.632-.43-3.775-.102-8.461-1.234-11.767.837-1.089.682-1.109 1.946-.371 2.883 2.467 3.135 7.391 3.211 11.094 3.996 5.38 1.14 10.743 1.961 16.044 3.48 7.651 2.194 14.916 5.168 22.746 6.799 8.417 1.753 16.646 2.06 25.131.721 2.967-.468 6.292-1.322 9.444-2.631a98.5 98.5 0 0 0 2.806-21.62c-5.95 1.225-11.063 5.099-17.151 6.47-6.74 1.52-13.97 1.44-20.83 1.23zm21.09-109.6c1.288 3.513 3.011 6.703 4.096 10.326 1.039 3.471 2.162 7.581 4.829 10.164 3.363 3.255 7.713-.831 6.061-4.676-1.521-3.536-3.117-6.967-4.506-10.587-1.002-2.611-2.166-5.485-4.243-7.418a87 87 0 0 0-6.398 1.409c.02.27.06.53.16.79zm-54.93 81.82c-3.213.029-6.527-.66-9.681-.049-.647.125-.781 1.141-.187 1.428 5.202 2.509 12.629 1.485 18.262 1.42 7.323-.086 14.621-.648 21.911-1.325 10.444-.97 21.738-.843 31.737-4.486 4.981-1.815 6.465-8.56 1.504-11.507-10.925-6.489-19.998 7.004-29.34 9.852-7.159 2.182-14.985 3.034-22.394 3.947-3.93.48-7.86.68-11.81.72zm-25.27-57.13c-4.741 10.473-8.184 24.293-3.597 35.438.846 2.056 3.962 3.127 5.203.68 4.399-8.678 8.071-17.528 13.231-25.839 2.472-3.98 5.146-7.811 8.352-11.229 3.525-3.759 8.353-7.083 10.689-11.778.53-1.065.81-2.122.888-3.138l-6.633 4.033-1.485-8.667-5.979 4.92-4.023-5.215c-7.52 4.78-13.63 14.16-16.64 20.81zm-25.54-21.5-7.319 9.981.025.213c1.163 8.513 5.408 18.569 14.257 21.316 4.259 1.322 9.807-3.303 7.88-7.88-2.364-5.619-4.707-10.508-5.982-16.524-.01-.046-.015-.093-.025-.14l-1.836 4.034zm86.38 166.09c-4.406-.154-8.768-.165-13.167-.542-9.198-.788-18.113-1.348-27.122 1.186-5.905 1.66-10.366 5.466-14.979 9.326-3.881 3.247-8.389 7.047-10.068 11.949-.973 2.84.425 5.657 2.667 7.278.169.001.338.007.508.007q3.92-.002 7.764-.305c3.435-2.492 6.563-5.531 9.814-8.244 4.605-3.842 8.62-6.016 14.812-6.584 6.218-.571 12.462.274 18.696.837a99 99 0 0 0 18.113-14.165c-2.34-.68-5.05-.71-7.03-.78zM82.143 267.19a117 117 0 0 0 6.171-9.872c2.625-4.72 4.731-11.196 8.95-14.696 2.533-2.102-.253-5.589-2.944-5.057-8.529 1.688-14.309 9.726-19.817 15.87-5.652 6.305-11.371 12.544-17.596 18.295a103 103 0 0 1-8.409 7.009 99 99 0 0 0 12.787 12.926 134 134 0 0 0 1.631-1.521c7.219-6.86 13.555-14.78 19.227-22.95zM213.46 162.86c.398-.257.74-.551 1.038-.868q.661-1.362 1.313-2.935c.104-1.338-.344-2.737-1.357-3.905-2.961-3.414-7.677-4.11-10.698-7.514-1.843-2.076-2.724-6.263-3.021-8.834-.537-4.638-.256-9.333-.703-13.984-.238-2.478-.73-4.738-1.356-7.127a2 2 0 0 0-.044-.124c-5.011 1.61-10.048 3.538-14.353 5.527-.3 1.637-.5 3.293-.64 4.988-.482 5.842.517 12.244 2.181 17.837 2.95 9.91 16.23 24.27 27.64 16.91zM73.47 137.5c-.854.484-1.583 1.58-1.49 2.597.373 4.061 3.761 6.03 6.8 8.319 4.036 3.041 8.189 5.854 12.08 9.099 3.513 2.931 6.65 6.256 9.542 9.793 3.207 3.924 5.042 8.863 9.356 11.738 3.507 2.337 7.375-.846 7.7-4.418.473-5.197-3.101-9.91-6.052-13.877-3.377-4.54-7.387-8.449-11.76-12.021-3.962-3.236-8.185-5.914-12.674-8.352-3.812-2.07-9.282-5.28-13.506-2.88zM34.9 113.08c.021.666.042 1.332.084 1.986.46 6.974 1.921 13.837 6.37 19.374 2.875 3.578 9.867 9.082 14.617 6.785.999-.483 1.432-1.811 1.151-2.828-.681-2.463-3.134-3.876-4.509-5.977-1.308-1.998-1.178-5.476-1.578-7.771s-.485-4.722-.405-7.177c-5.562-1.88-11.129-3.45-15.73-4.38zm-8.747 25.62c1.447 5.648 3.265 11.386 5.186 16.292 4.599.423 9.182 2.011 13.469 3.632 4.52 1.709 8.91 3.828 13.278 5.886 4.385 2.066 9.143 4.98 14.085 3.876 2.158-.481 4.009-3.307 3.11-5.478-2.102-5.079-7.424-7.611-11.92-10.44-4.613-2.903-9.248-5.618-14.241-7.817-6.36-2.8-15.014-5.92-22.967-5.95zM210.94 254.47c-8.73 4.055-18.225 5.059-27.723 4.285-9.745-.794-19.242-4.396-28.815-6.244-5.149-.993-20.568-3.849-22.44 3.782-.247 1.008.317 1.804 1.228 2.163 3.229 1.272 7.514.348 10.962 1.019 4.857.944 9.652 2.479 14.337 4.047 9.898 3.312 19.531 7.32 29.887 9.049 5.531.923 11.086 1.134 16.548.518a98.3 98.3 0 0 0 11.497-21.439c-1.79.98-3.61 1.94-5.49 2.81zM93.048 303.32c3.592-10.001 7.804-26.386 19.643-29.692 1.58-.441 1.553-2.71 0-3.164-13.797-4.038-24.156 14.021-29.187 24.07-1.483 2.962-2.815 6.084-4.019 9.271a98 98 0 0 0 11.737 5.118c.572-1.89 1.165-3.77 1.827-5.61zM62.039 249.6c.591-1.908-1.027-4.1-3.051-4.005-7.735.361-15.221 6.345-22.234 9.265a65 65 0 0 1-2.357.913 98 98 0 0 0 5.665 10.979c7.821-3.05 19.281-8.44 21.977-17.15zm-21.228-52.44c6.396 1.122 14.132 3.707 20.252.747 2.012-.973 1.349-3.988-.594-4.545-6.265-1.795-12.025-5.242-18.211-7.359-3.379-1.157-6.777-2.246-10.177-3.332a98 98 0 0 0-3.563 12.158c4.075.85 8.173 1.6 12.293 2.33zm60.869 12.4c-15.205-8.574-33.016.034-48.201 4.112-6.862 1.843-14.187 3.108-19.707 1.721-2.325-.585-4.689-2.21-7.499-3.945a99 99 0 0 0-.131 4.832 99 99 0 0 0 1.635 17.926c7.433 2.093 15.3 1.721 22.875-.237 17.241-4.458 32.778-14.147 50.196-18.057 2.96-.65 3.37-4.9.83-6.34z"/><path fill="#010101" fill-opacity=".314" d="M215.98 181.84a93.3 93.3 0 0 1 1.893 18.688c0 52.819-43.998 95.688-98.212 95.688-40.659 0-75.565-24.098-90.481-58.438 9.003 43.79 48.706 76.844 96.288 76.844 54.214 0 98.212-42.868 98.212-95.688 0-13.15-2.75-25.68-7.7-37.09z"/><path fill="#D1660F" stroke="#010101" stroke-linecap="round" stroke-linejoin="round" stroke-width="4" d="M183.29 136.49a77.7 77.7 0 0 1 21.075 21.075c4.268-2.712 14.47-30.834 11.122-33.641-2.65-2.22-29.48 8.29-32.19 12.57zm-117.202 0a77.7 77.7 0 0 0-21.073 21.075c-4.27-2.712-13.385-31.241-10.026-34.047 2.653-2.21 28.39 8.7 31.099 12.98z"/><path fill="#FFF" d="M80.815 267.43s2.053 6.748-6.442 18.999c-3.385-11.407.75-33.814.75-33.814l5.692 14.81zm86.895.4s-2.053 6.748 6.441 18.999c3.385-11.407-.75-33.814-.75-33.814l-5.69 14.81z"/><path fill="none" stroke="#010101" stroke-linecap="round" stroke-linejoin="round" stroke-width="4.271" d="M178.698 235.374c-9.194 17.058-6.354 39.498-25.874 44.718a36.66 36.66 0 0 1-27.765-3.646m-54.777-41.072c7.706 18.688 6.354 39.498 25.873 44.718a36.67 36.67 0 0 0 27.767-3.646"/><path fill="#010101" d="M141.18 251.6c0 8.829-9.669 15.995-16.065 15.995-6.892 0-16.067-7.166-16.067-15.995 0-8.83 7.198-11.074 16.067-11.074 8.87-.01 16.06 2.24 16.06 11.07z"/><path fill="#FFF" stroke="#010101" stroke-linecap="round" stroke-linejoin="round" stroke-width="4" d="M120.76 205.77c.009 12.779-10.345 23.146-23.123 23.152-12.778.01-23.146-10.344-23.153-23.121v-.031c-.009-12.779 10.344-23.146 23.123-23.154 12.778-.008 23.145 10.344 23.153 23.123v.03z"/><path fill="#010101" d="M111.72 205.68c.002 8.969-3.211 16.243-7.178 16.249-3.966.005-7.183-7.259-7.186-16.227v-.022c-.003-8.97 3.21-16.247 7.176-16.251 3.967-.007 7.185 7.259 7.188 16.227v.02z"/><path fill="#FFF" stroke="#010101" stroke-linecap="round" stroke-linejoin="round" stroke-width="4" d="M174.49 205.77c.009 12.779-10.343 23.146-23.123 23.152-12.778.01-23.146-10.344-23.153-23.121v-.031c-.009-12.779 10.345-23.146 23.123-23.154s23.146 10.344 23.153 23.123v.03z"/><path fill="#010101" d="M151.08 205.68c.001 8.969-3.211 16.243-7.177 16.249-3.967.005-7.183-7.259-7.187-16.227v-.022c-.001-8.97 3.211-16.247 7.177-16.251 3.967-.007 7.183 7.259 7.187 16.227v.02z"/><path fill="none" stroke="#000" stroke-linecap="round" stroke-width="4" d="M167.12 244.898c44.674-16.607 66.505 3.894 66.505 3.894m-72.905 7.246c31.635-8.957 52.353 13.888 52.353 13.888m-54.983-1.978c24.337-2.576 33.656 19.125 33.656 19.125M87.99 244.898c-44.674-16.607-66.505 3.894-66.505 3.894m72.915 7.246c-31.635-8.957-52.353 13.888-52.353 13.888m54.983-1.978c-24.338-2.576-33.657 19.125-33.657 19.125"/></svg>