<svg xmlns="http://www.w3.org/2000/svg" version="1.0" viewBox="0 0 248.2 291.28"><path d="M441.29 560.71c.02 49.72-40.29 90.04-90.02 90.04-49.72 0-90.03-40.32-90.02-90.04-.01-49.73 40.3-90.05 90.02-90.05 49.73 0 90.04 40.32 90.02 90.05" style="stroke-linejoin:round;stroke:#000;stroke-linecap:round;stroke-width:3.2874;fill:#c8beb7" transform="translate(-304.73 -512.93)scale(1.2168)"/><path d="M454.19 523.12c.07 1.69.12 3.4.12 5.1 0 60.46-49.06 109.53-109.53 109.53-47.26 0-87.59-30-102.94-71.97 2.66 58.11 50.68 104.47 109.44 104.47 60.47 0 109.53-49.07 109.53-109.53 0-13.2-2.34-25.87-6.62-37.6" style="fill:#000;fill-opacity:.31373" transform="translate(-228.58 -391.38)"/><path d="M359.45 671.28c0 9.09 14.67 9.38 32.74 9.38s32.73.69 32.73-9.38c0-17.72-14.66-32.1-32.73-32.1s-32.74 14.38-32.74 32.1" style="stroke-linejoin:round;stroke:#000;stroke-linecap:round;stroke-width:4;fill:#6c5d53" transform="translate(-228.58 -391.38)"/><path d="M435.91 525.42c0 45.17-55.12 81.84-81.84 81.84-25.72 0-81.84-36.67-81.84-81.84s24.63-81.84 81.84-81.84c57.22 0 81.84 36.67 81.84 81.84" style="fill:#000;fill-opacity:.31373" transform="translate(-228.58 -391.38)"/><path d="M318.63 579.05c7.75 17.93 11.36 23.33 11.13 33.59-.1 4.67 9.19-7.64 9.83-13.79-.47 8.88 1.2 11.31 2.18 20.51.99 9.19 4.25 25.14 5.2 21.56 1.96-7.42 2.88-22.82 8.27-27.57 2.44 9.19 14.92 24.62 12.86 18.73-5-14.29-6.84-21.15-2.46-30.05 7.84 9.52 12.32 13.45 10.81 8.13-2.54-8.98 1.08-21.31 7.66-26.51 8.36-6.61-65.48-4.95-65.48-4.6z" style="stroke-linejoin:round;fill-rule:evenodd;stroke:#000;stroke-width:4;fill:#6c5d53" transform="translate(-228.58 -391.38)"/><path d="M404.78 680.06c0-16.37-9.44-26.44-9.44-26.44s3.77 13.85 3.14 26.44z" style="stroke-linejoin:round;fill-rule:evenodd;fill-opacity:.31373;stroke:#000;stroke-width:4;fill:#000" transform="translate(-228.58 -391.38)"/><path d="M108.88 46.344c-30.134.61-50.937 11.653-63.63 28.75C21.186 72.506 1.188 98.719 1.188 98.719s18.891 9.451 32.062 1.531c-2.399 8.71-3.562 18.11-3.562 27.91 0 45.17 56.125 81.84 81.842 81.84 26.72 0 81.85-36.67 81.85-81.84 0-9.8-1.17-19.2-3.57-27.91 13.17 7.92 32.03-1.531 32.03-1.531s-19.97-26.205-44.03-23.625c-13.06-17.595-34.71-28.75-66.28-28.75-.89 0-1.78-.018-2.65 0" style="stroke-linejoin:round;stroke:#000;stroke-linecap:round;stroke-width:4;fill:#c8beb7" transform="translate(11.16 -7.31)"/><path d="M441.29 560.71c.02 49.72-40.29 90.04-90.02 90.04-49.72 0-90.03-40.32-90.02-90.04-.01-49.73 40.3-90.05 90.02-90.05 49.73 0 90.04 40.32 90.02 90.05" style="stroke-linejoin:round;stroke:#000;stroke-linecap:round;stroke-width:15.889;fill:#fff" transform="translate(7.97 -32.3)scale(.25175)"/><path d="M441.29 560.71c.02 49.72-40.29 90.04-90.02 90.04-49.72 0-90.03-40.32-90.02-90.04-.01-49.73 40.3-90.05 90.02-90.05 49.73 0 90.04 40.32 90.02 90.05" style="stroke-linejoin:round;stroke:#000;stroke-linecap:round;stroke-width:15.889;fill:#fff" transform="translate(60.7 -32.3)scale(.25175)"/><path d="M441.29 560.71c.02 49.72-40.29 90.04-90.02 90.04-49.72 0-90.03-40.32-90.02-90.04-.01-49.73 40.3-90.05 90.02-90.05 49.73 0 90.04 40.32 90.02 90.05" style="fill:#000" transform="translate(114.62 65.8)scale(.08392)"/><path d="M441.29 560.71c.02 49.72-40.29 90.04-90.02 90.04-49.72 0-90.03-40.32-90.02-90.04-.01-49.73 40.3-90.05 90.02-90.05 49.73 0 90.04 40.32 90.02 90.05" style="fill:#000" transform="translate(72.59 65.8)scale(.08392)"/><path d="M372.76 441.62c-1.99-10.39 12.58-36.41 42.7-46.12 20.71-6.68 55.97 1.23 59.32 41.23-13.48-23.04-37.38-28.54-48.7-23.05-22.74 11.01-12.48 34.47-23.37 40.65-10.13 5.76-27.88-1.94-29.95-12.71z" style="stroke-linejoin:round;fill-rule:evenodd;stroke:#000;stroke-width:4;fill:#6c5d53" transform="translate(-228.58 -391.38)"/><path d="m190.09 101.34-1.87 2.66c.25 3.08.34 6.2.34 9.38 0 45.17-55.12 81.84-81.84 81.84-20.707 0-61.098-23.76-76.064-56.6C38.272 178.87 87.828 210 111.53 210c26.72 0 81.85-36.67 81.85-81.84 0-9.4-1.08-18.41-3.29-26.82" style="fill:#000;fill-opacity:.31373" transform="translate(11.16 -7.31)"/><path d="M344.46 671.28c0 9.09-14.67 9.38-32.74 9.38s-32.73.69-32.73-9.38c0-17.72 14.66-32.1 32.73-32.1s32.74 14.38 32.74 32.1" style="stroke-linejoin:round;stroke:#000;stroke-linecap:round;stroke-width:4;fill:#6c5d53" transform="translate(-228.58 -391.38)"/><path d="M299.13 680.06c0-16.37 9.44-26.44 9.44-26.44s-3.77 13.85-3.14 26.44z" style="stroke-linejoin:round;fill-rule:evenodd;fill-opacity:.31373;stroke:#000;stroke-width:4;fill:#000" transform="translate(-228.58 -391.38)"/><path d="M367.87 564.87c-2.29 3.97-6.5 5.84-9.4 4.16-2.89-1.67-3.38-6.25-1.09-10.22s6.5-5.84 9.4-4.16c2.89 1.67 3.38 6.24 1.09 10.22m-32.74 0c2.29 3.97 6.5 5.84 9.4 4.16 2.89-1.67 3.38-6.25 1.09-10.22s-6.5-5.84-9.4-4.16c-2.89 1.67-3.38 6.24-1.09 10.22" style="fill:#000" transform="translate(-228.58 -391.38)"/><path d="M332.6 441.62c2-10.39-12.58-36.41-42.69-46.12-20.72-6.68-55.98 1.23-59.33 41.23 13.48-23.04 37.38-28.54 48.71-23.05 22.73 11.01 12.48 34.47 23.36 40.65 10.13 5.76 27.89-1.94 29.95-12.71z" style="stroke-linejoin:round;fill-rule:evenodd;stroke:#000;stroke-width:4;fill:#6c5d53" transform="translate(-228.58 -391.38)"/></svg>