<svg xmlns="http://www.w3.org/2000/svg" version="1.0" viewBox="0 0 293.33 393.31"><path d="M322.08 376.02c1.5-30.5 39-75 45.5-75.5s-14 70.5-19.5 75.5-25.5 1.5-26 0z" style="stroke-linejoin:round;fill-rule:evenodd;stroke:#000;stroke-width:4;fill:#784421" transform="translate(-179.08 -298.51)"/><path d="M188.5 2c-.52.04-1.25.373-2.12.938-.96 13.17-22.91 66.266-28.16 70.124-2.96 2.177-9.25 1.94-14.88.937a48 48 0 0 0-.34 3.5c.5 1.5 20.5 5 26 0s26-76 19.5-75.5z" style="fill-rule:evenodd;fill:#000;fill-opacity:.31373"/><path d="M403.52 522.31a67.988 67.988 0 1 1-135.97 0 67.988 67.988 0 1 1 135.97 0" style="stroke-linejoin:round;stroke:#000;stroke-linecap:round;stroke-width:2.2041;fill:#a05a2c" transform="translate(-462.55 -758.09)scale(1.8148)"/><path d="M403.52 522.31a67.988 67.988 0 1 1-135.97 0 67.988 67.988 0 1 1 135.97 0" style="fill:#000;fill-opacity:.31373" transform="translate(-319.37 -562.48)scale(1.403)"/><path d="M434.03 429.69c3.2 10.97 4.91 22.59 4.91 34.59 0 68.11-55.27 123.38-123.38 123.38-46.82 0-87.6-26.14-108.5-64.6 15.03 51.2 62.37 88.63 118.41 88.63 68.11 0 123.37-55.27 123.37-123.38 0-21.21-5.37-41.18-14.81-58.62" style="fill:#000;fill-opacity:.31373" transform="translate(-179.08 -298.51)"/><path d="M409.5 608.24c0 21.54-17.48 20.77-39.03 20.77-21.54 0-39.03.77-39.03-20.77 0-21.55 17.49-39.03 39.03-39.03 21.55 0 39.03 17.48 39.03 39.03m-90.02 0c0 21.54-17.48 20.77-39.03 20.77-11.98 0-22.7.24-29.86-3.25-5.72-2.79-9.17-7.96-9.17-17.52 0-21.55 17.49-39.03 39.03-39.03 21.55 0 39.03 17.48 39.03 39.03" style="stroke-linejoin:round;stroke:#000;stroke-linecap:round;stroke-width:4;fill:#a05a2c" transform="translate(-179.08 -298.51)"/><path d="M357.34 628.69c-3.5-11.33.5-24.55.5-24.55m17.53 27.07c4.29-18.25-.62-32.73-.62-32.73m18.87 30.84c8.81-13.85 1.26-25.18 1.26-25.18" style="stroke:#000;stroke-linecap:round;stroke-width:4;fill:none" transform="matrix(-1 0 0 1 473.07 -301.338)"/><path d="M403.52 522.31a67.988 67.988 0 1 1-135.97 0 67.988 67.988 0 1 1 135.97 0" style="stroke-linejoin:round;stroke:#000;stroke-linecap:round;stroke-width:2.8511;fill:#a05a2c" transform="translate(-324.37 -575.98)scale(1.403)"/><path d="M233.44 117.75c1.52 6.77 2.34 13.8 2.34 21.03 0 52.65-42.75 95.41-95.4 95.41-38.78 0-72.158-23.19-87.068-56.44 9.556 42.59 47.608 74.44 93.068 74.44 52.65 0 95.4-42.76 95.4-95.41 0-13.91-2.98-27.11-8.34-39.03" style="fill:#000;fill-opacity:.31373"/><path d="M403.52 522.31a67.988 67.988 0 1 1-135.97 0 67.988 67.988 0 1 1 135.97 0" style="stroke-linejoin:round;stroke:#000;stroke-linecap:round;stroke-width:9.931;fill:#fff" transform="translate(-20.27 -71.58)scale(.40278)"/><path d="M403.52 522.31a67.988 67.988 0 1 1-135.97 0 67.988 67.988 0 1 1 135.97 0" style="stroke-linejoin:round;stroke:#000;stroke-linecap:round;stroke-width:9.931;fill:#fff" transform="translate(43.31 -71.58)scale(.40278)"/><path d="M403.52 522.31a67.988 67.988 0 1 1-135.97 0 67.988 67.988 0 1 1 135.97 0" style="fill:#000" transform="translate(81.12 76.65)scale(.125)"/><path d="M403.52 522.31a67.988 67.988 0 1 1-135.97 0 67.988 67.988 0 1 1 135.97 0" style="fill:#000" transform="translate(127.7 76.65)scale(.125)"/><path d="M350.81 501.75c0 13.77-15.08 24.95-25.07 24.95-10.75 0-25.06-11.18-25.06-24.95 0-13.78 11.23-17.28 25.06-17.28 13.84 0 25.07 3.5 25.07 17.28" style="fill:#000" transform="translate(-179.08 -298.51)"/><path d="M390.97 575.03c4.72 6.48 7.53 14.47 7.53 23.09 0 12.47-5.84 23.56-14.91 30.76 15.09-.58 25.91-3.7 25.91-20.63 0-14.03-7.41-26.34-18.53-33.22" style="fill:#000;fill-opacity:.31373" transform="translate(-179.08 -298.51)"/><path d="M357.34 628.69c-3.5-11.33.5-24.55.5-24.55m17.53 27.07c4.29-18.25-.62-32.73-.62-32.73m18.87 30.84c8.81-13.85 1.26-25.18 1.26-25.18" style="stroke:#000;stroke-linecap:round;stroke-width:4;fill:none" transform="translate(-179.227 -301.338)"/><path d="M300.47 575.03c4.72 6.48 7.53 14.47 7.53 23.09 0 12.47-5.84 23.56-14.91 30.76 15.09-.58 25.91-3.7 25.91-20.63 0-14.03-7.41-26.34-18.53-33.22m36.19 13.72a38.8 38.8 0 0 0-5.22 19.5c0 17.51 11.55 20.26 27.44 20.69-15.78-6.58-23.81-22.21-22.22-40.19" style="fill:#000;fill-opacity:.31373" transform="translate(-179.08 -298.51)"/><path d="M258.29 386.52c-54.92-3.88-83.53 62.3-76.03 81.8 6.1 15.85 39.79 31.84 38.43 17.3-4.41-47.18 54.73-97.89 37.6-99.1zm134.91 0c54.92-3.88 83.53 62.3 76.03 81.8-6.1 15.85-39.79 31.84-38.43 17.3 4.41-47.18-54.73-97.89-37.6-99.1z" style="stroke-linejoin:round;fill-rule:evenodd;stroke:#000;stroke-width:4;fill:#784421" transform="translate(-179.08 -298.51)"/><path d="M219.19 87.844c50.9 10.295 64.66 77.406 53.75 94.536-2.42 3.79-6.76 7.18-11.72 9.9 10.08-2.33 25.07-12.41 28.94-22.47 7.26-18.89-19.37-81.588-70.97-81.966" style="fill-rule:evenodd;fill:#000;fill-opacity:.31373"/><path d="m290.79 670.83 72.77-15.76s12.42 19.95 26.82 8.58c14.39-11.37-5.74-22.66-5.74-22.66s20.21-11.03.34-20.94c-19.87-9.9-26.5 15.83-26.5 15.83l-70.52 12.45s-18.34-24.58-31.82-8.35c-13.47 16.23 5.02 26.4 5.02 26.4s-14.83 12.89 4.08 21.53c18.92 8.65 24.56-14.73 25.55-17.08z" style="stroke-linejoin:round;fill-rule:evenodd;stroke:#000;stroke-width:4;fill:#e3dbdb" transform="translate(-179.08 -298.51)"/><path d="M277.36 638.23c1.97 1.89 3.83 3.82 5.64 5.45.24-.04.47-.09.71-.13-1.74-1.74-3.9-3.67-6.35-5.32m108.92-17.49c.34.46.64.95.92 1.45 2.01 6.02-6.4 10.95-9.51 14.3 1.13 2.21 3.89 3.67 6.12 5.58 1.91-1.1 19.07-12.18 2.47-21.33m-134.02 35.93c.91 2.23 2.31 4.13 3.74 5.62 1.9-2.26-1.57-3.8-3.74-5.62m134.14-14.55c.44.51.82 1.09 1.12 1.7 6.03 7.71-3.98 17.18-11.88 16.69-7.76-.17-10.84-7.66-15.72-12.38-24.26 5.25-50.26 10.84-74.52 16.09-2.47 4.05-3.34 9.33-6.64 13.06-4.95 7.84-15.94 7.03-22.56 1.67-.13-.07-.24-.17-.36-.25.67 3.13 3.25 6.4 9.41 9.22 18.92 8.65 24.55-14.74 25.54-17.09l74.52-16.09s10.69 20.29 25.08 8.92c11.7-9.24.58-18.42-3.99-21.54" style="fill-rule:evenodd;fill:#000;fill-opacity:.31373" transform="translate(-179.08 -298.51)"/></svg>