<svg xmlns="http://www.w3.org/2000/svg" version="1.0" viewBox="0 0 244.07 254.03"><path d="M471.31 550.71c.02 66.3-53.73 120.07-120.04 120.07s-120.05-53.77-120.03-120.07c-.02-66.31 53.72-120.08 120.03-120.08s120.06 53.77 120.04 120.08" style="stroke-linejoin:round;stroke:#000;stroke-linecap:round;stroke-width:4;fill:#fff" transform="translate(-229.24 -428.63)"/><path d="M111.69 107.53c-55.321 1.12-79.19 37.35-79.19 81.81 0 19.85 10.825 38.08 25.156 52.25-30.524-12.93-54.598-38.14-66.031-69.4 2.908 63.68 55.509 114.5 119.9 114.5 66.27 0 120.04-53.77 120.04-120.03 0-14.47-2.55-28.34-7.25-41.19.09 1.84.16 3.7.16 5.56 0 32.54-12.99 62.06-34.03 83.69 3.6-7.99 5.75-16.52 5.75-25.38 0-45.17-24.62-81.81-81.85-81.81-.89 0-1.77-.02-2.65 0z" style="fill:#000;fill-opacity:.31373" transform="translate(10.5 -44.56)"/><path d="M359.45 671.28c0 9.09 14.67 9.38 32.74 9.38s32.73.69 32.73-9.38c0-17.72-14.66-32.1-32.73-32.1s-32.74 14.38-32.74 32.1m-14.99 0c0 9.09-14.67 9.38-32.74 9.38s-32.73.69-32.73-9.38c0-17.72 14.66-32.1 32.73-32.1s32.74 14.38 32.74 32.1" style="stroke-linejoin:round;stroke:#000;stroke-linecap:round;stroke-width:4;fill:#333" transform="translate(-229.24 -428.63)"/><path d="M299.13 680.06c0-16.37 9.44-26.44 9.44-26.44s-3.77 13.85-3.14 26.44z" style="stroke-linejoin:round;fill-rule:evenodd;fill-opacity:.31373;stroke:#000;stroke-width:4;fill:#000" transform="translate(-229.24 -428.63)"/><path d="M353.05 623.66c-46.4-3.35-78.5 11.44-78.5 11.44s10.24-.25 16.02.67c-10.83 7.42-14.38 22.13-14.38 22.13s12.07-12.95 24.46-17.55c-10.52 13.98-11.92 36.96-11.92 36.96s12.09-35.73 34.68-43.13c17.22-5.64 35.44-2.32 35.44-2.32s36.11-2.49 48.49 19.08c1.63.77 1.47-13.1-8.79-18.05l27.63-1.43c-20.15-8.49-73.13-7.8-73.13-7.8z" style="stroke-linejoin:round;fill-rule:evenodd;stroke:#000;stroke-width:4;fill:#4a0" transform="translate(-229.24 -428.63)"/><path d="M348.61 478.41c-30.13.61-50.93 11.65-63.62 28.75-24.07-2.59-44.07 23.62-44.07 23.62s18.89 9.45 32.07 1.54c-2.4 8.71-3.57 18.1-3.57 27.9 0 45.18 56.13 81.85 81.85 81.85 26.71 0 81.84-36.67 81.84-81.85 0-9.8-1.16-19.19-3.56-27.9 13.17 7.91 32.03-1.54 32.03-1.54s-19.97-26.2-44.03-23.62c-13.06-17.6-34.71-28.75-66.28-28.75-.9 0-1.78-.02-2.66 0" style="stroke-linejoin:round;stroke:#000;stroke-linecap:round;stroke-width:4;fill:#333" transform="translate(-229.24 -428.63)"/><path d="M404.78 680.06c0-16.37-9.44-26.44-9.44-26.44s3.77 13.85 3.14 26.44z" style="stroke-linejoin:round;fill-rule:evenodd;fill-opacity:.31373;stroke:#000;stroke-width:4;fill:#000" transform="translate(-229.24 -428.63)"/><path d="M347.64 548.24c.01 12.51-10.14 22.67-22.66 22.67s-22.67-10.16-22.66-22.67c-.01-12.52 10.14-22.67 22.66-22.67s22.67 10.15 22.66 22.67m52.74 0c0 12.51-10.15 22.67-22.67 22.67s-22.66-10.16-22.66-22.67c0-12.52 10.14-22.67 22.66-22.67s22.67 10.15 22.67 22.67" style="stroke-linejoin:round;stroke:#000;stroke-linecap:round;stroke-width:4;fill:#fff" transform="translate(-229.24 -428.63)"/><path d="M380.23 552.24a7.55 7.55 0 0 1-7.55 7.55c-4.18 0-7.56-3.38-7.56-7.55 0-4.18 3.38-7.56 7.56-7.56 4.17 0 7.55 3.38 7.55 7.56m-42.03 0a7.55 7.55 0 0 1-7.55 7.55c-4.18 0-7.56-3.38-7.56-7.55 0-4.18 3.38-7.56 7.56-7.56 4.17 0 7.55 3.38 7.55 7.56" style="fill:#000" transform="translate(-229.24 -428.63)"/><path d="m429.83 533.41-1.87 2.66c.24 3.07.34 6.2.34 9.37 0 45.18-55.13 81.84-81.84 81.84-20.71 0-61.1-23.75-76.07-56.59 7.62 40.25 57.17 71.38 80.88 71.38 26.71 0 81.84-36.67 81.84-81.85 0-9.39-1.07-18.41-3.28-26.81" style="fill:#000;fill-opacity:.31373" transform="translate(-229.24 -428.63)"/><path d="M367.87 612.87c-2.29 3.97-6.5 5.84-9.4 4.16-2.89-1.67-3.38-6.25-1.09-10.22s6.5-5.84 9.4-4.16c2.89 1.67 3.38 6.24 1.09 10.22m-32.74 0c2.29 3.97 6.5 5.84 9.4 4.16 2.89-1.67 3.38-6.25 1.09-10.22s-6.5-5.84-9.4-4.16c-2.89 1.67-3.38 6.24-1.09 10.22" style="fill:#000" transform="translate(-229.24 -428.63)"/><path d="M276.14 641.02c-3.3-.35-6.28 2.04-6.63 5.34-.05.52-.01 1.04.06 1.54-2.78.27-5.1 2.49-5.4 5.38-.34 3.29 2.08 6.24 5.38 6.59.75.08 1.46 0 2.15-.18-.17 3.17 2.18 5.98 5.37 6.31 3.3.35 6.25-2.07 6.6-5.37.08-.83 0-1.64-.22-2.38 2.57-.46 4.66-2.57 4.95-5.3.34-3.3-2.07-6.25-5.37-6.59-.53-.06-1.05-.05-1.55.02a5.97 5.97 0 0 0-5.34-5.36m.29 11.9c.04.41.1.81.22 1.19-.17.03-.34.06-.51.1.02-.42.01-.85-.06-1.26.12-.01.24-.01.35-.03" style="stroke-linejoin:round;stroke:#000;stroke-linecap:round;stroke-width:4;fill:#ff0" transform="translate(-229.24 -428.63)"/></svg>