<svg xmlns="http://www.w3.org/2000/svg" version="1.0" viewBox="0 0 268.96 504.61"><path d="M441.29 560.71c.02 49.72-40.29 90.04-90.02 90.04-49.72 0-90.03-40.32-90.02-90.04-.01-49.73 40.3-90.05 90.02-90.05 49.73 0 90.04 40.32 90.02 90.05" style="stroke-linejoin:round;stroke:#000;stroke-linecap:round;stroke-width:3.2874;fill:#fc0" transform="translate(-292.88 -299.61)scale(1.2168)"/><path d="M93.338 349.05a18.031 15.556 0 1 1-36.062 0 18.031 15.556 0 1 1 36.062 0" style="fill:#784421" transform="matrix(.42473 -.24473 .4879 .84676 -138.296 159.24)"/><path d="M454.19 523.12c.07 1.69.12 3.4.12 5.1 0 60.46-49.06 109.53-109.53 109.53-47.26 0-87.59-30-102.94-71.97 2.66 58.11 50.68 104.47 109.44 104.47 60.47 0 109.53-49.07 109.53-109.53 0-13.2-2.34-25.87-6.62-37.6" style="fill:#000;fill-opacity:.31373" transform="translate(-216.73 -178.06)"/><path d="M359.45 671.28c0 9.09 14.67 9.38 32.74 9.38s32.73.69 32.73-9.38c0-17.72-14.66-32.1-32.73-32.1s-32.74 14.38-32.74 32.1" style="stroke-linejoin:round;stroke:#000;stroke-linecap:round;stroke-width:4;fill:#784421" transform="translate(-216.73 -178.06)"/><path d="M404.78 680.06c0-16.37-9.44-26.44-9.44-26.44s3.77 13.85 3.14 26.44z" style="stroke-linejoin:round;fill-rule:evenodd;fill-opacity:.31373;stroke:#000;stroke-width:4;fill:#000" transform="translate(-216.73 -178.06)"/><path d="M298.74 487.34c24.5-37.9 20-128.73 20-128.73l60-3.27s-1.5 91.49 23.5 130.04" style="stroke-linejoin:round;fill-rule:evenodd;stroke:#000;stroke-linecap:round;stroke-width:4;fill:#fc0" transform="translate(-216.73 -178.06)"/><path d="M93.338 349.05a18.031 15.556 0 1 1-36.062 0 18.031 15.556 0 1 1 36.062 0" style="fill:#784421" transform="matrix(.58348 0 0 .95455 103.11 -116.81)"/><path d="m162 177.28-17.16.94-42.84 2.34s.24 4.86.31 12.56c13.16 8.26 26.42 13.07 35.72 13.07 3.33 0 7.11-.57 11.16-1.66 6.18 33.34 17.67 80.34 36.03 102.5l-1 .35 1.28-.04c-17.21-26.53-21.83-78.15-23.06-107.75-.14-3.35-.25-6.43-.32-9.15-.05-2.18-.07-4.1-.09-5.78-.02-1.36-.03-2.38-.03-3.38 0-1.55-.01-1.75 0-2.4z" style="fill-rule:evenodd;fill:#000;fill-opacity:.31373"/><path d="M351.27 208.57c-22.79 0-41.28 6.96-54.88 18.59-.57-.43-1.34-.81-2.34-1.25-55.51-10.61-74.61 25.09-75.31 30.75-.71 5.66 38.51 14.48 59.37-6.38.27-.27.46-.45.72-.71-6.17 12.02-9.41 25.97-9.41 40.84 0 45.17 56.13 81.84 81.85 81.84 26.71 0 81.84-36.67 81.84-81.84 0-15.04-3.46-29.14-9.94-41.25.41.41.71.7 1.13 1.12 20.86 20.86 60.08 12.04 59.37 6.38-.7-5.66-19.77-41.36-75.28-30.75-1.17.52-2.08.95-2.65 1.47-13.74-11.75-32.21-18.81-54.47-18.81" style="stroke-linejoin:round;stroke:#000;stroke-linecap:round;stroke-width:4;fill:#fc0" transform="translate(-216.73 -178.06)"/><path d="M347.64 278.41c.01 12.52-10.14 22.67-22.66 22.67s-22.67-10.15-22.66-22.67c-.01-12.52 10.14-22.67 22.66-22.67s22.67 10.15 22.66 22.67m52.74 0c0 12.52-10.15 22.67-22.67 22.67s-22.66-10.15-22.66-22.67 10.14-22.67 22.66-22.67 22.67 10.15 22.67 22.67" style="stroke-linejoin:round;stroke:#000;stroke-linecap:round;stroke-width:4;fill:#fff" transform="translate(-216.73 -178.06)"/><path d="M380.23 282.41c0 4.18-3.38 7.56-7.55 7.56-4.18 0-7.56-3.38-7.56-7.56 0-4.17 3.38-7.55 7.56-7.55a7.55 7.55 0 0 1 7.55 7.55m-42.03 0c0 4.18-3.38 7.56-7.55 7.56-4.18 0-7.56-3.38-7.56-7.56 0-4.17 3.38-7.55 7.56-7.55a7.55 7.55 0 0 1 7.55 7.55" style="fill:#000" transform="translate(-216.73 -178.06)"/><path d="M425.69 251.49c1.75 7.63 2.62 15.72 2.62 24.13 0 45.17-55.12 81.84-81.84 81.84-20.71 0-61.1-23.76-76.06-56.59 7.61 40.24 57.17 71.37 80.87 71.37 26.72 0 81.84-36.67 81.84-81.84 0-14.08-2.41-27.34-7.43-38.91" style="fill:#000;fill-opacity:.31373" transform="translate(-216.73 -178.06)"/><path d="M344.46 671.28c0 9.09-14.67 9.38-32.74 9.38s-32.73.69-32.73-9.38c0-17.72 14.66-32.1 32.73-32.1s32.74 14.38 32.74 32.1" style="stroke-linejoin:round;stroke:#000;stroke-linecap:round;stroke-width:4;fill:#784421" transform="translate(-216.73 -178.06)"/><path d="M299.13 680.06c0-16.37 9.44-26.44 9.44-26.44s-3.77 13.85-3.14 26.44z" style="stroke-linejoin:round;fill-rule:evenodd;fill-opacity:.31373;stroke:#000;stroke-width:4;fill:#000" transform="translate(-216.73 -178.06)"/><path d="M367.87 343.04c-2.29 3.98-6.5 5.84-9.4 4.17-2.89-1.67-3.38-6.25-1.09-10.22s6.5-5.84 9.4-4.17c2.89 1.68 3.38 6.25 1.09 10.22m-32.74 0c2.29 3.98 6.5 5.84 9.4 4.17 2.89-1.67 3.38-6.25 1.09-10.22s-6.5-5.84-9.4-4.17c-2.89 1.68-3.38 6.25-1.09 10.22" style="fill:#000" transform="translate(-216.73 -178.06)"/><path d="M317.52 224.48c5.65-10.25-6.01-22.62-6.01-22.62l17.32-4.25s-2.47 15.56 6.72 21.22" style="fill-rule:evenodd;stroke:#000;stroke-linecap:round;stroke-width:4;fill:#fc0" transform="translate(-216.73 -178.06)"/><path d="M82.378-127.96a15.38 15.38 0 1 1-30.759 0 15.38 15.38 0 1 1 30.759 0" style="stroke-linejoin:round;stroke:#000;stroke-linecap:round;stroke-width:4;fill:#784421" transform="translate(35.01 145.34)"/><path d="M418.59 232.5c35.78-4.57 52.52 16.97 53.83 20.23 1.32 3.26-35.12 10.11-53.83-20.23z" style="stroke-linejoin:round;fill-rule:evenodd;stroke:#000;stroke-width:4;fill:#d4aa00" transform="translate(-216.73 -178.06)"/><path d="M384.69 224.48c-5.65-10.25 6.01-22.62 6.01-22.62l-17.32-4.25s2.47 15.56-6.72 21.22" style="fill-rule:evenodd;stroke:#000;stroke-linecap:round;stroke-width:4;fill:#fc0" transform="translate(-216.73 -178.06)"/><path d="M82.378-127.96a15.38 15.38 0 1 1-30.759 0 15.38 15.38 0 1 1 30.759 0" style="stroke-linejoin:round;stroke:#000;stroke-linecap:round;stroke-width:4;fill:#784421" transform="translate(99.01 145.34)"/><path d="M93.338 349.05a18.031 15.556 0 1 1-36.062 0 18.031 15.556 0 1 1 36.062 0" style="fill:#784421" transform="matrix(.72367 .17743 -.32471 1.3244 113.99 -123.062)"/><path d="M93.338 349.05a18.031 15.556 0 1 1-36.062 0 18.031 15.556 0 1 1 36.062 0" style="fill:#784421" transform="matrix(1.3529 0 0 1.6591 15.14 -189.396)"/><path d="M93.338 349.05a18.031 15.556 0 1 1-36.062 0 18.031 15.556 0 1 1 36.062 0" style="fill:#784421" transform="matrix(.44644 -.14881 .30185 .90556 71.73 39.22)"/><path d="M93.338 349.05a18.031 15.556 0 1 1-36.062 0 18.031 15.556 0 1 1 36.062 0" style="fill:#784421" transform="matrix(.66667 0 0 .95455 142.35 79.19)"/><path d="M93.338 349.05a18.031 15.556 0 1 1-36.062 0 18.031 15.556 0 1 1 36.062 0" style="fill:#784421" transform="matrix(1.0588 0 0 1.3636 80.07 -142.484)"/><path d="M93.338 349.05a18.031 15.556 0 1 1-36.062 0 18.031 15.556 0 1 1 36.062 0" style="fill:#784421" transform="matrix(.72549 0 0 1.3636 62.39 -213.508)"/><path d="M283.46 232.5c-35.78-4.57-52.52 16.97-53.84 20.23-1.31 3.26 35.13 10.11 53.84-20.23z" style="stroke-linejoin:round;fill-rule:evenodd;stroke:#000;stroke-width:4;fill:#d4aa00" transform="translate(-216.73 -178.06)"/></svg>