<svg xmlns="http://www.w3.org/2000/svg" xml:space="preserve" version="1.0" viewBox="0 0 223.074 275.341"><path d="M221.07 147.27c.02 60.51-49.02 109.57-109.53 109.57C51.028 256.84 1.98 207.78 2 147.27 1.981 86.763 51.028 37.7 111.54 37.7c60.5.002 109.55 49.063 109.53 109.57" style="stroke-linejoin:round;stroke:#010101;stroke-width:4;stroke-linecap:round;fill:#939dac"/><path d="M220.65 156.86c-20.83 45.69-66.93 77.47-120.44 77.47-30.323 0-58.247-10.21-80.559-27.38 19.534 30.03 53.378 49.88 91.879 49.88 57.27 0 104.28-43.95 109.12-99.97" style="fill-opacity:.3137;fill:#010101"/><path d="M14.479 247.77c-.007 22.68 18.377 25.57 41.057 25.57s41.063-2.89 41.058-25.57c.006-22.68-19.15-35.2-41.058-41.07-34.08-9.13-41.063 18.39-41.057 41.07" style="stroke-linejoin:round;stroke:#010101;stroke-width:4;stroke-linecap:round;fill:#939dac"/><path d="M68.531 211.19c5.617 7.37 9.065 16.56 9.063 27.91.007 26.82-18.383 30.25-41.063 30.25-3.51 0-6.904-.11-10.156-.35 7.439 3.62 17.751 4.35 29.156 4.35 22.68 0 41.069-2.91 41.063-25.59.005-18.03-12.1-29.61-28.063-36.57" style="fill-opacity:.3137;fill:#010101"/><path d="M87.495 260.56c1.644 6.13-3.251 8.28-9.547 9.96-6.296 1.69-11.607 2.28-13.248-3.85-1.644-6.13 2.129-12.46 8.424-14.15 6.296-1.69 12.73 1.91 14.371 8.04m-41.441 6.64c-1.641 6.13-6.952 5.54-13.248 3.85-6.296-1.68-11.19-3.83-9.547-9.96 1.641-6.13 8.075-9.73 14.371-8.04 6.295 1.69 10.067 8.02 8.424 14.15" style="stroke-linejoin:round;stroke:#010101;stroke-width:4;stroke-linecap:round;fill:#fff"/><path d="M66.336 266.19c.002 6.34-5.281 7.15-11.8 7.15-6.518 0-11.801-.81-11.799-7.15-.002-6.35 5.281-11.49 11.799-11.49 6.519 0 11.802 5.15 11.8 11.49" style="stroke-linejoin:round;stroke:#010101;stroke-width:4;stroke-linecap:round;fill:#fff"/><path d="M208.59 247.77c.01 22.68-18.37 25.57-41.05 25.57s-41.07-2.89-41.06-25.57c-.01-22.68 19.15-35.2 41.06-41.07 34.08-9.13 41.06 18.39 41.05 41.07" style="stroke-linejoin:round;stroke:#010101;stroke-width:4;stroke-linecap:round;fill:#939dac"/><path d="M200.5 260.56c1.64 6.13-3.26 8.28-9.55 9.96-6.3 1.69-11.61 2.28-13.25-3.85s2.13-12.46 8.42-14.15c6.3-1.69 12.74 1.91 14.38 8.04m-41.45 6.64c-1.64 6.13-6.95 5.54-13.24 3.85-6.3-1.68-11.19-3.83-9.55-9.96s8.07-9.73 14.37-8.04c6.29 1.69 10.07 8.02 8.42 14.15" style="stroke-linejoin:round;stroke:#010101;stroke-width:4;stroke-linecap:round;fill:#fff"/><path d="M179.34 266.19c0 6.34-5.28 7.15-11.8 7.15s-11.8-.81-11.8-7.15c0-6.35 5.28-11.49 11.8-11.49s11.8 5.15 11.8 11.49" style="stroke-linejoin:round;stroke:#010101;stroke-width:4;stroke-linecap:round;fill:#fff"/><path d="M186.06 205.52c10.56 8.15 13.35 24.67 13.34 39.24.01 23.47-19.01 26.47-42.47 26.47-5.09 0-9.94-.16-14.47-.62 6.94 2.22 15.63 2.72 25.07 2.72 22.68 0 41.07-2.88 41.06-25.57 0-17.76-4.29-38.49-22.53-42.24m27.73-82.75c7 42-24.74 75.7-91.92 83.25-56.336 6.33-111.35-31.19-111.34-79C42.534 78.354 132.5 23.31 132.99 71.118c.21 20.57 56.8-29.597 80.8 51.652" style="fill-opacity:.3137;fill:#010101"/><path d="M192.9 91.985c-1.04-14.407-4.7-27.927-10.39-39.897 6.41-4.801 10.7-13.3 10.7-22.971C193.21 14.15 183 2 170.43 2c-8.13 0-15.24 5.104-19.27 12.733C139.14 6.639 125.27 2 110.49 2S81.863 6.643 69.852 14.733C65.82 7.104 58.712 2 50.583 2 38.007 2 27.795 14.15 27.795 29.117c0 9.684 4.276 18.174 10.701 22.971-5.691 11.97-9.348 25.491-10.387 39.899-10.487 11.033-16.604 24.283-16.604 38.533 0 38.39 44.323 69.5 98.995 69.5 54.68 0 99-31.11 99-69.5 0-14.25-6.11-27.5-16.6-38.535" style="stroke-linejoin:round;stroke:#010101;stroke-width:4;stroke-linecap:round;fill:#939dac"/><path d="M163.07 138.89c-3.86 7.97-10.95 11.71-15.82 8.35-4.88-3.35-5.7-12.52-1.84-20.48s10.95-11.7 15.82-8.35c4.88 3.36 5.7 12.53 1.84 20.48m-105.129 0c3.86 7.97 10.948 11.71 15.825 8.35 4.876-3.35 5.7-12.52 1.835-20.48-3.858-7.96-10.946-11.7-15.823-8.35-4.878 3.36-5.7 12.53-1.837 20.48" style="fill:#010101"/><path d="M169.67 14.799c-4.57 0-8.57 2.865-10.84 7.147 6.99 5.602 13 12.755 17.71 21.075 3.58-2.712 5.98-7.503 5.98-12.931 0-8.438-5.76-15.291-12.85-15.291m-120.177 0c4.57 0 8.562 2.865 10.839 7.147-6.989 5.602-13.007 12.755-17.71 21.075-3.588-2.712-5.979-7.503-5.979-12.931 0-8.438 5.759-15.291 12.85-15.291" style="stroke-linejoin:round;stroke:#010101;stroke-width:4;stroke-linecap:round;fill:#e6e6e6"/><path d="M156.54 73.801c0 12.519-10.15 22.669-22.66 22.669-12.52 0-22.67-10.15-22.67-22.669s10.15-22.669 22.67-22.669c12.51 0 22.66 10.15 22.66 22.669" style="stroke-linejoin:round;stroke:#010101;stroke-width:4;stroke-linecap:round;fill:#fff"/><path d="M136.39 77.801c0 4.173-3.38 7.557-7.55 7.557-4.18 0-7.56-3.384-7.56-7.557s3.38-7.557 7.56-7.557c4.17 0 7.55 3.384 7.55 7.557" style="fill:#010101"/><path d="M103.8 73.801c.01 12.519-10.14 22.669-22.658 22.669S58.476 86.32 58.479 73.801c-.003-12.519 10.145-22.669 22.663-22.669s22.668 10.15 22.658 22.669" style="stroke-linejoin:round;stroke:#010101;stroke-width:4;stroke-linecap:round;fill:#fff"/><path d="M94.362 77.801a7.555 7.555 0 1 1-15.109 0 7.555 7.555 0 1 1 15.109 0" style="fill:#010101"/><path d="M207.54 117.02c-4.93 47.58-28.33 65.37-82 71.33-24 2.67-39.335 5.34-83.669-7 40.667 21.34 47 16.67 78.999 17.67 24.5.77 64-10.33 83.67-45.67 11-27 3.98-31.11 3-36.33" style="fill-opacity:.3137;fill:#010101"/><path d="M127.42 177.26c6.81-1.1 15.26-5.86 18.73-9.96 3.56-4.21 5.64 14.97 4.55 17.6-1 2.41-9.4 6.64-11.86 6.31-2.64-.36-17.79-12.92-11.42-13.95z" style="stroke-linejoin:round;stroke:#010101;stroke-width:4;fill:#fff"/></svg>