<?xml version="1.0" encoding="utf-8"?>
<!-- Generator: Adobe Illustrator 17.0.0, SVG Export Plug-In . SVG Version: 6.00 Build 0)  -->
<!DOCTYPE svg PUBLIC "-//W3C//DTD SVG 1.0//EN" "http://www.w3.org/TR/2001/REC-SVG-20010904/DTD/svg10.dtd">
<svg version="1.0" id="Capa_1" xmlns="http://www.w3.org/2000/svg" xmlns:xlink="http://www.w3.org/1999/xlink" x="0px" y="0px"
	 width="1400px" height="980px" viewBox="0 0 1400 980" enable-background="new 0 0 1400 980" xml:space="preserve">
<g>
	<defs>
		<rect id="SVGID_1_" width="1400" height="980"/>
	</defs>
	<clipPath id="SVGID_2_">
		<use xlink:href="#SVGID_1_"  overflow="visible"/>
	</clipPath>
	<linearGradient id="SVGID_3_" gradientUnits="userSpaceOnUse" x1="700" y1="-42" x2="700" y2="675.0342">
		<stop  offset="0" style="stop-color:#83EFFF"/>
		<stop  offset="0.2331" style="stop-color:#8CF1FB"/>
		<stop  offset="0.62" style="stop-color:#A6F7F0"/>
		<stop  offset="1" style="stop-color:#C5FFE3"/>
	</linearGradient>
	<rect clip-path="url(#SVGID_2_)" fill="url(#SVGID_3_)" width="1400" height="980"/>
	<linearGradient id="SVGID_4_" gradientUnits="userSpaceOnUse" x1="-18.4574" y1="261.6907" x2="1243.1042" y2="261.6907">
		<stop  offset="0" style="stop-color:#83EFFF"/>
		<stop  offset="0.2331" style="stop-color:#8CF1FB"/>
		<stop  offset="0.62" style="stop-color:#A6F7F0"/>
		<stop  offset="1" style="stop-color:#C5FFE3"/>
	</linearGradient>
	<path clip-path="url(#SVGID_2_)" fill="url(#SVGID_4_)" d="M0,0c0,0,921.1,37,667,123s158-34,508,0S425,205,165,377
		s227-71.8,270.5-13.9s-65.3,103.6,5.2,101.4s-27,83.2-126.9-15.5S65,531.2,9,523.1S0,0,0,0z"/>
	<path clip-path="url(#SVGID_2_)" fill="#CEDCF6" d="M-60.4,647.5c0,0,67-128.3,246.5-158.6c179.5-30.3,199,59.8,273.2,34.2
		c74.3-25.5,54.8-167,119.3-176.5s257.2,155.2,353,131.1c95.8-24.1,382.5-162.9,425.5-109s34.5,149.9,142.5,129.6
		c108-20.2-40.5,208.8-40.5,208.8"/>
	<g clip-path="url(#SVGID_2_)">
		<g>
			<path fill="#64891F" d="M185.6,580.9c1.6-1.3,2.4-2.7,2.3-4.2c0.3-1.1,0-1.8-0.6-2.3c-0.7-1.5-2-3.2-3.9-5.2
				c-0.3-0.3-0.5-0.5-0.7-0.7c2.3-6.6-4.6-9.3-10.5-5.5c-6.1,3.9,2.2,8.8,2.2,8.8l0,1.6c0,0-0.1,0.1-0.1,0.1c-3.8,3.3-1.4,4.9,0,7.2
				l-0.1,5.3c-0.9,1.7-0.9,2.9-0.5,3.8c0.5,1.8,2.5,3.1,5.3,3.4l1.1,11.2l4.3-1.1l-0.8-10.4c1.2-0.3,2.5-0.7,3.8-1.4
				C195.2,587.7,186.3,581.3,185.6,580.9z"/>
			<path fill="#64891F" d="M209.4,579.4c1.6-1.3,2.4-2.7,2.3-4.2c0.3-1.1,0-1.8-0.6-2.3c-0.7-1.5-2-3.2-3.9-5.2
				c-0.3-0.3-0.5-0.5-0.7-0.7c2.3-6.6-4.6-9.3-10.5-5.5c-6.1,3.9,2.2,8.8,2.2,8.8l0,1.6c0,0-0.1,0.1-0.1,0.1c-3.8,3.3-1.4,4.9,0,7.2
				l-0.1,5.3c-0.9,1.7-0.9,2.9-0.5,3.8c0.5,1.8,2.5,3.1,5.3,3.4l1.1,11.2l4.3-1.1l-0.8-10.4c1.2-0.3,2.5-0.7,3.8-1.4
				C219,586.2,210.1,579.9,209.4,579.4z"/>
			<path fill="#64891F" d="M233.2,578c1.6-1.3,2.4-2.7,2.3-4.2c0.3-1.1,0-1.8-0.6-2.3c-0.7-1.5-2-3.2-3.9-5.2
				c-0.3-0.3-0.5-0.5-0.7-0.7c2.3-6.6-4.6-9.3-10.5-5.5c-6.1,3.9,2.2,8.8,2.2,8.8l0,1.6c0,0-0.1,0.1-0.1,0.1c-3.8,3.3-1.4,4.9,0,7.2
				l-0.1,5.3c-0.9,1.7-0.9,2.9-0.5,3.8c0.5,1.8,2.5,3.1,5.3,3.4l1.1,11.2l4.3-1.1l-0.8-10.4c1.2-0.3,2.5-0.7,3.8-1.4
				C242.8,584.8,233.9,578.5,233.2,578z"/>
			<path fill="#64891F" d="M257,576.6c1.6-1.3,2.4-2.7,2.3-4.2c0.3-1.1,0-1.8-0.6-2.3c-0.7-1.5-2-3.2-3.9-5.2
				c-0.3-0.3-0.5-0.5-0.7-0.7c2.3-6.6-4.6-9.3-10.5-5.5c-6.1,3.9,2.2,8.8,2.2,8.8l0,1.6c0,0-0.1,0.1-0.1,0.1c-3.8,3.3-1.4,4.9,0,7.2
				l-0.1,5.3c-0.9,1.7-0.9,2.9-0.5,3.8c0.5,1.8,2.5,3.1,5.3,3.4l1.1,11.2l4.3-1.1l-0.8-10.4c1.2-0.3,2.5-0.7,3.8-1.4
				C266.6,583.4,257.7,577,257,576.6z"/>
			<path fill="#64891F" d="M280.8,575.1c1.6-1.3,2.4-2.7,2.3-4.2c0.3-1.1,0-1.8-0.6-2.3c-0.7-1.5-2-3.2-3.9-5.2
				c-0.3-0.3-0.5-0.5-0.7-0.7c2.3-6.6-4.6-9.3-10.5-5.5c-6.1,3.9,2.2,8.8,2.2,8.8l0,1.6c0,0-0.1,0.1-0.1,0.1c-3.8,3.3-1.4,4.9,0,7.2
				l-0.1,5.3c-0.9,1.7-0.9,2.9-0.5,3.8c0.5,1.8,2.5,3.1,5.3,3.4l1.1,11.2l4.3-1.1l-0.8-10.4c1.2-0.3,2.5-0.7,3.8-1.4
				C290.4,581.9,281.5,575.6,280.8,575.1z"/>
			<path fill="#64891F" d="M304.6,573.7c1.6-1.3,2.4-2.7,2.3-4.2c0.3-1.1,0-1.8-0.6-2.3c-0.7-1.5-2-3.2-3.9-5.2
				c-0.3-0.3-0.5-0.5-0.7-0.7c2.3-6.6-4.6-9.3-10.5-5.5c-6.1,3.9,2.2,8.8,2.2,8.8l0,1.6c0,0-0.1,0.1-0.1,0.1c-3.8,3.3-1.4,4.9,0,7.2
				l-0.1,5.3c-0.9,1.7-0.9,2.9-0.5,3.8c0.5,1.8,2.5,3.1,5.3,3.4l1.1,11.2l4.3-1.1l-0.8-10.4c1.2-0.3,2.5-0.7,3.8-1.4
				C314.2,580.5,305.3,574.2,304.6,573.7z"/>
		</g>
	</g>
	<g clip-path="url(#SVGID_2_)">
		<path fill="#6D9B2D" d="M191.9,578.1c1.7-1.4,2.5-2.9,2.5-4.6c0.3-1.2,0-2-0.7-2.5c-0.7-1.6-2.1-3.4-4.2-5.5
			c-0.3-0.3-0.5-0.5-0.8-0.8c2.4-7.1-4.9-10-11.3-5.9c-6.5,4.2,2.3,9.5,2.3,9.5l0,1.8c0,0-0.1,0.1-0.1,0.1c-4.1,3.6-1.5,5.3,0,7.7
			l-0.1,5.7c-0.9,1.8-0.9,3.1-0.5,4.1c0.6,1.9,2.7,3.3,5.6,3.7l1.2,12l4.6-1.2l-0.8-11.1c1.3-0.3,2.7-0.8,4-1.5
			C202.1,585.4,192.6,578.6,191.9,578.1z"/>
		<path fill="#6D9B2D" d="M217.4,576.6c1.7-1.4,2.5-2.9,2.5-4.6c0.3-1.2,0-2-0.7-2.5c-0.7-1.6-2.1-3.4-4.2-5.5
			c-0.3-0.3-0.5-0.5-0.8-0.8c2.4-7.1-4.9-10-11.3-5.9c-6.5,4.2,2.3,9.5,2.3,9.5l0,1.8c0,0-0.1,0.1-0.1,0.1c-4.1,3.6-1.5,5.3,0,7.7
			l-0.1,5.7c-0.9,1.8-0.9,3.1-0.5,4.1c0.6,1.9,2.7,3.3,5.6,3.7l1.2,12l4.6-1.2l-0.8-11.1c1.3-0.3,2.7-0.8,4-1.5
			C227.7,583.9,218.1,577.1,217.4,576.6z"/>
		<path fill="#6D9B2D" d="M243,575.1c1.7-1.4,2.5-2.9,2.5-4.6c0.3-1.2,0-2-0.7-2.5c-0.7-1.6-2.1-3.4-4.2-5.5
			c-0.3-0.3-0.5-0.5-0.8-0.8c2.4-7.1-4.9-10-11.3-5.9c-6.5,4.2,2.3,9.5,2.3,9.5l0,1.8c0,0-0.1,0.1-0.1,0.1c-4.1,3.6-1.5,5.3,0,7.7
			l-0.1,5.7c-0.9,1.8-0.9,3.1-0.5,4.1c0.6,1.9,2.7,3.3,5.6,3.7l1.2,12l4.6-1.2l-0.8-11.1c1.3-0.3,2.7-0.8,4-1.5
			C253.2,582.4,243.7,575.5,243,575.1z"/>
		<path fill="#6D9B2D" d="M268.5,573.5c1.7-1.4,2.5-2.9,2.5-4.6c0.3-1.2,0-2-0.7-2.5c-0.7-1.6-2.1-3.4-4.2-5.5
			c-0.3-0.3-0.5-0.5-0.8-0.8c2.4-7.1-4.9-10-11.3-5.9c-6.5,4.2,2.3,9.5,2.3,9.5l0,1.8c0,0-0.1,0.1-0.1,0.1c-4.1,3.6-1.5,5.3,0,7.7
			l-0.1,5.7c-0.9,1.8-0.9,3.1-0.5,4.1c0.6,1.9,2.7,3.3,5.6,3.7l1.2,12l4.6-1.2l-0.8-11.1c1.3-0.3,2.7-0.8,4-1.5
			C278.8,580.8,269.2,574,268.5,573.5z"/>
		<path fill="#6D9B2D" d="M294.1,572c1.7-1.4,2.5-2.9,2.5-4.6c0.3-1.2,0-2-0.7-2.5c-0.7-1.6-2.1-3.4-4.2-5.5
			c-0.3-0.3-0.5-0.5-0.8-0.8c2.4-7.1-4.9-10-11.3-5.9c-6.5,4.2,2.3,9.5,2.3,9.5l0,1.8c0,0-0.1,0.1-0.1,0.1c-4.1,3.6-1.5,5.3,0,7.7
			l-0.1,5.7c-0.9,1.8-0.9,3.1-0.5,4.1c0.6,1.9,2.7,3.3,5.6,3.7l1.2,12l4.6-1.2l-0.8-11.1c1.3-0.3,2.7-0.8,4-1.5
			C304.3,579.3,294.8,572.5,294.1,572z"/>
		<path fill="#6D9B2D" d="M319.6,570.5c1.7-1.4,2.5-2.9,2.5-4.6c0.3-1.2,0-2-0.7-2.5c-0.7-1.6-2.1-3.4-4.2-5.5
			c-0.3-0.3-0.5-0.5-0.8-0.8c2.4-7.1-4.9-10-11.3-5.9c-6.5,4.2,2.3,9.5,2.3,9.5l0,1.8c0,0-0.1,0.1-0.1,0.1c-4.1,3.6-1.5,5.3,0,7.7
			l-0.1,5.7c-0.9,1.8-0.9,3.1-0.5,4.1c0.6,1.9,2.7,3.3,5.6,3.7l1.2,12l4.6-1.2l-0.8-11.1c1.3-0.3,2.7-0.8,4-1.5
			C329.9,577.8,320.3,571,319.6,570.5z"/>
	</g>
	<g clip-path="url(#SVGID_2_)">
		<g>
			<path fill="#64891F" d="M335.9,570c1.7-1.2,2.6-2.4,2.7-4c0.4-1.1,0.1-1.8-0.4-2.4c-0.6-1.6-1.7-3.4-3.4-5.5
				c-0.2-0.3-0.5-0.5-0.7-0.8c2.8-6.4-3.7-9.7-10-6.4c-6.4,3.3,1.4,9,1.4,9l-0.2,1.6c0,0-0.1,0.1-0.1,0.1c-4.1,3-1.8,4.8-0.7,7.2
				l-0.6,5.3c-1,1.6-1.1,2.8-0.8,3.7c0.4,1.8,2.3,3.3,4.9,3.9l0.1,11.2l4.4-0.7l0.2-10.4c1.2-0.2,2.5-0.5,3.9-1
				C344.8,577.7,336.5,570.6,335.9,570z"/>
			<path fill="#64891F" d="M359.7,570.8c1.7-1.2,2.6-2.4,2.7-4c0.4-1.1,0.1-1.8-0.4-2.4c-0.6-1.6-1.7-3.4-3.4-5.5
				c-0.2-0.3-0.5-0.5-0.7-0.8c2.8-6.4-3.7-9.7-10-6.4c-6.4,3.3,1.4,9,1.4,9l-0.2,1.6c0,0-0.1,0.1-0.1,0.1c-4.1,3-1.8,4.8-0.7,7.2
				l-0.6,5.3c-1,1.6-1.1,2.8-0.8,3.7c0.4,1.8,2.3,3.3,4.9,3.9l0.1,11.2l4.4-0.7l0.2-10.4c1.2-0.2,2.5-0.5,3.9-1
				C368.6,578.4,360.3,571.3,359.7,570.8z"/>
			<path fill="#64891F" d="M383.5,571.5c1.7-1.2,2.6-2.4,2.7-4c0.4-1.1,0.1-1.8-0.4-2.4c-0.6-1.6-1.7-3.4-3.4-5.5
				c-0.2-0.3-0.5-0.5-0.7-0.8c2.8-6.4-3.7-9.7-10-6.4c-6.4,3.3,1.4,9,1.4,9L373,563c0,0-0.1,0.1-0.1,0.1c-4.1,3-1.8,4.8-0.7,7.2
				l-0.6,5.3c-1,1.6-1.1,2.8-0.8,3.7c0.4,1.8,2.3,3.3,4.9,3.9l0.1,11.2l4.4-0.7l0.2-10.4c1.2-0.2,2.5-0.5,3.9-1
				C392.4,579.1,384.2,572,383.5,571.5z"/>
			<path fill="#64891F" d="M407.4,572.2c1.7-1.2,2.6-2.4,2.7-4c0.4-1.1,0.1-1.8-0.4-2.4c-0.6-1.6-1.7-3.4-3.4-5.5
				c-0.2-0.3-0.5-0.5-0.7-0.8c2.8-6.4-3.7-9.7-10-6.4c-6.4,3.3,1.4,9,1.4,9l-0.2,1.6c0,0-0.1,0.1-0.1,0.1c-4.1,3-1.8,4.8-0.7,7.2
				l-0.6,5.3c-1,1.6-1.1,2.8-0.8,3.7c0.4,1.8,2.3,3.3,4.9,3.9l0.1,11.2l4.4-0.7l0.2-10.4c1.2-0.2,2.5-0.5,3.9-1
				C416.3,579.9,408,572.8,407.4,572.2z"/>
			<path fill="#64891F" d="M431.2,573c1.7-1.2,2.6-2.4,2.7-4c0.4-1.1,0.1-1.8-0.4-2.4c-0.6-1.6-1.7-3.4-3.4-5.5
				c-0.2-0.3-0.5-0.5-0.7-0.8c2.8-6.4-3.7-9.7-10-6.4c-6.4,3.3,1.4,9,1.4,9l-0.2,1.6c0,0-0.1,0.1-0.1,0.1c-4.1,3-1.8,4.8-0.7,7.2
				l-0.6,5.3c-1,1.6-1.1,2.8-0.8,3.7c0.4,1.8,2.3,3.3,4.9,3.9l0.1,11.2l4.4-0.7l0.2-10.4c1.2-0.2,2.5-0.5,3.9-1
				C440.1,580.6,431.8,573.5,431.2,573z"/>
			<path fill="#64891F" d="M455,573.7c1.7-1.2,2.6-2.4,2.7-4c0.4-1.1,0.1-1.8-0.4-2.4c-0.6-1.6-1.7-3.4-3.4-5.5
				c-0.2-0.3-0.5-0.5-0.7-0.8c2.8-6.4-3.7-9.7-10-6.4c-6.4,3.3,1.4,9,1.4,9l-0.2,1.6c0,0-0.1,0.1-0.1,0.1c-4.1,3-1.8,4.8-0.7,7.2
				l-0.6,5.3c-1,1.6-1.1,2.8-0.8,3.7c0.4,1.8,2.3,3.3,4.9,3.9l0.1,11.2l4.4-0.7l0.2-10.4c1.2-0.2,2.5-0.5,3.9-1
				C463.9,581.3,455.7,574.2,455,573.7z"/>
		</g>
	</g>
	<g clip-path="url(#SVGID_2_)">
		<path fill="#6D9B2D" d="M342.3,567.9c1.8-1.2,2.8-2.6,2.9-4.3c0.4-1.2,0.1-2-0.4-2.6c-0.6-1.7-1.8-3.6-3.7-5.9
			c-0.3-0.3-0.5-0.6-0.7-0.8c3.1-6.8-4-10.4-10.7-6.9c-6.8,3.6,1.5,9.7,1.5,9.7l-0.2,1.7c0,0-0.1,0.1-0.1,0.1
			c-4.4,3.2-2,5.1-0.7,7.7l-0.6,5.7c-1.1,1.7-1.2,3-0.9,4c0.4,2,2.4,3.5,5.3,4.2l0.1,12.1l4.7-0.7l0.2-11.2c1.3-0.2,2.7-0.5,4.1-1.1
			C351.9,576.1,343,568.4,342.3,567.9z"/>
		<path fill="#6D9B2D" d="M367.9,568.7c1.8-1.2,2.8-2.6,2.9-4.3c0.4-1.2,0.1-2-0.4-2.6c-0.6-1.7-1.8-3.6-3.7-5.9
			c-0.3-0.3-0.5-0.6-0.7-0.8c3.1-6.8-4-10.4-10.7-6.9c-6.8,3.6,1.5,9.7,1.5,9.7l-0.2,1.7c0,0-0.1,0.1-0.1,0.1
			c-4.4,3.2-2,5.1-0.7,7.7l-0.6,5.7c-1.1,1.7-1.2,3-0.9,4c0.4,2,2.4,3.5,5.3,4.2l0.1,12.1l4.7-0.7l0.2-11.2c1.3-0.2,2.7-0.5,4.1-1.1
			C377.5,576.9,368.6,569.2,367.9,568.7z"/>
		<path fill="#6D9B2D" d="M393.5,569.4c1.8-1.2,2.8-2.6,2.9-4.3c0.4-1.2,0.1-2-0.4-2.6c-0.6-1.7-1.8-3.6-3.7-5.9
			c-0.3-0.3-0.5-0.6-0.7-0.8c3.1-6.8-4-10.4-10.7-6.9c-6.8,3.6,1.5,9.7,1.5,9.7l-0.2,1.7c0,0-0.1,0.1-0.1,0.1
			c-4.4,3.2-2,5.1-0.7,7.7l-0.6,5.7c-1.1,1.7-1.2,3-0.9,4c0.4,2,2.4,3.5,5.3,4.2l0.1,12.1l4.7-0.7l0.2-11.2c1.3-0.2,2.7-0.5,4.1-1.1
			C403,577.6,394.2,570,393.5,569.4z"/>
		<path fill="#6D9B2D" d="M419.1,570.2c1.8-1.2,2.8-2.6,2.9-4.3c0.4-1.2,0.1-2-0.4-2.6c-0.6-1.7-1.8-3.6-3.7-5.9
			c-0.3-0.3-0.5-0.6-0.7-0.8c3.1-6.8-4-10.4-10.7-6.9c-6.8,3.6,1.5,9.7,1.5,9.7l-0.2,1.7c0,0-0.1,0.1-0.1,0.1
			c-4.4,3.2-2,5.1-0.7,7.7l-0.6,5.7c-1.1,1.7-1.2,3-0.9,4c0.4,2,2.4,3.5,5.3,4.2l0.1,12.1l4.7-0.7l0.2-11.2c1.3-0.2,2.7-0.5,4.1-1.1
			C428.6,578.4,419.7,570.8,419.1,570.2z"/>
		<path fill="#6D9B2D" d="M444.6,571c1.8-1.2,2.8-2.6,2.9-4.3c0.4-1.2,0.1-2-0.4-2.6c-0.6-1.7-1.8-3.6-3.7-5.9
			c-0.3-0.3-0.5-0.6-0.7-0.8c3.1-6.8-4-10.4-10.7-6.9c-6.8,3.6,1.5,9.7,1.5,9.7l-0.2,1.7c0,0-0.1,0.1-0.1,0.1
			c-4.4,3.2-2,5.1-0.7,7.7l-0.6,5.7c-1.1,1.7-1.2,3-0.9,4c0.4,2,2.4,3.5,5.3,4.2l0.1,12.1l4.7-0.7l0.2-11.2c1.3-0.2,2.7-0.5,4.1-1.1
			C454.2,579.2,445.3,571.6,444.6,571z"/>
		<path fill="#6D9B2D" d="M470.2,571.8c1.8-1.2,2.8-2.6,2.9-4.3c0.4-1.2,0.1-2-0.4-2.6c-0.6-1.7-1.8-3.6-3.7-5.9
			c-0.3-0.3-0.5-0.6-0.7-0.8c3.1-6.8-4-10.4-10.7-6.9c-6.8,3.6,1.5,9.7,1.5,9.7l-0.2,1.7c0,0-0.1,0.1-0.1,0.1
			c-4.4,3.2-2,5.1-0.7,7.7l-0.6,5.7c-1.1,1.7-1.2,3-0.9,4c0.4,2,2.4,3.5,5.3,4.2l0.1,12.1l4.7-0.7l0.2-11.2c1.3-0.2,2.7-0.5,4.1-1.1
			C479.8,580,470.9,572.4,470.2,571.8z"/>
	</g>
	<g clip-path="url(#SVGID_2_)">
		<g>
			<path fill="#64891F" d="M39,603.9c1.4-1.5,2.1-2.9,1.9-4.5c0.1-1.1-0.2-1.8-0.8-2.3c-0.8-1.4-2.3-3-4.4-4.7
				c-0.3-0.2-0.5-0.4-0.8-0.6c1.5-6.8-5.5-8.8-11-4.3c-5.6,4.5,3.1,8.6,3.1,8.6l0.1,1.6c0,0-0.1,0.1-0.1,0.1c-3.4,3.7-0.9,5,0.7,7.2
				l0.5,5.3c-0.7,1.8-0.6,3-0.1,3.8c0.7,1.7,2.9,2.8,5.6,2.9l2.3,11l4.2-1.5l-1.9-10.2c1.2-0.4,2.4-1,3.6-1.8
				C49.3,609.7,39.8,604.3,39,603.9z"/>
			<path fill="#64891F" d="M62.6,600c1.4-1.5,2.1-2.9,1.9-4.5c0.1-1.1-0.2-1.8-0.8-2.3c-0.8-1.4-2.3-3-4.4-4.7
				c-0.3-0.2-0.5-0.4-0.8-0.6c1.5-6.8-5.5-8.8-11-4.3c-5.6,4.5,3.1,8.6,3.1,8.6l0.1,1.6c0,0-0.1,0.1-0.1,0.1c-3.4,3.7-0.9,5,0.7,7.2
				l0.5,5.3c-0.7,1.8-0.6,3-0.1,3.8c0.7,1.7,2.9,2.8,5.6,2.9l2.3,11l4.2-1.5l-1.9-10.2c1.2-0.4,2.4-1,3.6-1.8
				C72.8,605.8,63.3,600.4,62.6,600z"/>
			<path fill="#64891F" d="M86.1,596.1c1.4-1.5,2.1-2.9,1.9-4.5c0.1-1.1-0.2-1.8-0.8-2.3c-0.8-1.4-2.3-3-4.4-4.7
				c-0.3-0.2-0.5-0.4-0.8-0.6c1.5-6.8-5.5-8.8-11-4.3c-5.6,4.5,3.1,8.6,3.1,8.6l0.1,1.6c0,0-0.1,0.1-0.1,0.1c-3.4,3.7-0.9,5,0.7,7.2
				l0.5,5.3c-0.7,1.8-0.6,3-0.1,3.8c0.7,1.7,2.9,2.8,5.6,2.9l2.3,11l4.2-1.5l-1.9-10.2c1.2-0.4,2.4-1,3.6-1.8
				C96.3,601.8,86.8,596.5,86.1,596.1z"/>
			<path fill="#64891F" d="M109.6,592.1c1.4-1.5,2.1-2.9,1.9-4.5c0.1-1.1-0.2-1.8-0.8-2.3c-0.8-1.4-2.3-3-4.4-4.7
				c-0.3-0.2-0.5-0.4-0.8-0.6c1.5-6.8-5.5-8.8-11-4.3c-5.6,4.5,3.1,8.6,3.1,8.6l0.1,1.6c0,0-0.1,0.1-0.1,0.1c-3.4,3.7-0.9,5,0.7,7.2
				l0.5,5.3c-0.7,1.8-0.6,3-0.1,3.8c0.7,1.7,2.9,2.8,5.6,2.9l2.3,11l4.2-1.5l-1.9-10.2c1.2-0.4,2.4-1,3.6-1.8
				C119.8,597.9,110.3,592.5,109.6,592.1z"/>
			<path fill="#64891F" d="M133.1,588.2c1.4-1.5,2.1-2.9,1.9-4.5c0.1-1.1-0.2-1.8-0.8-2.3c-0.8-1.4-2.3-3-4.4-4.7
				c-0.3-0.2-0.5-0.4-0.8-0.6c1.5-6.8-5.5-8.8-11-4.3c-5.6,4.5,3.1,8.6,3.1,8.6l0.1,1.6c0,0-0.1,0.1-0.1,0.1c-3.4,3.7-0.9,5,0.7,7.2
				l0.5,5.3c-0.7,1.8-0.6,3-0.1,3.8c0.7,1.7,2.9,2.8,5.6,2.9l2.3,11l4.2-1.5l-1.9-10.2c1.2-0.4,2.4-1,3.6-1.8
				C143.3,594,133.8,588.6,133.1,588.2z"/>
			<path fill="#64891F" d="M156.6,584.3c1.4-1.5,2.1-2.9,1.9-4.5c0.1-1.1-0.2-1.8-0.8-2.3c-0.8-1.4-2.3-3-4.4-4.7
				c-0.3-0.2-0.5-0.4-0.8-0.6c1.5-6.8-5.5-8.8-11-4.3c-5.6,4.5,3.1,8.6,3.1,8.6l0.1,1.6c0,0-0.1,0.1-0.1,0.1c-3.4,3.7-0.9,5,0.7,7.2
				l0.5,5.3c-0.7,1.8-0.6,3-0.1,3.8c0.7,1.7,2.9,2.8,5.6,2.9l2.3,11l4.2-1.5l-1.9-10.2c1.2-0.4,2.4-1,3.6-1.8
				C166.9,590.1,157.3,584.7,156.6,584.3z"/>
		</g>
	</g>
	<g clip-path="url(#SVGID_2_)">
		<path fill="#6D9B2D" d="M45,600.5c1.5-1.6,2.2-3.1,2-4.8c0.2-1.2-0.2-1.9-0.9-2.4c-0.9-1.5-2.5-3.2-4.8-5.1
			c-0.3-0.3-0.6-0.5-0.9-0.7c1.7-7.3-5.9-9.4-11.9-4.6c-6,4.8,3.3,9.2,3.3,9.2l0.2,1.8c0,0-0.1,0.1-0.1,0.1c-3.7,4-0.9,5.4,0.8,7.7
			l0.5,5.7c-0.7,1.9-0.6,3.2-0.1,4.1c0.8,1.9,3.1,3,6,3.1l2.5,11.8l4.5-1.6l-2-11c1.3-0.4,2.6-1.1,3.9-1.9
			C55.9,606.7,45.7,601,45,600.5z"/>
		<path fill="#6D9B2D" d="M70.2,596.3c1.5-1.6,2.2-3.1,2-4.8c0.2-1.2-0.2-1.9-0.9-2.4c-0.9-1.5-2.5-3.2-4.8-5.1
			c-0.3-0.3-0.6-0.5-0.9-0.7c1.7-7.3-5.9-9.4-11.9-4.6c-6,4.8,3.3,9.2,3.3,9.2l0.2,1.8c0,0-0.1,0.1-0.1,0.1c-3.7,4-0.9,5.4,0.8,7.7
			l0.5,5.7c-0.7,1.9-0.6,3.2-0.1,4.1c0.8,1.9,3.1,3,6,3.1l2.5,11.8l4.5-1.6l-2-11c1.3-0.4,2.6-1.1,3.9-1.9
			C81.2,602.5,71,596.7,70.2,596.3z"/>
		<path fill="#6D9B2D" d="M95.4,592.1c1.5-1.6,2.2-3.1,2-4.8c0.2-1.2-0.2-1.9-0.9-2.4c-0.9-1.5-2.5-3.2-4.8-5.1
			c-0.3-0.3-0.6-0.5-0.9-0.7c1.7-7.3-5.9-9.4-11.9-4.6c-6,4.8,3.3,9.2,3.3,9.2l0.2,1.8c0,0-0.1,0.1-0.1,0.1c-3.7,4-0.9,5.4,0.8,7.7
			l0.5,5.7c-0.7,1.9-0.6,3.2-0.1,4.1c0.8,1.9,3.1,3,6,3.1l2.5,11.8l4.5-1.6l-2-11c1.3-0.4,2.6-1.1,3.9-1.9
			C106.4,598.3,96.2,592.5,95.4,592.1z"/>
		<path fill="#6D9B2D" d="M120.7,587.9c1.5-1.6,2.2-3.1,2-4.8c0.2-1.2-0.2-1.9-0.9-2.4c-0.9-1.5-2.5-3.2-4.8-5.1
			c-0.3-0.3-0.6-0.5-0.9-0.7c1.7-7.3-5.9-9.4-11.9-4.6c-6,4.8,3.3,9.2,3.3,9.2l0.2,1.8c0,0-0.1,0.1-0.1,0.1c-3.7,4-0.9,5.4,0.8,7.7
			l0.5,5.7c-0.7,1.9-0.6,3.2-0.1,4.1c0.8,1.9,3.1,3,6,3.1l2.5,11.8l4.5-1.6l-2-11c1.3-0.4,2.6-1.1,3.9-1.9
			C131.7,594.1,121.5,588.3,120.7,587.9z"/>
		<path fill="#6D9B2D" d="M145.9,583.7c1.5-1.6,2.2-3.1,2-4.8c0.2-1.2-0.2-1.9-0.9-2.4c-0.9-1.5-2.5-3.2-4.8-5.1
			c-0.3-0.3-0.6-0.5-0.9-0.7c1.7-7.3-5.9-9.4-11.9-4.6c-6,4.8,3.3,9.2,3.3,9.2l0.2,1.8c0,0-0.1,0.1-0.1,0.1c-3.7,4-0.9,5.4,0.8,7.7
			l0.5,5.7c-0.7,1.9-0.6,3.2-0.1,4.1c0.8,1.9,3.1,3,6,3.1l2.5,11.8l4.5-1.6l-2-11c1.3-0.4,2.6-1.1,3.9-1.9
			C156.9,589.9,146.7,584.1,145.9,583.7z"/>
		<path fill="#6D9B2D" d="M171.2,579.5c1.5-1.6,2.2-3.1,2-4.8c0.2-1.2-0.2-1.9-0.9-2.4c-0.9-1.5-2.5-3.2-4.8-5.1
			c-0.3-0.3-0.6-0.5-0.9-0.7c1.7-7.3-5.9-9.4-11.9-4.6c-6,4.8,3.3,9.2,3.3,9.2l0.2,1.8c0,0-0.1,0.1-0.1,0.1c-3.7,4-0.9,5.4,0.8,7.7
			l0.5,5.7c-0.7,1.9-0.6,3.2-0.1,4.1c0.8,1.9,3.1,3,6,3.1l2.5,11.8l4.5-1.6l-2-11c1.3-0.4,2.6-1.1,3.9-1.9
			C182.1,585.7,171.9,579.9,171.2,579.5z"/>
	</g>
	<ellipse clip-path="url(#SVGID_2_)" fill="#64891F" cx="399.8" cy="757.3" rx="619.8" ry="180"/>
	<ellipse clip-path="url(#SVGID_2_)" fill="#6D9B2D" cx="913.7" cy="705.8" rx="619.8" ry="180"/>
	<polyline clip-path="url(#SVGID_2_)" fill="#D9CA9F" points="551,609 551,721 568,721 568,609 	"/>
	<polyline clip-path="url(#SVGID_2_)" fill="#D9CA9F" points="278,622.1 278,734.2 295,734.2 295,622.1 	"/>
	<polyline clip-path="url(#SVGID_2_)" fill="#D9CA9F" points="20,659.1 27,763 41,750.4 30.5,651.1 	"/>
	<path clip-path="url(#SVGID_2_)" fill="#D9CA9F" d="M-35,749c0,0,464.2-95.9,628.5-61v-20c0,0-202.5-23.7-679.5,70.3"/>
	<path clip-path="url(#SVGID_2_)" fill="#D9CA9F" d="M-35,705.8c0,0,464.2-95.9,628.5-61v-20c0,0-202.5-23.7-679.5,70.3"/>
	<polyline clip-path="url(#SVGID_2_)" fill="#8E3C30" points="1330.2,523.6 1285.2,744 932.8,732.6 910.3,450 1130.8,363.1 	"/>
	<polyline clip-path="url(#SVGID_2_)" fill="#8E3C30" points="641.3,478.3 644.7,744 1024.3,744 1033.5,471.5 999.6,295.9 
		943.2,256 861.2,185 803.2,225 716.2,276 	"/>
	<polyline clip-path="url(#SVGID_2_)" fill="#AA442E" points="720.5,271.7 737.8,727.7 776.5,727.7 765.7,250.1 	"/>
	<polyline clip-path="url(#SVGID_2_)" fill="#AA442E" points="825.2,203 815.8,732.6 857.8,732.6 886.4,194.7 861.2,181 	"/>
	<polyline clip-path="url(#SVGID_2_)" fill="#AA442E" points="953.8,261.7 905.8,727.7 945.8,735 1007.8,289 	"/>
	<circle clip-path="url(#SVGID_2_)" fill="#E3F9FF" cx="851.1" cy="276.3" r="33.3"/>
	<polyline clip-path="url(#SVGID_2_)" fill="#AA442E" points="1033.5,421 975.8,732.6 1007.8,738.3 1057.8,495.7 	"/>
	<polyline clip-path="url(#SVGID_2_)" fill="#772D25" points="1081.8,509.7 1050.5,744 1092.5,747 1120.3,516.3 	"/>
	<polyline clip-path="url(#SVGID_2_)" fill="#772D25" points="1159.2,509.7 1132.5,744 1167.8,744 1201.2,509.7 	"/>
	<polyline clip-path="url(#SVGID_2_)" fill="#772D25" points="1247.2,509.7 1211.2,744 1247.2,747 1298.5,509.7 	"/>
	<polyline clip-path="url(#SVGID_2_)" fill="#AA442E" points="684.4,389.2 692.8,732.6 644.4,724.6 641.3,457 	"/>
	<polygon clip-path="url(#SVGID_2_)" fill="#D9CA9F" points="1072,523.6 1009.2,285 854.8,169.6 714.8,265.6 598.4,523.6 
		628.3,523.6 734.2,270 856.2,193 988.6,293.9 1044.5,523.6 	"/>
	<path clip-path="url(#SVGID_2_)" fill="#AA442E" d="M854.8,169.6"/>
	<polygon clip-path="url(#SVGID_2_)" fill="#D9CA9F" points="1298.9,326.2 1298.5,326.7 1204.9,232.8 1205.4,232.3 855.2,169.1 
		1000.7,284.6 1072.5,523.1 1366.7,523.1 	"/>
	<polyline clip-path="url(#SVGID_2_)" fill="#CEB880" points="854.8,169.6 1033.9,312.3 1091.8,523.6 1130.2,523.6 1067.1,312.2 
		905.8,178.8 	"/>
	<polyline clip-path="url(#SVGID_2_)" fill="#CEB880" points="994.8,194.9 1123.2,323 1181.2,523.6 1215.8,523.6 1163.6,322.3 
		1045,203.9 	"/>
	<polyline clip-path="url(#SVGID_2_)" fill="#CEB880" points="1102.7,213.8 1224.2,329 1273.2,523.6 1303.2,523.6 1254.8,327 
		1152.5,222.3 	"/>
	<polyline clip-path="url(#SVGID_2_)" fill="#772D25" points="784.7,577 787.2,721 898.7,721 913.7,574 	"/>
	<polyline clip-path="url(#SVGID_2_)" fill="#D9CA9F" points="782.2,577.3 891.2,732.6 897.5,715.3 797.2,570.3 	"/>
	<polyline clip-path="url(#SVGID_2_)" fill="#D9CA9F" points="913,582 792.4,728.4 787.5,710.7 898.6,573.8 	"/>
	<polyline clip-path="url(#SVGID_2_)" fill="#D9CA9F" points="692.8,342 1019.4,342 1019.4,368.7 686.2,368.7 	"/>
	<path clip-path="url(#SVGID_2_)" fill="#D9CA9F" d="M851.1,232.6c-24.1,0-43.7,19.6-43.7,43.7S827,320,851.1,320
		s43.7-19.6,43.7-43.7S875.3,232.6,851.1,232.6z M851.1,306c-16.4,0-29.7-13.3-29.7-29.7s13.3-29.7,29.7-29.7
		c16.4,0,29.7,13.3,29.7,29.7S867.5,306,851.1,306z"/>
	<rect x="845.1" y="243" clip-path="url(#SVGID_2_)" fill="#D9CA9F" width="12.1" height="66.7"/>
	<rect x="817.8" y="270.3" clip-path="url(#SVGID_2_)" fill="#D9CA9F" width="66.7" height="12.1"/>
	<polygon clip-path="url(#SVGID_2_)" fill="#D9CA9F" points="772.7,560.9 776.4,721.5 796.2,721.5 793.5,583.5 902.2,583.5 
		889.8,721.1 905.8,721 923,560.9 	"/>
	<rect x="747.3" y="538.8" clip-path="url(#SVGID_2_)" fill="#D9CA9F" width="201.3" height="29.6"/>
	<ellipse clip-path="url(#SVGID_2_)" fill="#A5BC38" cx="741" cy="980" rx="1328" ry="269"/>
	<path opacity="0.3" clip-path="url(#SVGID_2_)" fill="#95A32E" d="M-121.8,829c0,0,167.7-83.9,460.2-71c0,0-213.6,9-305.4,71
		c0,0,402.1-90,639.1-22c0,0-193.2-46-564.5,58c0,0,480.3-86,708.3,14c0,0-260.5-66.3-754.1,50c0,0,507.3,14,657.2-10
		c0,0-227.7,162-870,36"/>
	<path clip-path="url(#SVGID_2_)" fill="#A5BC38" d="M1159,686.2c0,0-1.1-48.7,28.8-33.3c0,0,21.3-33.9,55.6-4.3
		c0,0,43.6-10.4,48.3,31.6c0,0,37.3-9.3,47.3,25.3c10,34.7-37.3,77-81.1,48.7c0,0,17.9,29.4-16.9,38s-40.2-4.5-48-18.7
		c0,0,14.7,46.7-38.7,45.3C1101,817.5,1105.7,659.5,1159,686.2z"/>
	<path clip-path="url(#SVGID_2_)" fill="#A5BC38" d="M620.3,689.6c0,0-0.6-25.1,14.8-17.2c0,0,11-17.5,28.7-2.2
		c0,0,22.5-5.4,24.9,16.3c0,0,19.3-4.8,24.4,13.1c5.2,17.9-19.2,39.7-41.8,25.1c0,0,9.2,15.2-8.7,19.6c-17.9,4.4-20.7-2.3-24.8-9.6
		c0,0,7.6,24.1-19.9,23.4C590.3,757.3,592.7,675.9,620.3,689.6z"/>
	<path clip-path="url(#SVGID_2_)" fill="#D9CA9F" d="M905.8,713.1c-32.8,33.9-121.2,19.5-66,95.9c57.7,80-12.8,171-12.8,171H339
		c190-33,452-173,409.5-207s24.2-61.9,24.2-61.9L905.8,713.1z"/>
	<path opacity="0.3" clip-path="url(#SVGID_2_)" fill="#95A32E" d="M1564.7,884.9c0,0-108.7-99.2-319.4-114.4
		c0,0,151.4,29.3,208.8,99.6c0,0-275.4-127.7-453.7-83c0,0,144.1-27.1,395.6,111.5c0,0-331.7-131.2-507.9-53.9
		c0,0,194.9-40.8,532.1,121.8c0,0-364.3-34.7-468.2-72.8c0,0,141.1,182.4,616.8,119"/>
	<path opacity="0.5" clip-path="url(#SVGID_2_)" fill="#CEB880" d="M772.7,711.1c0,0,98.3,5.9,70.3,9.4s-98.5,2.7-66.5,12.1
		c32,9.4,32.5,22.5,14.5,25.5c-18,3-32.6,11-6.3,12.5c26.3,1.5,14.7,6-2.5,9c-17.2,3-51.2,15.5-9.4,21.5c41.8,6,105.3,45,38.3,56
		s-126,23.5-83,34s128.5,24.5,67.5,36.5s-261.5,1-228,22s247.9,5,220,30.5H339c0,0,201.3-51.7,280-69s16.7-18.3,42.7-31.2
		c26-12.8,132.4-24.2,114.8-44.8s-37.9-32-19.5-52.3c18.4-20.3-9-14.9-5.3-24.6c3.7-9.7,19.3-10.7,12.7-17.7
		c-6.7-7-15-20.7,6.3-24.3C792,712.4,772.7,711.1,772.7,711.1z"/>
	<path clip-path="url(#SVGID_2_)" fill="#FFF8EB" d="M90.5,141.5h200.7l-33.7-23.2c0,0,38.7-25.4-0.8-46.6s-46.1,34.9-46.1,34.9
		s27-36-19.8-39.7c-46.8-3.7-24.2,37.3-24.2,37.3s-14.7-19.8-33,4.5c0,0-6.5-31.8-34.6-22.3s-19.5,35,0,31.8L90.5,141.5z"/>
	<path clip-path="url(#SVGID_2_)" fill="#FFF8EB" d="M568,290.2H439.3l20.7-16.7c0,0-32-17.3-4-30c28-12.7,39.3,21.3,39.3,21.3
		s-32.7-45.3,22.7-54c55.3-8.7,30.7,54.6,20,62.6c0,0,5.3-22.6,30-4.6c0,0,2.7-19.3,21.3-12.7c18.7,6.7,29.2,34,29.2,34"/>
</g>
</svg>
